<?xml version="1.0" standalone="no"?>
<!DOCTYPE svg PUBLIC "-//W3C//DTD SVG 20010904//EN"
 "http://www.w3.org/TR/2001/REC-SVG-20010904/DTD/svg10.dtd">
<svg version="1.0" xmlns="http://www.w3.org/2000/svg"
 width="1380.000000pt" height="1380.000000pt" viewBox="0 0 1380.000000 1380.000000"
 preserveAspectRatio="xMidYMid meet">

<g transform="translate(0.000000,1380.000000) scale(0.100000,-0.100000)"
fill="#000000" stroke="none">
<path d="M7315 12745 c-22 -8 -41 -15 -43 -15 -2 0 0 -4 3 -10 4 -6 -1 -7 -11
-3 -12 4 -15 3 -10 -5 5 -8 1 -10 -10 -5 -13 5 -15 3 -9 -7 5 -9 4 -11 -3 -6
-16 9 -104 -52 -96 -66 4 -6 3 -8 -3 -5 -12 8 -106 -87 -96 -97 5 -4 2 -6 -6
-4 -7 2 -16 -3 -19 -11 -3 -8 0 -11 7 -7 17 11 13 0 -6 -15 -11 -10 -14 -10
-9 -1 4 6 5 12 2 12 -20 0 -137 -209 -177 -315 l-20 -55 -70 0 -69 0 0 -125 0
-125 41 0 c38 0 41 -2 35 -24 -10 -42 -26 -303 -20 -338 8 -48 25 -89 34 -83
5 3 12 0 16 -6 4 -8 3 -9 -4 -5 -26 16 -10 -14 24 -43 26 -23 42 -30 57 -26
16 5 18 4 8 -3 -22 -15 50 -32 136 -32 l73 0 -12 28 c-19 47 -14 181 9 233 13
28 23 81 27 140 9 119 38 267 66 341 12 32 18 63 14 69 -4 8 -3 9 4 5 14 -8
46 50 36 66 -4 7 -3 8 4 4 11 -7 38 32 34 47 -1 5 1 6 6 3 5 -3 20 6 33 20 49
53 105 67 158 39 54 -27 61 -61 61 -292 l0 -210 37 -11 c20 -6 41 -8 46 -5 6
3 7 1 3 -5 -3 -6 -2 -14 4 -17 8 -5 10 118 8 417 -3 417 -3 424 -26 465 -24
47 -64 79 -83 67 -7 -4 -9 -3 -5 4 8 13 -54 32 -104 32 -19 -1 -53 -7 -75 -15z
m-225 -168 c0 -2 -10 -12 -22 -23 l-23 -19 19 23 c18 21 26 27 26 19z m-183
-1233 c-3 -3 -12 -4 -19 -1 -8 3 -5 6 6 6 11 1 17 -2 13 -5z"/>
<path d="M8952 12024 c-64 -17 -114 -42 -107 -53 2 -5 -3 -8 -13 -7 -9 0 -16
-5 -14 -12 1 -8 -2 -10 -8 -7 -17 10 -87 -71 -121 -140 -72 -147 -50 -331 56
-461 71 -86 198 -144 318 -144 80 0 155 18 135 32 -9 6 -5 7 9 3 32 -9 149 57
137 77 -3 5 0 7 8 6 7 -2 12 3 10 10 -1 8 2 11 7 8 14 -9 70 76 94 142 29 83
29 208 -1 287 -77 205 -297 317 -510 259z m151 -1 c-13 -2 -35 -2 -50 0 -16 2
-5 4 22 4 28 0 40 -2 28 -4z m223 -413 c43 -22 87 -40 97 -40 10 0 17 -8 17
-19 0 -25 -20 -81 -30 -81 -4 0 -36 15 -70 33 -59 30 -71 32 -159 32 -90 0
-100 -2 -158 -34 -35 -18 -61 -37 -59 -40 3 -4 -32 -6 -77 -4 -95 2 -128 5
-122 12 5 4 -50 41 -61 41 -3 0 -2 -5 2 -12 4 -7 3 -8 -5 -4 -6 4 -9 12 -6 17
4 5 2 9 -4 9 -5 0 -11 -4 -13 -10 -1 -5 -4 20 -6 56 l-3 66 58 -34 c53 -30 65
-33 138 -33 68 0 88 5 133 28 32 17 50 32 46 39 -4 6 -3 8 4 5 5 -4 21 -3 34
2 12 6 55 10 94 10 64 1 79 -3 150 -39z m-591 10 c3 -6 -1 -7 -9 -4 -18 7 -21
14 -7 14 6 0 13 -4 16 -10z m162 -46 c-3 -3 -12 -4 -19 -1 -8 3 -5 6 6 6 11 1
17 -2 13 -5z m570 -36 c-3 -8 -6 -5 -6 6 -1 11 2 17 5 13 3 -3 4 -12 1 -19z
m-360 -24 c-3 -3 -12 -4 -19 -1 -8 3 -5 6 6 6 11 1 17 -2 13 -5z m70 0 c-3 -3
-12 -4 -19 -1 -8 3 -5 6 6 6 11 1 17 -2 13 -5z m97 -29 c29 -10 45 -11 60 -3
12 6 18 7 14 3 -4 -5 -2 -15 5 -24 11 -14 10 -14 -6 -2 -9 8 -20 11 -23 8 -4
-3 10 -14 29 -23 22 -11 35 -24 34 -35 -1 -10 -6 -17 -12 -16 -5 1 -10 -5 -10
-15 0 -20 -35 -59 -46 -52 -18 11 -30 -7 -17 -24 10 -14 10 -15 -1 -5 -10 8
-28 4 -80 -20 -59 -29 -75 -32 -161 -32 -82 0 -103 4 -152 27 -32 15 -73 39
-92 53 -19 15 -38 25 -42 23 -4 -2 -8 5 -10 15 -4 28 -24 46 -42 40 -12 -3
-14 -2 -4 4 7 5 10 17 6 26 -5 15 -1 15 37 -3 60 -27 220 -26 203 1 -3 5 3 6
12 2 12 -4 15 -3 10 5 -5 8 -1 10 10 5 13 -5 15 -3 9 7 -5 9 -4 11 4 6 6 -4
22 -1 35 8 55 36 162 46 230 21z m-149 -265 c-3 -5 -26 -10 -50 -10 -24 0 -47
5 -50 10 -4 6 15 10 50 10 35 0 54 -4 50 -10z"/>
<path d="M9334 11348 l-19 -23 23 19 c21 18 27 26 19 26 -2 0 -12 -10 -23 -22z"/>
<path d="M3600 11911 l-32 -41 80 0 c44 0 95 -3 113 -6 34 -6 34 -6 11 10 -12
10 -27 14 -34 10 -6 -4 -8 -3 -5 3 9 14 -29 47 -43 38 -6 -3 -9 -1 -8 7 2 8
-8 14 -23 16 -21 2 -33 -6 -59 -37z m27 -27 c-3 -3 -12 -4 -19 -1 -8 3 -5 6 6
6 11 1 17 -2 13 -5z"/>
<path d="M10820 11890 l-26 -28 28 -33 c15 -18 28 -27 28 -19 0 7 10 25 23 38
18 21 19 24 4 19 -10 -4 -16 -3 -13 1 2 4 -1 17 -7 29 -12 21 -12 21 -37 -7z"/>
<path d="M7367 11763 c-15 -2 -25 -8 -22 -12 2 -5 -6 -6 -18 -4 -27 4 -103
-39 -99 -56 1 -7 -2 -10 -7 -7 -15 10 -61 -44 -87 -102 -18 -40 -24 -70 -24
-127 0 -73 23 -160 40 -150 4 3 7 -3 6 -13 0 -9 5 -16 12 -14 8 1 11 -2 8 -7
-7 -10 31 -61 45 -61 6 0 7 6 3 13 -4 7 -3 9 2 4 5 -5 9 -14 9 -20 0 -7 8 -11
18 -11 9 1 15 -2 12 -6 -7 -11 52 -33 66 -24 7 4 10 3 5 -4 -4 -7 10 -13 40
-18 49 -7 139 8 185 32 41 21 90 65 83 75 -3 5 0 8 7 7 7 -2 26 24 43 56 27
53 31 69 30 140 0 63 -5 91 -23 129 -13 26 -28 50 -34 54 -6 3 -7 1 -3 -5 11
-18 0 -14 -15 5 -12 14 -12 16 0 9 9 -6 12 -4 9 5 -7 22 -89 81 -105 75 -8 -3
-12 -2 -9 3 13 20 -116 45 -177 34z m121 -130 c20 -9 44 -17 52 -17 8 -1 15
-8 15 -16 1 -8 6 -14 13 -12 7 1 11 -1 10 -5 -1 -5 6 -29 16 -55 26 -67 18
-137 -21 -186 -37 -47 -105 -82 -158 -82 -44 0 -112 28 -134 53 -7 9 -18 14
-24 10 -6 -3 -7 -1 -3 5 4 6 0 22 -9 35 -27 42 -30 108 -6 162 11 26 18 52 14
59 -3 6 -3 8 2 4 4 -4 22 4 41 18 59 45 130 55 192 27z m-71 -479 c-3 -3 -12
-4 -19 -1 -8 3 -5 6 6 6 11 1 17 -2 13 -5z"/>
<path d="M10584 11750 c-17 -6 -38 -18 -45 -27 -12 -14 -12 -16 0 -8 10 5 12
4 7 -4 -4 -6 -12 -9 -17 -6 -5 3 -18 -9 -29 -27 -28 -47 -27 -124 3 -169 24
-37 97 -79 137 -79 40 0 113 42 137 79 30 45 31 122 3 169 -12 20 -25 30 -32
26 -7 -4 -8 -3 -4 4 18 30 -99 61 -160 42z m79 -7 c-7 -2 -21 -2 -30 0 -10 3
-4 5 12 5 17 0 24 -2 18 -5z m31 -78 c15 -7 17 -5 11 6 -5 8 -5 11 1 6 5 -5 9
-12 9 -15 0 -4 8 -18 17 -32 19 -27 32 -136 18 -145 -4 -3 -6 5 -3 17 l5 23
-16 -23 c-25 -33 -71 -53 -115 -50 -21 2 -37 7 -34 11 3 5 -1 7 -8 5 -8 -1
-15 2 -17 7 -2 6 -10 21 -18 34 -11 16 -14 36 -10 65 3 22 7 49 8 58 1 9 5 16
8 16 3 -1 21 6 40 15 35 17 67 17 104 2z m93 -57 c-3 -7 -5 -2 -5 12 0 14 2
19 5 13 2 -7 2 -19 0 -25z"/>
<path d="M10959 11687 c-88 -58 -86 -173 4 -227 41 -25 78 -25 126 0 92 46 92
182 0 232 -45 24 -89 23 -130 -5z m30 0 c-2 -2 -17 -11 -34 -21 l-30 -17 24
20 c13 12 28 21 34 21 6 0 8 -1 6 -3z m80 -21 c15 -8 33 -22 40 -30 7 -9 17
-14 21 -11 5 3 6 -5 2 -17 -3 -13 -1 -19 5 -15 15 9 -3 -68 -22 -97 -43 -66
-153 -57 -190 14 -15 29 -18 123 -3 114 4 -2 10 1 13 7 11 17 68 49 88 49 10
0 30 -6 46 -14z"/>
<path d="M2897 11593 c-4 -3 -7 -11 -7 -18 0 -14 58 -58 76 -58 7 0 11 -3 9
-7 -6 -10 305 -245 324 -245 9 0 16 -7 16 -15 0 -8 8 -14 17 -14 10 1 16 -3
15 -10 -1 -6 4 -10 11 -8 8 1 11 -2 7 -7 -7 -12 29 -33 40 -23 5 4 5 2 1 -5
-7 -14 27 -36 39 -25 3 4 5 0 3 -8 -2 -9 4 -15 17 -15 11 0 20 -5 20 -12 0
-17 106 -94 118 -86 6 3 7 1 4 -4 -9 -14 140 -126 156 -117 6 4 9 3 4 -1 -8
-9 20 -45 36 -45 5 0 3 8 -4 18 -13 15 -12 16 3 3 10 -7 16 -17 13 -21 -7 -12
36 -41 48 -33 6 3 7 1 4 -4 -4 -6 9 -23 29 -38 30 -23 38 -25 46 -14 8 11 9
11 5 -3 -6 -17 18 -33 34 -22 14 9 10 34 -7 41 -8 3 -13 11 -11 17 5 13 -98
93 -114 89 -5 -2 -8 1 -6 6 2 8 -96 91 -108 91 -4 0 -3 -6 1 -12 4 -8 3 -10
-2 -5 -5 5 -9 12 -9 16 0 9 -59 61 -70 61 -3 0 -3 -5 1 -12 4 -7 3 -8 -5 -4
-6 4 -9 11 -6 16 7 12 -63 62 -77 54 -6 -4 -8 -3 -4 4 8 14 -70 75 -85 66 -7
-4 -9 -3 -6 3 8 13 -478 386 -505 388 -10 1 -24 7 -30 13 -13 13 -31 16 -41 5z
m23 -7 c0 -3 -4 -8 -10 -11 -5 -3 -10 -1 -10 4 0 6 5 11 10 11 6 0 10 -2 10
-4z"/>
<path d="M5800 11438 l0 -68 -82 0 c-46 -1 -100 -7 -121 -14 -52 -19 -110 -65
-103 -83 3 -8 1 -11 -4 -8 -11 7 -33 -40 -45 -92 l-7 -33 500 0 499 0 -7 38
c-3 20 -12 48 -19 62 -20 38 -63 80 -74 73 -6 -3 -7 -1 -3 5 14 23 -56 45
-159 51 l-100 6 -3 62 -3 61 -72 6 c-40 3 -100 5 -134 3 l-63 -2 0 -67z"/>
<path d="M10357 11428 c-9 -16 -15 -34 -12 -39 4 -5 0 -6 -8 -3 -8 3 -18 1
-21 -4 -3 -6 1 -12 9 -16 8 -3 24 -20 35 -38 20 -33 24 -29 23 19 0 7 2 12 6
12 3 -1 16 2 29 6 l23 8 -22 15 c-11 8 -26 27 -33 42 l-12 28 -17 -30z"/>
<path d="M3986 11374 c-9 -8 -16 -17 -16 -19 0 -10 94 -74 101 -69 5 3 8 0 7
-8 -2 -7 5 -12 14 -12 10 1 16 -2 13 -6 -8 -12 23 -33 36 -24 7 4 9 3 5 -4 -8
-13 33 -44 47 -35 6 3 7 1 4 -4 -4 -6 0 -16 8 -23 12 -10 17 -7 26 14 15 33
-3 81 -27 72 -8 -3 -13 -2 -10 3 8 12 -152 131 -175 131 -10 0 -25 -7 -33 -16z
m242 -159 c-3 -3 -9 2 -12 12 -6 14 -5 15 5 6 7 -7 10 -15 7 -18z"/>
<path d="M4710 11338 c0 -7 -3 -23 -6 -35 -4 -16 -2 -23 7 -23 8 0 43 -14 77
-30 35 -17 69 -27 74 -23 7 3 8 1 4 -5 -8 -13 28 -35 39 -24 3 4 5 2 4 -3 -4
-13 70 -91 83 -87 5 1 7 -2 4 -7 -3 -5 4 -30 15 -57 28 -63 28 -157 0 -238
-24 -69 -25 -69 -9 -60 7 4 8 3 4 -5 -4 -6 -11 -9 -16 -6 -4 3 -17 -11 -29
-30 -18 -32 -14 -54 8 -40 5 3 13 0 17 -6 5 -8 3 -9 -7 -4 -11 6 -11 5 -2 -5
17 -18 30 -6 63 61 123 243 46 466 -201 586 -104 51 -129 59 -129 41z m377
-415 c-3 -10 -5 -2 -5 17 0 19 2 27 5 18 2 -10 2 -26 0 -35z"/>
<path d="M10916 11337 c3 -10 9 -15 12 -12 3 3 0 11 -7 18 -10 9 -11 8 -5 -6z"/>
<path d="M10553 11286 c-83 -37 -95 -161 -19 -207 89 -54 196 13 183 114 -10
77 -93 124 -164 93z m93 -8 c4 4 4 2 1 -4 -4 -7 0 -17 8 -24 21 -17 19 -63 -5
-92 -10 -14 -18 -27 -15 -29 2 -3 -14 -3 -36 -1 -28 3 -46 12 -63 32 -13 16
-26 27 -29 24 -3 -3 -8 0 -13 7 -5 8 -3 10 6 4 10 -6 12 -3 8 13 -4 12 -2 20
2 17 5 -3 12 4 15 16 9 27 62 50 91 39 12 -5 25 -6 30 -2z m-115 -175 c13 -16
12 -17 -3 -4 -17 13 -22 21 -14 21 2 0 10 -8 17 -17z m62 -30 c-7 -2 -19 -2
-25 0 -7 3 -2 5 12 5 14 0 19 -2 13 -5z"/>
<path d="M10907 11274 c-22 -29 -60 -31 -87 -4 -11 11 -20 16 -20 12 0 -18 38
-42 67 -42 30 0 68 30 62 48 -2 6 -12 -1 -22 -14z"/>
<path d="M3041 11254 c-61 -78 -40 -196 45 -246 30 -17 34 -25 34 -59 0 -65
50 -134 113 -158 41 -16 113 -13 149 5 16 9 27 11 24 6 -10 -17 52 -54 99 -59
56 -7 108 11 140 49 19 23 23 33 15 44 -15 17 -43 6 -35 -14 3 -9 3 -13 -1
-10 -3 4 -23 -2 -42 -13 -43 -22 -60 -23 -99 -7 -15 7 -35 12 -43 13 -9 0 -14
8 -12 18 4 26 -24 31 -63 13 -34 -17 -138 -19 -128 -3 4 7 -13 11 -32 7 -5 -1
-7 2 -3 6 9 8 -11 36 -21 30 -8 -5 -9 4 -17 89 -6 58 -7 61 -43 78 -50 23 -76
70 -67 123 4 21 7 47 8 56 1 9 7 16 12 15 6 -1 12 8 14 21 5 31 -21 29 -47 -4z
m75 -236 c-10 -6 -22 -6 -26 -2 -5 5 3 10 18 11 22 1 24 0 8 -9z m269 -198 c3
-5 1 -10 -4 -10 -6 0 -11 5 -11 10 0 6 2 10 4 10 3 0 8 -4 11 -10z m-25 -20
c0 -5 -24 -10 -52 -10 -38 0 -49 3 -38 10 20 13 90 13 90 0z m170 -40 c-8 -5
-22 -9 -30 -9 -10 0 -8 3 5 9 27 12 43 12 25 0z"/>
<path d="M10920 11033 c-79 -13 -225 -77 -215 -93 3 -5 0 -8 -7 -5 -18 7 -109
-73 -106 -93 2 -10 -2 -16 -9 -15 -28 6 -103 -143 -123 -245 -8 -37 -10 -96
-7 -145 6 -90 42 -211 59 -200 7 3 8 1 4 -5 -9 -15 11 -53 26 -49 6 1 13 -5
15 -13 4 -13 3 -13 -6 0 -6 8 -11 10 -11 5 0 -6 14 -26 31 -45 17 -19 27 -29
23 -21 -5 9 -3 12 5 7 6 -4 9 -11 6 -16 -7 -11 20 -32 30 -22 5 4 5 2 2 -5
-10 -16 55 -68 131 -104 69 -33 173 -59 242 -59 61 0 170 24 222 49 24 12 35
19 25 16 -11 -3 -16 -1 -12 6 4 6 14 8 23 4 24 -9 158 87 147 105 -3 4 3 14
13 21 16 13 16 12 3 -6 -7 -11 1 -4 19 15 45 50 102 169 95 200 -4 18 -3 21 4
11 13 -21 26 65 25 164 -2 92 -30 206 -46 184 -8 -11 -8 -9 -4 5 6 18 -29 102
-47 113 -12 7 -28 -18 -22 -35 3 -7 0 -10 -5 -7 -12 8 -63 -92 -54 -107 4 -7
3 -8 -4 -4 -15 9 -15 7 4 -45 24 -64 22 -191 -3 -254 -11 -27 -24 -59 -28 -70
-7 -20 -6 -20 9 -1 9 11 16 15 16 9 0 -11 -18 -27 -30 -28 -10 0 -100 -102
-94 -107 3 -3 -1 -6 -8 -5 -7 1 -38 -11 -69 -26 -81 -39 -157 -51 -236 -37
-35 6 -69 8 -75 4 -6 -4 -8 -3 -5 3 7 12 -60 46 -74 37 -5 -3 -9 -2 -8 3 2 4
-28 38 -65 76 -37 37 -64 62 -60 56 4 -8 3 -9 -5 -5 -6 4 -9 11 -7 15 3 4 -4
32 -16 62 -17 43 -21 73 -20 144 2 123 5 154 16 147 5 -3 6 2 3 12 -4 9 -3 15
2 12 11 -7 23 22 15 35 -3 5 0 8 8 7 7 -2 12 5 12 14 -1 10 1 16 5 15 4 -1 28
19 54 45 51 51 132 95 189 105 29 4 43 14 59 39 11 19 17 39 13 45 -4 7 -3 9
3 6 5 -3 19 14 31 38 l22 45 -53 -1 c-28 -1 -63 -4 -77 -6z m78 -10 c-10 -2
-26 -2 -35 0 -10 3 -2 5 17 5 19 0 27 -2 18 -5z m15 -38 c-3 -9 -8 -14 -10
-11 -3 3 -2 9 2 15 9 16 15 13 8 -4z m-480 -250 c-3 -9 -8 -14 -10 -11 -3 3
-2 9 2 15 9 16 15 13 8 -4z m960 -540 c-3 -9 -8 -14 -10 -11 -3 3 -2 9 2 15 9
16 15 13 8 -4z m-396 -131 c-3 -3 -12 -4 -19 -1 -8 3 -5 6 6 6 11 1 17 -2 13
-5z m-422 -14 c3 -6 -1 -7 -9 -4 -18 7 -21 14 -7 14 6 0 13 -4 16 -10z"/>
<path d="M6280 10685 c0 -112 -61 -307 -125 -400 -18 -27 -31 -54 -28 -60 4
-5 2 -7 -2 -2 -11 10 -56 -33 -48 -46 3 -6 2 -8 -3 -4 -10 6 -90 -50 -87 -61
1 -4 -1 -9 -4 -12 -4 -3 -3 1 1 8 10 16 9 16 -48 -13 -27 -14 -55 -25 -62 -25
-7 0 -17 -8 -23 -17 -8 -14 1 -21 56 -45 36 -15 70 -25 76 -21 6 3 7 1 4 -4
-7 -11 35 -44 60 -47 7 -1 13 -6 13 -10 -1 -4 22 -32 49 -63 92 -103 156 -267
168 -430 7 -87 28 -102 37 -25 18 152 59 289 113 374 26 42 29 53 11 42 -9 -6
-9 -3 0 9 8 9 17 15 21 14 4 -1 30 21 59 50 35 33 48 53 40 56 -7 3 -4 5 7 4
30 -2 186 76 183 91 -2 7 -29 24 -61 37 -78 31 -124 64 -194 138 -32 34 -62
60 -66 59 -5 -1 -6 2 -2 8 4 6 -2 26 -14 45 -35 59 -72 176 -87 275 -7 52 -14
101 -14 108 0 6 -7 12 -15 12 -11 0 -15 -12 -15 -45z m17 -2 c-3 -10 -5 -4 -5
12 0 17 2 24 5 18 2 -7 2 -21 0 -30z m24 -180 c-12 -20 -14 -14 -5 12 4 9 9
14 11 11 3 -2 0 -13 -6 -23z m26 -65 c-3 -8 -6 -5 -6 6 -1 11 2 17 5 13 3 -3
4 -12 1 -19z m26 -733 c-3 -9 -8 -14 -10 -11 -3 3 -2 9 2 15 9 16 15 13 8 -4z"/>
<path d="M10784 10600 c-4 -14 -7 -28 -6 -32 1 -5 -1 -7 -5 -6 -5 0 -16 -2
-26 -7 -15 -6 -14 -11 13 -41 16 -19 30 -40 30 -47 1 -7 8 4 17 23 9 19 15 38
15 42 -1 4 5 5 13 2 21 -9 19 12 -2 22 -10 4 -21 8 -25 8 -3 1 -10 5 -15 10
-5 5 -3 6 5 2 13 -8 14 -1 3 29 -8 19 -9 19 -17 -5z"/>
<path d="M2360 10395 l0 -45 -60 0 -60 0 5 -42 c5 -38 45 -517 60 -713 3 -38
8 -87 11 -107 l6 -38 149 0 c131 0 149 2 149 16 0 26 59 774 65 832 l6 52 -60
0 -61 0 0 45 0 45 -105 0 -105 0 0 -45z m-93 -127 c-3 -8 -6 -5 -6 6 -1 11 2
17 5 13 3 -3 4 -12 1 -19z m360 -560 c-3 -8 -6 -5 -6 6 -1 11 2 17 5 13 3 -3
4 -12 1 -19z m-10 -100 c-3 -7 -5 -2 -5 12 0 14 2 19 5 13 2 -7 2 -19 0 -25z
m-104 -145 c-24 -2 -62 -2 -85 0 -24 2 -5 4 42 4 47 0 66 -2 43 -4z"/>
<path d="M1507 10173 c-2 -4 -8 -22 -11 -39 -8 -37 -67 -110 -96 -119 -26 -8
-25 -22 2 -31 13 -4 36 -21 52 -38 16 -17 26 -25 21 -17 -5 9 -4 12 3 7 6 -4
8 -14 5 -23 -5 -12 -3 -14 7 -8 8 5 11 4 7 -2 -8 -13 3 -73 13 -73 4 0 10 14
14 32 10 48 46 97 90 120 l40 20 -30 13 c-16 6 -35 19 -43 28 -7 9 -18 14 -25
10 -6 -3 -8 -3 -4 2 9 9 -10 47 -20 41 -5 -3 -14 0 -22 6 -12 8 -12 9 3 4 16
-5 17 -1 11 32 -8 42 -10 47 -17 35z"/>
<path d="M1239 9825 c-1 -11 -2 -25 -2 -32 0 -7 -4 -11 -11 -10 -6 1 -10 -3
-9 -10 2 -8 -4 -10 -15 -6 -11 4 -8 -3 11 -22 15 -15 27 -35 28 -44 0 -13 1
-14 6 -1 3 8 17 28 32 44 19 21 21 27 9 23 -10 -3 -17 -3 -16 1 0 4 -6 23 -15
42 -13 27 -17 30 -18 15z"/>
<path d="M12005 9670 c-65 -14 -156 -51 -150 -61 4 -5 -2 -6 -11 -2 -12 4 -15
3 -10 -5 5 -8 1 -10 -10 -5 -13 5 -15 3 -9 -7 5 -9 4 -11 -4 -6 -6 4 -18 2
-26 -4 -12 -10 -10 -15 13 -35 19 -17 29 -20 35 -12 6 8 7 5 3 -6 -3 -10 -1
-28 5 -39 10 -19 17 -20 78 -14 121 11 292 70 400 136 l45 28 -55 17 c-62 19
-244 28 -304 15z"/>
<path d="M3430 9616 c0 -31 -19 -85 -41 -117 -10 -14 -15 -30 -11 -34 4 -5 2
-5 -4 -2 -6 4 -19 -2 -28 -12 -10 -11 -31 -25 -47 -31 l-30 -13 31 -19 c17
-10 36 -15 42 -12 6 4 8 3 5 -3 -4 -6 3 -19 15 -29 27 -25 68 -112 68 -146 0
-16 5 -28 10 -28 9 0 14 29 14 82 0 9 3 15 7 13 3 -3 12 8 19 24 6 16 22 39
35 51 14 13 22 26 20 30 -3 4 3 7 13 6 9 0 16 5 14 12 -1 8 2 11 8 7 5 -3 17
-2 26 3 13 7 11 11 -14 21 -16 7 -42 25 -57 41 -16 16 -33 27 -38 23 -6 -3 -7
-1 -4 4 4 6 -2 31 -13 54 -11 24 -20 56 -20 72 0 15 -4 27 -10 27 -5 0 -10
-11 -10 -24z m-115 -216 c3 -6 -1 -7 -9 -4 -18 7 -21 14 -7 14 6 0 13 -4 16
-10z m195 -54 c0 -2 -7 -9 -15 -16 -13 -11 -14 -10 -9 4 5 14 24 23 24 12z"/>
<path d="M7630 9385 l0 -205 75 0 75 0 0 -130 c0 -116 2 -130 19 -139 10 -6
22 -7 26 -3 5 4 5 2 2 -4 -7 -13 120 -119 142 -119 9 0 16 -5 16 -10 0 -15 15
-35 26 -35 6 0 7 5 3 12 -4 7 -3 8 5 4 6 -4 9 -11 6 -16 -7 -12 95 -91 109
-83 6 3 8 3 4 -2 -9 -9 9 -35 24 -35 6 0 4 8 -3 18 -13 15 -12 16 4 3 9 -8 15
-16 12 -19 -7 -7 35 -52 48 -52 6 0 0 12 -14 28 l-24 27 27 -24 c15 -13 26
-29 25 -35 -1 -6 4 -10 11 -8 8 1 11 -2 7 -7 -6 -10 33 -37 47 -33 5 1 7 -2 5
-7 -3 -13 234 -201 246 -194 6 3 7 1 4 -4 -4 -6 20 -32 53 -57 l60 -47 0 485
0 486 75 0 75 0 0 205 0 205 -595 0 -595 0 0 -205z"/>
<path d="M1220 9505 l0 -55 525 0 525 0 0 55 0 55 -525 0 -525 0 0 -55z"/>
<path d="M6800 9330 c-52 -43 -94 -83 -93 -89 2 -6 -3 -8 -10 -5 -7 2 -22 -6
-33 -18 -19 -23 -19 -23 1 -8 18 14 19 14 6 -2 -7 -10 -17 -15 -23 -12 -11 7
-40 -15 -33 -25 2 -4 -2 -8 -9 -8 -18 0 -417 -324 -411 -334 3 -4 0 -11 -6
-15 -8 -4 -9 -3 -5 4 4 7 3 12 -2 12 -12 0 -43 -35 -37 -42 3 -3 -2 -11 -12
-19 -11 -9 -14 -10 -9 -1 4 6 4 12 1 12 -13 0 -180 -142 -180 -154 0 -6 -7
-11 -15 -11 -22 0 -101 -66 -93 -78 3 -6 2 -7 -4 -4 -14 9 -55 -22 -47 -35 4
-6 2 -8 -3 -5 -14 9 -125 -82 -116 -96 3 -6 1 -7 -6 -3 -12 8 -78 -41 -73 -56
1 -4 -2 -7 -8 -6 -5 2 -79 -53 -164 -121 -133 -107 -154 -127 -143 -140 10
-14 10 -14 -4 -4 -13 11 -41 -8 -185 -123 -176 -141 -221 -180 -171 -149 37
24 34 14 -4 -14 -18 -13 -29 -19 -25 -12 14 21 -6 11 -54 -30 -27 -23 -47 -46
-43 -52 4 -6 1 -7 -6 -3 -15 10 -53 -23 -44 -37 3 -6 1 -7 -6 -3 -15 10 -43
-13 -34 -27 3 -5 1 -7 -4 -4 -14 9 -65 -32 -57 -45 4 -6 2 -8 -4 -4 -6 3 -23
-5 -39 -20 -18 -16 -22 -24 -10 -20 24 7 21 -1 -4 -15 -15 -8 -19 -8 -15 0 14
23 -7 9 -94 -61 -49 -39 -86 -76 -83 -81 3 -6 1 -7 -4 -4 -9 6 -123 -77 -123
-89 0 -2 8 -1 18 2 13 5 14 4 3 -4 -8 -6 -19 -8 -26 -6 -6 3 -18 -2 -25 -11
-11 -13 252 -15 2670 -15 2418 0 2681 2 2670 15 -7 9 -19 14 -27 11 -8 -3 -12
-2 -9 3 8 13 -31 44 -45 35 -7 -4 -10 -3 -6 4 9 13 -51 64 -65 56 -6 -4 -8 -2
-5 3 7 12 -138 130 -154 125 -6 -1 -8 2 -4 7 7 12 -29 33 -40 23 -5 -4 -5 -2
-2 4 8 14 -14 34 -40 38 -10 2 -18 8 -18 15 0 17 -35 42 -48 34 -6 -3 -7 -2
-4 4 8 13 -120 116 -133 108 -6 -4 -9 -1 -8 7 2 7 -3 12 -10 10 -6 -1 -11 2
-10 6 5 15 -121 114 -133 106 -7 -4 -9 -3 -6 3 4 6 -24 36 -63 67 -69 56 -88
67 -74 44 5 -9 3 -9 -9 1 -9 7 -15 17 -12 21 6 10 -102 96 -116 92 -6 -1 -8 2
-4 7 7 12 -29 33 -40 23 -5 -4 -5 -2 -2 4 7 13 -88 91 -105 86 -5 -1 -7 2 -4
7 8 12 -84 82 -97 74 -5 -3 -7 -1 -3 5 7 12 -48 55 -58 44 -4 -4 -6 -2 -4 4 5
16 -59 67 -73 58 -8 -4 -9 -3 -5 4 7 12 -50 59 -66 54 -5 -1 -7 2 -3 7 7 12
-29 33 -40 23 -5 -4 -5 -2 -2 5 9 14 -41 55 -56 46 -5 -3 -7 -1 -3 5 7 11 -47
55 -58 47 -3 -3 -4 -2 -1 2 6 8 -14 33 -27 33 -5 0 -6 -5 -2 -12 5 -7 3 -8 -5
-4 -7 5 -10 11 -7 14 7 7 -24 42 -37 42 -5 0 -3 -8 4 -17 13 -16 12 -17 -4 -4
-9 8 -15 16 -12 19 6 7 -25 42 -37 42 -5 0 -6 -5 -2 -12 4 -7 3 -8 -5 -4 -6 4
-9 11 -6 16 7 12 -22 33 -36 24 -7 -4 -9 -3 -5 4 8 13 -64 73 -77 65 -6 -3 -7
-1 -3 5 8 13 -28 35 -39 24 -5 -4 -5 -2 -2 4 9 15 -29 48 -44 38 -7 -4 -10 -3
-6 3 4 6 -58 63 -140 129 -150 121 -172 137 -158 114 5 -9 4 -11 -4 -6 -6 4
-9 11 -6 16 6 10 -80 81 -103 84 -9 2 -17 7 -17 13 0 16 -64 65 -75 58 -6 -4
-9 -1 -8 7 2 7 -3 12 -10 10 -8 -1 -11 2 -7 7 6 10 -34 37 -48 33 -5 -1 -6 1
-3 6 4 8 -66 73 -76 71 -2 0 -46 -36 -98 -79z"/>
<path d="M12682 9293 c-6 -2 -10 -9 -7 -14 4 -5 0 -6 -8 -4 -7 3 -30 -1 -50
-10 l-37 -15 37 -67 c33 -59 37 -77 41 -152 3 -69 0 -98 -17 -145 -11 -32 -18
-63 -14 -69 3 -6 1 -7 -4 -4 -12 7 -69 -72 -64 -88 1 -5 0 -7 -4 -3 -4 3 -34
-16 -68 -43 -34 -27 -65 -49 -70 -49 -4 0 -6 -4 -3 -8 2 -4 -3 -8 -12 -9 -9
-1 -55 -13 -101 -27 -153 -47 -338 -28 -467 50 -31 19 -61 31 -67 27 -5 -3 -7
-2 -4 4 8 13 -87 106 -98 96 -4 -5 -5 -3 -1 4 3 6 -3 28 -15 48 -12 19 -29 60
-38 90 l-17 54 -44 -38 -44 -37 25 -70 c15 -42 30 -68 38 -66 7 1 10 -2 6 -7
-22 -37 189 -258 225 -236 6 4 9 1 8 -7 -2 -7 4 -13 12 -13 8 0 14 8 14 18 -1
10 1 16 4 13 3 -4 16 3 28 15 l23 22 63 -19 c90 -26 278 -24 371 4 61 19 71
19 69 1 0 -3 9 -18 22 -34 l23 -28 47 32 c26 18 44 37 40 43 -4 7 -2 8 4 4 15
-9 93 63 90 83 -2 9 2 15 9 14 29 -6 105 147 129 258 20 93 13 227 -16 322
-20 63 -28 72 -58 60z m-42 -37 c0 -2 -7 -7 -16 -10 -8 -3 -12 -2 -9 4 6 10
25 14 25 6z m-60 -650 c0 -2 -8 -10 -17 -17 -16 -13 -17 -12 -4 4 13 16 21 21
21 13z m-553 -72 c-3 -3 -12 -4 -19 -1 -8 3 -5 6 6 6 11 1 17 -2 13 -5z m220
0 c-3 -3 -12 -4 -19 -1 -8 3 -5 6 6 6 11 1 17 -2 13 -5z"/>
<path d="M11920 9140 c-23 -23 -25 -39 -7 -64 14 -19 62 -25 77 -10 20 22 21
53 1 73 -26 26 -46 26 -71 1z m47 4 c-3 -3 -12 -4 -19 -1 -8 3 -5 6 6 6 11 1
17 -2 13 -5z"/>
<path d="M12270 9140 c-23 -23 -24 -33 -10 -61 16 -29 78 -27 89 4 10 26 4 47
-17 65 -22 17 -39 15 -62 -8z"/>
<path d="M11964 8828 c8 -50 55 -124 79 -122 9 1 15 -2 12 -6 -7 -12 33 -23
81 -22 77 1 130 45 153 127 19 69 28 65 -160 65 l-172 0 7 -42z m214 25 c-27
-2 -69 -2 -95 0 -27 2 -5 3 47 3 52 0 74 -1 48 -3z"/>
<path d="M9523 8778 c1 -25 -1 -44 -4 -42 -9 5 -29 -68 -22 -79 3 -6 2 -7 -4
-4 -10 6 -60 -52 -55 -65 1 -4 -6 -4 -15 -1 -12 5 -14 3 -8 -7 5 -9 4 -11 -3
-6 -6 4 -21 2 -32 -4 -19 -10 -18 -13 27 -43 26 -18 57 -46 69 -64 12 -18 23
-30 26 -28 2 2 4 -4 5 -13 0 -9 5 -44 10 -77 l9 -60 6 46 c14 96 71 181 140
210 l29 12 -31 19 c-17 10 -36 15 -42 12 -6 -4 -8 -3 -5 3 4 6 -2 18 -12 27
-10 10 -21 14 -23 9 -3 -4 -4 -3 -2 3 3 15 -13 39 -27 39 -7 0 -14 7 -16 15
-4 13 -3 13 7 0 10 -12 10 -10 5 10 -4 14 -13 50 -21 80 l-14 55 3 -47z"/>
<path d="M5005 8768 c-4 -24 -8 -53 -8 -65 -1 -12 -4 -21 -8 -20 -3 1 -20 -15
-39 -36 -18 -21 -49 -46 -69 -56 l-35 -19 42 -21 c23 -12 42 -19 42 -15 0 4 7
1 15 -6 8 -6 14 -15 13 -18 -1 -4 11 -32 25 -62 15 -30 27 -67 27 -82 0 -16 5
-28 10 -28 6 0 10 11 10 25 0 14 7 42 15 62 18 43 18 46 3 37 -7 -4 -8 -3 -4
5 4 6 11 9 16 6 12 -7 32 30 22 40 -4 5 -2 5 5 1 6 -3 14 -2 18 4 3 6 25 20
48 31 l41 21 -30 15 c-68 35 -134 131 -134 196 0 42 -17 32 -25 -15z m20 -348
c3 -5 1 -10 -4 -10 -6 0 -11 5 -11 10 0 6 2 10 4 10 3 0 8 -4 11 -10z"/>
<path d="M11703 8393 c-10 -3 -13 -50 -13 -184 l0 -179 440 0 441 0 -1 185 -2
185 -426 -1 c-235 0 -433 -3 -439 -6z"/>
<path d="M2019 8041 c-19 -20 -29 -40 -29 -60 0 -33 128 -353 139 -347 3 2 6
-6 7 -17 0 -12 9 -42 19 -67 l18 -45 -32 -50 c-18 -28 -30 -58 -27 -68 2 -9 1
-15 -4 -12 -17 11 -26 -117 -11 -176 l6 -25 152 54 c89 32 150 59 146 65 -3 6
-1 7 6 3 13 -8 83 12 77 22 -2 4 8 8 22 8 15 1 39 7 54 13 l28 10 -21 36 c-12
19 -23 35 -26 35 -2 0 -1 -5 3 -12 4 -7 3 -8 -5 -4 -6 4 -9 12 -5 17 8 13 -25
50 -38 43 -4 -3 -7 0 -6 8 2 7 -5 12 -14 12 -10 -1 -16 3 -15 10 1 6 -6 10
-15 10 -10 -1 -16 2 -13 6 6 9 -67 40 -93 40 -15 0 -32 44 -94 238 -48 149
-80 236 -87 234 -7 -1 -10 2 -7 7 8 13 -21 34 -35 25 -8 -4 -9 -3 -5 4 5 8 -4
12 -29 12 -27 0 -44 -8 -66 -29z m15 -10 c-10 -10 -21 -16 -24 -14 -3 3 4 11
14 19 28 20 33 17 10 -5z m88 -28 c22 -20 24 -56 3 -73 -8 -7 -13 -16 -10 -20
8 -13 -39 2 -57 18 -23 19 -23 50 -1 74 20 22 41 23 65 1z m-78 -129 c3 -8 2
-12 -4 -9 -6 3 -10 10 -10 16 0 14 7 11 14 -7z m86 -668 c0 -3 -4 -8 -10 -11
-5 -3 -10 -1 -10 4 0 6 5 11 10 11 6 0 10 -2 10 -4z"/>
<path d="M12491 7669 c-1 -44 -23 -109 -53 -158 -13 -20 -22 -39 -20 -43 1 -5
-1 -7 -5 -6 -12 3 -55 -23 -49 -29 8 -8 -13 -33 -27 -33 -6 0 -2 7 9 15 23 17
15 19 -23 4 l-27 -10 39 -18 c22 -10 53 -32 69 -49 16 -17 34 -29 39 -25 6 3
7 1 3 -5 -7 -12 17 -56 25 -48 2 2 5 -5 5 -17 1 -12 5 -49 10 -82 l7 -60 14
65 c8 36 15 79 15 95 1 17 3 24 6 17 2 -7 15 3 31 25 34 46 48 58 97 82 l38
19 -32 16 c-18 9 -38 14 -44 10 -6 -4 -8 -3 -5 3 4 5 -7 23 -24 39 -41 38 -67
91 -83 167 -12 52 -14 56 -15 26z"/>
<path d="M4920 5630 l0 -1420 1983 0 1982 0 -3 1420 -2 1420 -1980 0 -1980 0
0 -1420z m2608 703 c-86 -2 -230 -2 -320 0 -90 1 -19 3 157 3 176 0 249 -2
163 -3z m-688 -323 l0 -310 -380 0 -380 0 0 310 0 310 380 0 380 0 0 -310z
m880 0 l0 -310 -365 0 -365 0 0 310 0 310 365 0 365 0 0 -310z m-1653 -157
c-1 -76 -3 -14 -3 137 0 151 2 213 3 138 2 -76 2 -200 0 -275z m1470 -170
c-98 -2 -256 -2 -350 0 -95 1 -14 3 178 2 193 0 270 -1 172 -2z m-697 -403 l0
-280 -380 0 -380 0 0 280 0 280 380 0 380 0 0 -280z m880 0 l0 -280 -365 0
-365 0 0 280 0 280 365 0 365 0 0 -280z m17 -147 c-1 -76 -3 -14 -3 137 0 151
2 213 3 138 2 -76 2 -200 0 -275z m-760 -5 c-1 -68 -3 -13 -3 122 0 135 2 190
3 123 2 -68 2 -178 0 -245z m-354 -145 c-95 -2 -251 -2 -345 0 -95 1 -18 3
172 3 190 0 267 -2 173 -3z m424 1 c-3 -3 -12 -4 -19 -1 -8 3 -5 6 6 6 11 1
17 -2 13 -5z"/>
<path d="M10330 6891 c-59 -14 -88 -29 -134 -71 -109 -101 -118 -288 -18 -393
101 -107 279 -116 391 -21 37 32 58 66 29 48 -7 -4 -8 -3 -4 5 4 6 12 9 17 5
19 -12 49 79 49 151 0 82 -28 151 -81 202 -62 59 -171 91 -249 74z m146 -33
c-8 -6 -7 -8 2 -8 7 0 36 -23 63 -50 28 -28 47 -45 43 -38 -4 7 -3 10 1 5 5
-4 10 -17 11 -30 16 -126 16 -134 -5 -182 -25 -56 -25 -59 -8 -49 7 4 9 3 4
-2 -5 -5 -12 -9 -15 -9 -4 0 -13 -4 -20 -9 -10 -6 -11 -11 0 -24 10 -14 10
-15 -2 -5 -15 14 -55 -1 -45 -17 4 -6 -1 -7 -11 -3 -13 5 -15 3 -9 -7 5 -8 4
-11 -1 -7 -6 3 -30 1 -55 -4 -54 -13 -136 3 -174 33 -23 18 -29 19 -37 7 -8
-11 -9 -11 -5 3 3 9 -5 30 -17 47 -82 111 -42 270 84 334 48 24 64 27 131 25
43 -2 72 -6 65 -10z m-242 -27 c-10 -10 -21 -16 -24 -14 -3 3 4 11 14 19 28
20 33 17 10 -5z m-42 -43 c-7 -7 -12 -8 -12 -2 0 14 12 26 19 19 2 -3 -1 -11
-7 -17z m435 -155 c-3 -10 -5 -2 -5 17 0 19 2 27 5 18 2 -10 2 -26 0 -35z m-4
-138 c-3 -9 -8 -14 -10 -11 -3 3 -2 9 2 15 9 16 15 13 8 -4z m-303 -93 c-9 -3
-90 35 -90 43 0 2 22 -6 49 -18 27 -12 45 -23 41 -25z m-109 11 c13 -16 12
-17 -3 -4 -10 7 -18 15 -18 17 0 8 8 3 21 -13z m44 -23 c3 -6 -1 -7 -9 -4 -18
7 -21 14 -7 14 6 0 13 -4 16 -10z m112 4 c-3 -3 -12 -4 -19 -1 -8 3 -5 6 6 6
11 1 17 -2 13 -5z"/>
<path d="M11821 6754 c0 -18 -14 -57 -30 -87 -16 -31 -27 -58 -24 -60 2 -3 -4
-4 -14 -3 -27 2 -24 -44 5 -76 14 -15 28 -26 31 -23 4 2 7 -4 8 -13 1 -9 8
-42 16 -72 l14 -55 7 50 c4 28 8 58 9 67 1 9 4 15 8 12 4 -2 14 7 23 21 9 14
33 34 54 45 22 13 28 19 15 17 -12 -3 -21 0 -20 5 1 6 -4 13 -12 16 -9 3 -11
0 -6 -8 6 -9 4 -11 -4 -6 -7 5 -10 11 -7 14 9 9 -26 42 -37 35 -6 -3 -7 -1 -3
5 4 6 2 21 -5 33 -6 12 -15 42 -19 68 -6 37 -8 40 -9 15z m-10 -97 c-10 -9
-11 -8 -5 6 3 10 9 15 12 12 3 -3 0 -11 -7 -18z m23 -192 c-4 -8 -11 -12 -16
-9 -6 4 -5 10 3 15 19 12 19 11 13 -6z"/>
<path d="M11702 6581 c-11 -7 -10 -10 3 -15 22 -8 22 -8 22 9 0 17 -6 18 -25
6z"/>
<path d="M1135 6156 c-72 -31 -80 -145 -12 -186 76 -47 166 -2 167 82 0 40
-18 88 -32 88 -5 0 -6 -5 -2 -12 4 -7 3 -8 -5 -4 -6 4 -9 12 -6 17 7 10 -36
29 -63 29 -9 -1 -30 -7 -47 -14z"/>
<path d="M1035 5880 c3 -5 0 -7 -9 -4 -17 7 -36 -24 -36 -60 0 -31 36 -66 67
-66 29 0 73 42 73 68 0 33 -38 72 -71 72 -17 0 -28 -4 -24 -10z"/>
<path d="M1320 5845 c-20 -25 -8 -50 25 -50 21 0 31 5 33 18 4 21 -14 47 -33
47 -7 0 -18 -7 -25 -15z"/>
<path d="M10117 5633 c-4 -29 -21 -77 -36 -107 -16 -30 -26 -57 -23 -61 4 -4
2 -5 -3 -4 -14 5 -75 -33 -69 -42 2 -4 -6 -5 -18 -1 -14 3 -19 2 -14 -6 4 -7
13 -12 20 -12 7 0 31 -16 53 -35 22 -19 44 -31 48 -27 5 4 5 2 2 -4 -4 -6 2
-29 12 -50 11 -22 23 -61 27 -89 l8 -50 8 54 c5 30 19 75 33 99 14 24 22 48
19 53 -3 5 0 8 8 7 7 -2 12 3 10 10 -1 8 2 11 7 8 5 -3 28 5 51 18 40 23 41
24 17 30 -66 16 -133 109 -145 202 l-8 59 -7 -52z"/>
<path d="M2070 5570 c-6 -11 -8 -25 -5 -30 4 -6 3 -10 -2 -9 -4 1 -20 -3 -35
-9 -21 -9 -38 -8 -75 3 -69 21 -119 19 -143 -5 l-21 -21 78 -74 c43 -41 86
-74 95 -75 9 0 44 12 78 26 l61 27 78 -22 c89 -24 94 -25 86 -11 -3 5 0 8 7 5
7 -3 42 23 77 59 64 64 64 66 46 86 -22 24 -69 26 -138 5 -37 -11 -54 -12 -75
-3 -15 6 -30 11 -34 10 -5 -1 -7 1 -6 6 1 4 -1 17 -6 30 -10 28 -51 30 -66 2z
m-187 -47 c-7 -2 -21 -2 -30 0 -10 3 -4 5 12 5 17 0 24 -2 18 -5z"/>
<path d="M2113 5215 c-1 -19 -2 -44 -2 -55 0 -11 0 -36 0 -55 0 -19 0 -43 -1
-52 0 -10 2 -34 6 -54 3 -22 2 -39 -5 -43 -6 -4 -11 -12 -11 -17 0 -6 3 -8 8
-6 4 3 8 -15 10 -39 2 -33 -2 -48 -18 -64 -18 -18 -33 -20 -162 -21 -167 -2
-168 -1 -189 17 -19 17 -33 18 -23 2 4 -7 3 -8 -5 -4 -15 9 -73 -32 -65 -46 4
-6 3 -8 -3 -5 -14 9 -77 -59 -68 -72 3 -6 1 -10 -5 -9 -37 9 -52 -169 -24
-276 22 -82 21 -153 -2 -196 -10 -19 -17 -39 -15 -45 1 -5 -1 -7 -5 -3 -8 9
-34 -10 -34 -24 0 -5 6 -6 13 -2 7 4 9 3 4 -2 -5 -5 -14 -9 -20 -9 -30 0 -87
-131 -87 -202 0 -93 73 -285 102 -267 6 4 8 3 5 -3 -8 -13 27 -46 38 -36 4 5
5 3 2 -3 -8 -13 15 -35 61 -58 89 -46 389 -82 577 -71 142 9 318 39 376 63 53
23 122 80 113 93 -3 5 0 8 8 7 7 -2 12 5 12 14 -1 10 3 16 10 15 6 -1 10 6 10
15 -1 10 2 16 6 13 12 -7 48 86 59 151 13 87 -12 225 -39 209 -6 -3 -8 0 -5 7
6 14 -73 114 -86 111 -5 -2 -8 0 -8 5 4 21 -2 36 -9 26 -16 -25 -10 105 8 188
30 133 24 234 -16 283 -8 11 -13 14 -9 8 3 -7 1 -13 -5 -13 -7 0 -9 7 -6 16 8
20 -12 46 -28 37 -6 -3 -8 -2 -3 2 4 5 -3 19 -15 32 -23 24 -44 31 -32 11 4
-8 3 -10 -2 -5 -5 5 -9 14 -9 20 0 7 -8 11 -18 11 -9 -1 -15 2 -12 6 3 4 -8
16 -23 25 -15 10 -41 33 -59 52 -18 19 -37 32 -43 28 -6 -4 -9 -3 -8 2 4 12
-123 163 -132 158 -4 -2 -7 1 -7 8 0 7 -17 36 -38 65 -29 40 -40 50 -47 40 -7
-10 -8 -8 -4 5 6 18 -2 47 -13 47 -3 0 -7 -16 -8 -35z m-478 -1643 c-3 -3 -11
0 -18 7 -9 10 -8 11 6 5 10 -3 15 -9 12 -12z m232 -48 c-3 -3 -12 -4 -19 -1
-8 3 -5 6 6 6 11 1 17 -2 13 -5z"/>
<path d="M4161 5159 c-1 -20 -8 -56 -16 -79 -8 -23 -12 -47 -8 -53 3 -6 1 -7
-5 -3 -11 6 -38 -31 -34 -46 1 -5 -4 -7 -10 -5 -7 1 -12 -4 -10 -11 1 -8 -1
-11 -6 -8 -5 3 -26 -3 -46 -13 -35 -18 -36 -20 -14 -26 71 -22 134 -108 146
-201 l8 -59 8 47 c4 27 4 53 0 60 -4 6 -3 8 3 5 6 -4 15 6 21 22 14 40 76 106
113 121 l31 13 -28 15 c-75 37 -116 98 -140 202 -11 50 -12 52 -13 19z m-10
-112 c-10 -9 -11 -8 -5 6 3 10 9 15 12 12 3 -3 0 -11 -7 -18z"/>
<path d="M11000 4685 c0 -25 5 -45 10 -45 7 0 10 -195 10 -566 l0 -565 43 3
c27 2 41 7 40 15 -2 7 3 12 10 10 9 -1 13 114 15 546 2 482 4 548 18 554 8 3
17 3 20 0 3 -3 14 -88 24 -189 54 -557 74 -743 76 -747 8 -9 33 22 27 33 -3 6
-3 8 1 4 4 -3 31 5 59 18 61 28 157 32 221 9 22 -8 44 -11 49 -8 6 3 7 2 4 -4
-3 -5 7 -20 24 -32 16 -12 42 -40 58 -61 16 -22 30 -38 32 -35 6 5 10 -40 13
-147 1 -54 0 -95 -3 -93 -4 5 -41 -50 -41 -61 0 -3 5 -2 12 2 7 4 8 3 4 -5 -4
-6 -11 -9 -16 -6 -5 3 -11 1 -15 -5 -10 -16 516 -14 538 3 18 12 26 77 120
1012 l32 310 26 5 c22 4 25 10 25 45 l-1 40 -717 3 -718 2 0 -45z m1367 -127
c-3 -8 -6 -5 -6 6 -1 11 2 17 5 13 3 -3 4 -12 1 -19z m-543 -31 c4 5 6 1 4 -7
-2 -9 4 -15 17 -15 11 0 20 -5 20 -12 0 -14 65 -64 74 -58 4 2 7 -4 8 -13 1
-11 -27 -38 -73 -71 -41 -29 -72 -56 -70 -60 3 -4 -4 -8 -15 -8 -15 -1 -19 5
-19 33 0 29 -3 34 -23 34 -64 0 -150 -75 -164 -142 -7 -34 -11 -34 -73 -3
l-50 25 15 36 c8 20 12 40 9 45 -3 5 -2 9 3 8 4 -2 35 25 68 58 62 61 126 93
187 93 26 0 28 3 28 40 0 40 0 40 23 25 13 -8 27 -12 31 -8z m201 -147 c-7
-12 26 -50 37 -44 6 4 8 3 5 -3 -4 -6 3 -30 15 -54 29 -60 35 -163 14 -224 -8
-26 -13 -52 -9 -58 3 -5 1 -7 -5 -3 -6 3 -13 2 -16 -3 -4 -5 7 -18 24 -27 16
-10 30 -21 30 -25 0 -7 -200 -83 -204 -77 -2 1 -7 51 -12 110 -9 107 -9 107
13 106 12 -1 19 -6 17 -10 -3 -4 -3 -8 0 -8 2 0 11 -3 19 -6 10 -3 18 5 26 27
17 48 13 109 -10 159 -16 36 -22 42 -30 30 -9 -13 -10 -12 -6 2 3 9 0 22 -8
28 -14 12 -15 64 -1 77 4 4 6 1 4 -7 -1 -8 4 -15 12 -15 8 0 14 6 12 13 -1 8
1 11 6 8 4 -2 14 -1 22 4 15 10 51 9 45 0z m-458 -234 c13 4 14 3 5 -4 -10 -6
2 -15 42 -33 31 -13 56 -27 56 -30 0 -4 -14 -12 -30 -19 -20 -8 -30 -19 -27
-29 2 -9 9 -15 15 -13 7 1 11 -4 10 -10 -2 -7 3 -12 10 -10 8 1 11 -2 7 -7 -3
-6 13 -20 37 -32 35 -18 54 -21 110 -17 l68 5 0 -57 c0 -44 -4 -59 -16 -64
-30 -11 -139 -5 -179 10 -22 9 -48 16 -57 17 -9 1 -16 4 -15 7 1 3 -15 21 -36
40 -21 18 -45 46 -53 62 -14 28 -15 28 -45 12 -17 -8 -33 -13 -36 -10 -5 5 25
194 34 208 2 5 22 -1 43 -12 21 -11 47 -17 57 -14z m-130 -58 c-3 -8 -6 -5 -6
6 -1 11 2 17 5 13 3 -3 4 -12 1 -19z m53 -128 c0 -5 -5 -10 -11 -10 -5 0 -7 5
-4 10 3 6 8 10 11 10 2 0 4 -4 4 -10z m287 -6 c-3 -3 -12 -4 -19 -1 -8 3 -5 6
6 6 11 1 17 -2 13 -5z m333 -44 c0 -5 -8 -10 -17 -10 -15 0 -16 2 -3 10 19 12
20 12 20 0z m-213 -32 c-3 -8 -6 -5 -6 6 -1 11 2 17 5 13 3 -3 4 -12 1 -19z
m-27 -68 c0 -5 -5 -10 -11 -10 -5 0 -7 5 -4 10 3 6 8 10 11 10 2 0 4 -4 4 -10z
m-423 -16 c-3 -3 -12 -4 -19 -1 -8 3 -5 6 6 6 11 1 17 -2 13 -5z m80 0 c-3 -3
-12 -4 -19 -1 -8 3 -5 6 6 6 11 1 17 -2 13 -5z m-440 -270 c-3 -3 -12 -4 -19
-1 -8 3 -5 6 6 6 11 1 17 -2 13 -5z"/>
<path d="M4033 3783 c-29 -6 -73 -59 -72 -86 1 -21 2 -21 6 -2 13 54 68 82
119 60 88 -37 66 -165 -29 -165 -40 0 -67 17 -82 53 -9 20 -14 25 -15 14 0
-10 14 -32 30 -49 28 -28 36 -30 78 -25 61 7 92 41 92 101 0 33 -6 49 -26 70
-15 14 -32 26 -40 26 -7 0 -18 2 -26 4 -7 2 -23 1 -35 -1z m98 -40 c13 -16 12
-17 -3 -4 -17 13 -22 21 -14 21 2 0 10 -8 17 -17z"/>
<path d="M3224 3685 c-56 -39 -53 -140 6 -170 78 -41 172 17 157 97 -3 17 -5
15 -6 -10 -1 -41 -48 -92 -84 -92 -30 0 -75 34 -88 67 -11 30 11 87 39 102 29
16 74 14 102 -5 l25 -16 -24 21 c-28 25 -96 28 -127 6z"/>
<path d="M3565 3470 c-10 -11 -16 -22 -14 -24 2 -2 12 7 22 20 22 29 17 32 -8
4z"/>
<path d="M3656 3468 c10 -14 21 -24 23 -22 3 3 -6 15 -18 27 l-24 22 19 -27z"/>
<path d="M3667 3408 c-12 -47 -83 -50 -105 -5 -7 15 -11 17 -11 6 -1 -24 32
-49 66 -49 34 0 67 30 61 57 -3 14 -6 12 -11 -9z"/>
<path d="M6797 3324 c-14 -97 -76 -187 -145 -208 -22 -7 -21 -9 21 -36 25 -15
48 -33 51 -39 4 -6 13 -8 19 -5 7 4 9 4 5 -1 -9 -9 10 -47 20 -41 4 2 8 -6 9
-17 1 -12 8 -49 16 -82 15 -58 15 -59 16 -20 1 22 10 60 21 84 11 23 17 48 13
54 -3 6 -1 7 5 3 11 -7 38 32 34 47 -1 5 2 6 7 3 5 -3 28 5 51 18 41 23 41 24
16 30 -36 9 -94 62 -117 108 -11 21 -23 65 -27 96 l-8 57 -7 -51z m4 -71 c-12
-20 -14 -14 -5 12 4 9 9 14 11 11 3 -2 0 -13 -6 -23z"/>
<path d="M3170 3050 c10 -193 40 -594 45 -598 9 -10 202 -9 248 1 21 4 35 12
32 17 -3 6 1 7 9 4 9 -3 46 8 83 26 54 25 64 33 53 41 -12 9 -11 10 4 5 22 -8
90 40 80 56 -4 7 -2 8 4 4 13 -8 65 42 57 55 -3 4 0 11 6 15 8 5 9 3 4 -6 -22
-35 17 5 43 46 26 38 29 50 21 73 -6 18 -6 37 0 53 5 14 8 29 5 32 -2 3 -1 4
2 1 4 -2 18 5 32 15 34 27 74 25 110 -5 57 -48 47 -126 -19 -161 -22 -11 -29
-20 -24 -32 3 -9 3 -13 -1 -9 -4 4 -26 -19 -49 -51 -23 -31 -52 -65 -63 -76
-12 -10 -19 -24 -15 -30 3 -6 3 -8 -2 -4 -8 8 -110 -68 -110 -82 0 -5 -4 -12
-9 -17 -5 -5 -6 -3 -2 5 9 15 1 15 -25 1 -11 -5 -16 -15 -13 -21 4 -6 3 -8 -3
-5 -5 3 -42 -7 -81 -23 -98 -40 -173 -53 -283 -49 l-94 4 12 -195 c7 -107 15
-226 18 -265 l6 -70 510 0 509 0 0 50 c0 27 16 301 35 609 19 307 35 566 35
575 0 15 -51 16 -585 16 -322 0 -585 -2 -585 -5z m1157 -62 c-3 -8 -6 -5 -6 6
-1 11 2 17 5 13 3 -3 4 -12 1 -19z m-1130 -95 c-3 -10 -5 -4 -5 12 0 17 2 24
5 18 2 -7 2 -21 0 -30z m1110 -210 c-3 -10 -5 -2 -5 17 0 19 2 27 5 18 2 -10
2 -26 0 -35z m-934 -230 c-18 -2 -48 -2 -65 0 -18 2 -4 4 32 4 36 0 50 -2 33
-4z m914 -60 c-3 -10 -5 -4 -5 12 0 17 2 24 5 18 2 -7 2 -21 0 -30z m-672 -23
c-3 -5 -12 -10 -18 -10 -7 0 -6 4 3 10 19 12 23 12 15 0z m-378 -127 c-3 -10
-5 -4 -5 12 0 17 2 24 5 18 2 -7 2 -21 0 -30z m1030 -195 c-3 -8 -6 -5 -6 6
-1 11 2 17 5 13 3 -3 4 -12 1 -19z m-10 -110 c-3 -7 -5 -2 -5 12 0 14 2 19 5
13 2 -7 2 -19 0 -25z"/>
<path d="M9215 2705 c14 -13 25 -33 25 -45 0 -27 -43 -70 -70 -70 -11 0 -32
11 -45 25 -14 13 -25 20 -25 15 0 -15 52 -50 75 -50 38 0 75 37 75 76 0 33
-28 74 -50 74 -5 0 2 -11 15 -25z"/>
<path d="M10505 2705 c14 -13 25 -33 25 -45 0 -27 -43 -70 -70 -70 -11 0 -32
11 -45 25 -14 13 -25 20 -25 15 0 -15 52 -50 75 -50 38 0 75 37 75 76 0 33
-28 74 -50 74 -5 0 2 -11 15 -25z"/>
<path d="M7779 2645 c-27 -45 -53 -51 -138 -29 -74 19 -115 12 -127 -21 -7
-17 24 -58 36 -50 4 3 14 -3 21 -12 10 -12 10 -14 2 -9 -29 17 -9 -13 40 -60
51 -50 54 -51 150 -67 98 -16 98 -16 148 8 60 28 182 132 173 147 -4 6 -2 8 3
5 6 -4 18 2 28 13 16 18 14 25 -7 21 -5 0 -7 4 -5 11 5 25 -50 33 -106 15 -82
-26 -101 -23 -137 23 -17 22 -38 40 -46 40 -8 0 -24 -16 -35 -35z m-154 -35
c14 -7 8 -8 -20 -3 -22 3 -42 7 -44 9 -9 8 45 2 64 -6z m448 3 c-7 -2 -21 -2
-30 0 -10 3 -4 5 12 5 17 0 24 -2 18 -5z"/>
<path d="M8965 2554 c-8 -9 -14 -24 -11 -33 3 -9 28 -107 57 -218 31 -122 56
-200 62 -196 6 4 7 1 3 -6 -10 -15 23 -153 34 -146 5 3 12 0 16 -6 5 -8 3 -9
-6 -4 -16 10 -12 -15 32 -173 32 -119 54 -161 101 -196 28 -21 39 -21 525 -24
273 -2 516 0 539 3 50 7 94 41 116 87 24 50 159 568 153 585 -3 8 -2 12 3 9 4
-3 26 64 47 148 41 166 40 186 -12 186 -31 0 -35 -9 -80 -183 l-39 -149 -35 6
c-19 3 -62 17 -95 31 -46 19 -78 25 -136 25 -75 0 -174 -24 -164 -40 3 -5 0
-12 -6 -16 -8 -5 -9 -3 -4 6 6 10 2 11 -21 4 -60 -19 -155 -10 -228 20 -64 26
-78 28 -160 24 -83 -4 -151 -22 -142 -37 2 -3 -6 -7 -17 -8 -154 -16 -149 -16
-230 16 -45 18 -96 31 -121 31 l-44 0 -27 113 c-15 61 -34 122 -41 135 -17 26
-46 29 -69 6z m1685 -9 c19 -22 8 -25 -12 -3 -10 10 -14 18 -9 18 5 0 14 -7
21 -15z m-73 -117 c-3 -7 -5 -2 -5 12 0 14 2 19 5 13 2 -7 2 -19 0 -25z
m-1580 -10 c-3 -8 -6 -5 -6 6 -1 11 2 17 5 13 3 -3 4 -12 1 -19z m170 -134
c-3 -3 -12 -4 -19 -1 -8 3 -5 6 6 6 11 1 17 -2 13 -5z m566 -1 c-7 -2 -19 -2
-25 0 -7 3 -2 5 12 5 14 0 19 -2 13 -5z m230 -60 c-7 -2 -21 -2 -30 0 -10 3
-4 5 12 5 17 0 24 -2 18 -5z m-610 -230 c76 -34 127 -35 202 -1 81 36 146 43
215 23 30 -9 63 -17 72 -18 9 -1 14 -6 11 -11 -4 -5 1 -7 11 -3 9 4 15 3 12
-2 -8 -12 57 -23 91 -15 15 4 48 17 73 29 25 13 70 26 100 30 58 7 73 3 225
-56 l60 -24 -9 -43 c-10 -48 -10 -48 -109 -6 -84 37 -149 41 -222 14 -33 -12
-80 -29 -104 -37 -38 -14 -50 -15 -90 -3 -25 7 -54 13 -63 14 -9 0 -14 5 -11
10 4 5 -1 7 -11 3 -9 -4 -15 -3 -12 2 9 14 -92 34 -139 28 -24 -4 -69 -18
-101 -33 -79 -35 -134 -36 -209 -2 -33 15 -79 30 -103 34 -39 6 -43 10 -53 47
-8 31 -8 42 3 49 20 13 96 -1 161 -29z m982 7 c3 -6 -1 -7 -9 -4 -18 7 -21 14
-7 14 6 0 13 -4 16 -10z m-1158 -52 c-3 -8 -6 -5 -6 6 -1 11 2 17 5 13 3 -3 4
-12 1 -19z m98 -368 c3 -6 -1 -7 -9 -4 -18 7 -21 14 -7 14 6 0 13 -4 16 -10z"/>
<path d="M7870 2275 c-159 -23 -204 -39 -252 -91 -24 -26 -42 -51 -40 -56 1
-5 -2 -7 -8 -3 -13 8 -42 -14 -35 -25 3 -5 0 -12 -6 -16 -8 -4 -9 -3 -5 4 12
20 -3 13 -77 -34 -83 -53 -118 -83 -112 -95 3 -4 0 -11 -6 -15 -8 -5 -9 -3 -4
7 8 12 6 12 -9 0 -9 -8 -15 -20 -12 -27 3 -7 0 -16 -6 -20 -7 -5 -8 -2 -4 7 4
8 0 5 -8 -6 -41 -49 -46 -159 -15 -297 27 -125 22 -150 -56 -248 -86 -108
-103 -166 -84 -290 12 -77 63 -195 80 -184 8 4 9 3 5 -5 -5 -7 7 -26 29 -48
30 -30 38 -34 47 -22 8 11 9 11 4 -3 -8 -25 64 -61 107 -54 22 4 26 3 13 -2
-23 -10 37 -23 189 -43 127 -16 432 -6 555 20 102 21 152 39 144 52 -3 5 3 6
12 2 13 -5 15 -3 9 7 -5 9 -4 11 4 6 6 -4 19 -2 27 5 12 10 12 14 2 22 -10 6
-9 8 4 4 18 -6 52 25 41 37 -5 4 -2 6 6 4 7 -2 16 3 19 11 3 9 0 11 -8 6 -9
-5 -11 -4 -6 4 4 6 11 9 16 6 13 -8 53 73 46 91 -3 8 -2 13 3 9 12 -7 31 84
31 148 -1 60 -31 153 -49 149 -7 -1 -10 2 -6 8 4 6 -14 35 -39 64 -74 87 -79
119 -45 282 23 110 20 171 -11 241 -22 51 -107 136 -127 129 -8 -3 -12 -2 -9
3 6 9 -124 97 -137 93 -5 -1 -6 1 -3 6 6 10 -38 55 -46 47 -3 -3 -11 2 -19 12
-9 11 -10 14 -1 9 18 -11 15 9 -5 25 -15 12 -16 12 -8 -1 8 -13 7 -13 -8 -1
-19 15 -23 26 -6 15 7 -4 10 -1 7 7 -3 8 -10 13 -16 12 -6 -2 -9 3 -6 11 10
27 -19 33 -106 21z m-214 -83 c-17 -16 -18 -16 -5 5 7 12 15 20 18 17 3 -2 -3
-12 -13 -22z m246 -346 c5 3 7 0 6 -8 -2 -7 5 -12 14 -12 10 1 16 -2 13 -6 -3
-5 13 -21 35 -37 22 -15 40 -31 40 -35 0 -4 -25 -26 -55 -49 -30 -23 -52 -46
-48 -52 3 -6 1 -7 -5 -3 -7 4 -27 -4 -45 -18 -19 -15 -37 -26 -40 -26 -4 0 -7
19 -7 41 l0 41 -37 -7 c-59 -10 -120 -51 -147 -98 -32 -54 -43 -97 -25 -97 7
0 10 -2 7 -5 -4 -5 -102 37 -147 62 -11 6 55 120 93 161 25 27 43 51 40 54 -3
3 1 6 8 5 7 -1 36 10 63 23 28 13 71 25 98 28 l47 5 0 44 0 45 42 -31 c22 -17
45 -28 50 -25z m216 -150 c16 -20 16 -20 0 -7 -25 19 -22 4 6 -30 13 -15 27
-25 31 -21 5 4 5 2 1 -5 -4 -7 1 -27 10 -44 37 -73 35 -210 -5 -291 l-19 -39
34 -22 c41 -26 42 -33 9 -41 -14 -4 -23 -11 -20 -16 3 -5 0 -7 -8 -4 -7 2 -51
-9 -96 -26 -45 -16 -84 -30 -86 -30 -2 0 -6 39 -9 88 -4 48 -9 104 -12 125 -4
36 -3 38 17 32 16 -5 19 -4 14 5 -5 9 -4 11 4 6 6 -4 9 -11 6 -16 -3 -5 3 -14
14 -20 17 -8 22 -6 31 11 19 34 24 122 10 165 -17 51 -49 96 -62 88 -6 -4 -8
-2 -4 4 3 6 -2 15 -11 21 -10 5 -16 11 -13 14 52 42 105 75 121 74 11 -1 28
-10 37 -21z m-603 -233 c17 -4 18 -3 5 7 -13 10 -13 11 0 7 8 -2 14 -9 13 -16
-4 -14 75 -54 93 -47 10 4 12 2 8 -6 -5 -8 -2 -9 10 -5 11 5 15 3 10 -5 -5 -8
-2 -9 10 -5 10 4 15 3 11 -3 -3 -6 -2 -10 4 -10 5 0 9 -9 8 -19 -1 -12 -6 -17
-16 -13 -10 4 -12 1 -6 -8 5 -9 4 -11 -3 -6 -7 4 -19 3 -27 -1 -13 -8 -13 -11
-1 -28 8 -11 19 -20 25 -20 6 0 11 -4 12 -10 1 -19 22 -36 36 -31 8 3 12 2 8
-3 -10 -18 67 -34 135 -28 l67 6 6 -62 c6 -71 4 -73 -69 -83 -68 -8 -165 17
-231 61 -28 19 -53 31 -56 27 -2 -4 -3 -2 -1 5 3 13 -30 46 -38 37 -3 -3 -9 0
-14 7 -4 8 -3 10 4 5 16 -10 14 5 -3 28 -14 19 -16 19 -51 2 -20 -9 -38 -16
-39 -14 -2 2 6 58 18 126 17 104 23 122 36 116 9 -3 25 -8 36 -11z m190 -391
c-3 -3 -11 0 -18 7 -9 10 -8 11 6 5 10 -3 15 -9 12 -12z m213 -359 c-10 -2
-26 -2 -35 0 -10 3 -2 5 17 5 19 0 27 -2 18 -5z"/>
</g>
</svg>
