<svg xmlns="http://www.w3.org/2000/svg" xmlns:xlink="http://www.w3.org/1999/xlink" width="1024" zoomAndPan="magnify" viewBox="0 0 768 767.999994" height="1024" preserveAspectRatio="xMidYMid meet" version="1.0"><path fill="#8cc63e" d="M 644.273438 453.894531 C 644.320312 453.734375 644.363281 453.566406 644.414062 453.398438 C 647.175781 443.003906 653.019531 433.691406 661.347656 426.890625 L 666.25 422.882812 C 690.953125 402.707031 690.953125 364.964844 666.25 344.789062 L 661.347656 340.78125 C 653.019531 333.980469 647.175781 324.664062 644.414062 314.273438 C 644.363281 314.105469 644.320312 313.9375 644.273438 313.777344 C 641.488281 303.394531 641.886719 292.414062 645.691406 282.367188 L 647.9375 276.4375 C 659.246094 246.625 640.375 213.929688 608.894531 208.808594 L 602.503906 207.773438 C 591.898438 206.046875 582.191406 200.902344 574.597656 193.304688 C 574.523438 193.226562 574.445312 193.148438 574.367188 193.070312 C 566.769531 185.480469 561.625 175.765625 559.898438 165.167969 L 558.863281 158.777344 C 553.738281 127.296875 521.046875 108.425781 491.230469 119.730469 L 485.304688 121.976562 C 475.25 125.785156 464.277344 126.183594 453.894531 123.398438 C 453.734375 123.351562 453.566406 123.308594 453.398438 123.257812 C 443.003906 120.496094 433.691406 114.652344 426.890625 106.324219 L 422.882812 101.414062 C 402.707031 76.71875 364.964844 76.71875 344.789062 101.414062 L 340.78125 106.324219 C 333.980469 114.652344 324.664062 120.496094 314.273438 123.257812 C 314.105469 123.308594 313.9375 123.351562 313.777344 123.398438 C 303.394531 126.183594 292.414062 125.785156 282.367188 121.976562 L 276.4375 119.730469 C 246.625 108.425781 213.929688 127.296875 208.808594 158.777344 L 207.773438 165.167969 C 206.046875 175.765625 200.902344 185.480469 193.304688 193.070312 C 193.226562 193.148438 193.148438 193.226562 193.070312 193.304688 C 185.480469 200.902344 175.765625 206.046875 165.160156 207.773438 L 158.777344 208.808594 C 127.296875 213.929688 108.425781 246.625 119.730469 276.4375 L 121.976562 282.367188 C 125.785156 292.414062 126.183594 303.394531 123.398438 313.777344 C 123.351562 313.9375 123.308594 314.105469 123.265625 314.273438 C 120.496094 324.664062 114.652344 333.980469 106.324219 340.78125 L 101.414062 344.789062 C 76.710938 364.964844 76.710938 402.707031 101.414062 422.882812 L 106.324219 426.890625 C 114.652344 433.691406 120.496094 443.003906 123.265625 453.398438 C 123.308594 453.566406 123.351562 453.734375 123.398438 453.894531 C 126.183594 464.277344 125.785156 475.25 121.976562 485.304688 L 119.730469 491.230469 C 108.425781 521.046875 127.296875 553.738281 158.777344 558.863281 L 165.160156 559.898438 C 175.765625 561.625 185.480469 566.769531 193.070312 574.367188 C 193.148438 574.445312 193.226562 574.523438 193.304688 574.597656 C 200.902344 582.191406 206.046875 591.898438 207.773438 602.503906 L 208.808594 608.894531 C 213.929688 640.375 246.625 659.246094 276.4375 647.9375 L 282.367188 645.691406 C 292.414062 641.886719 303.394531 641.488281 313.777344 644.273438 C 313.9375 644.320312 314.105469 644.363281 314.273438 644.414062 C 324.664062 647.175781 333.980469 653.019531 340.78125 661.347656 L 344.789062 666.25 C 364.964844 690.953125 402.707031 690.953125 422.882812 666.25 L 426.890625 661.347656 C 433.691406 653.019531 443.003906 647.175781 453.398438 644.414062 C 453.566406 644.363281 453.734375 644.320312 453.894531 644.273438 C 464.277344 641.488281 475.25 641.886719 485.304688 645.691406 L 491.230469 647.9375 C 521.046875 659.246094 553.738281 640.375 558.863281 608.894531 L 559.898438 602.503906 C 561.625 591.898438 566.769531 582.191406 574.367188 574.597656 C 574.445312 574.523438 574.523438 574.445312 574.597656 574.367188 C 582.191406 566.769531 591.898438 561.625 602.503906 559.898438 L 608.894531 558.863281 C 640.375 553.738281 659.246094 521.046875 647.9375 491.230469 L 645.691406 485.304688 C 641.886719 475.25 641.488281 464.277344 644.273438 453.894531 " fill-opacity="1" fill-rule="nonzero"/><path fill="#ffffff" d="M 597.425781 383.835938 C 597.425781 501.796875 501.796875 597.425781 383.835938 597.425781 C 265.871094 597.425781 170.246094 501.796875 170.246094 383.835938 C 170.246094 265.871094 265.871094 170.246094 383.835938 170.246094 C 501.796875 170.246094 597.425781 265.871094 597.425781 383.835938 " fill-opacity="1" fill-rule="nonzero"/><path fill="#8cc63e" d="M 466.542969 277.3125 L 348.289062 395.570312 C 347.203125 396.65625 345.441406 396.65625 344.355469 395.570312 L 281.316406 332.53125 C 280.230469 331.4375 278.46875 331.4375 277.382812 332.53125 L 226.933594 382.980469 C 225.847656 384.066406 225.847656 385.828125 226.933594 386.914062 L 291.9375 451.921875 L 344.355469 504.34375 C 345.441406 505.429688 347.203125 505.429688 348.289062 504.34375 L 520.9375 331.699219 C 522.019531 330.613281 522.019531 328.851562 520.9375 327.765625 L 470.476562 277.3125 C 469.394531 276.230469 467.628906 276.230469 466.542969 277.3125 " fill-opacity="1" fill-rule="nonzero"/></svg>