<svg xmlns="http://www.w3.org/2000/svg" xmlns:xlink="http://www.w3.org/1999/xlink" width="1024" zoomAndPan="magnify" viewBox="0 0 768 767.999994" height="1024" preserveAspectRatio="xMidYMid meet" version="1.0"><defs><clipPath id="5396ac4cc7"><path d="M 76.800781 76.800781 L 691.050781 76.800781 L 691.050781 691.050781 L 76.800781 691.050781 Z M 76.800781 76.800781 " clip-rule="nonzero"/></clipPath></defs><g clip-path="url(#5396ac4cc7)"><path fill="#ffd05b" d="M 691.046875 383.925781 C 691.046875 553.550781 553.546875 691.050781 383.921875 691.050781 C 214.304688 691.050781 76.800781 553.550781 76.800781 383.925781 C 76.800781 214.308594 214.304688 76.800781 383.921875 76.800781 C 553.546875 76.800781 691.046875 214.308594 691.046875 383.925781 Z M 691.046875 383.925781 " fill-opacity="1" fill-rule="nonzero"/></g><path fill="#ffffff" d="M 568.6875 219.472656 L 240.277344 219.472656 C 228.671875 219.472656 219.476562 228.667969 219.476562 240.28125 L 219.476562 495.171875 C 219.476562 506.773438 228.671875 515.964844 240.277344 515.964844 L 568.6875 515.964844 C 580.292969 515.964844 589.480469 506.773438 589.480469 495.171875 L 589.480469 239.796875 C 589.480469 228.667969 580.292969 219.472656 568.6875 219.472656 Z M 568.6875 219.472656 " fill-opacity="1" fill-rule="nonzero"/><path fill="#ff7058" d="M 568.6875 208.355469 L 240.277344 208.355469 C 228.671875 208.355469 219.476562 217.550781 219.476562 229.15625 L 219.476562 278.484375 L 589.480469 278.484375 L 589.480469 229.15625 C 589.480469 218.027344 580.292969 208.355469 568.6875 208.355469 Z M 568.6875 208.355469 " fill-opacity="1" fill-rule="nonzero"/><path fill="#e6e9ee" d="M 360.226562 328.304688 L 389.726562 328.304688 L 389.726562 298.800781 L 360.226562 298.800781 Z M 360.226562 328.304688 " fill-opacity="1" fill-rule="nonzero"/><path fill="#e6e9ee" d="M 419.230469 328.304688 L 448.734375 328.304688 L 448.734375 298.800781 L 419.230469 298.800781 Z M 419.230469 328.304688 " fill-opacity="1" fill-rule="nonzero"/><path fill="#e6e9ee" d="M 478.242188 328.304688 L 507.742188 328.304688 L 507.742188 298.800781 L 478.242188 298.800781 Z M 478.242188 328.304688 " fill-opacity="1" fill-rule="nonzero"/><path fill="#e6e9ee" d="M 301.703125 381.988281 L 331.207031 381.988281 L 331.207031 352.480469 L 301.703125 352.480469 Z M 301.703125 381.988281 " fill-opacity="1" fill-rule="nonzero"/><path fill="#e6e9ee" d="M 360.226562 381.988281 L 389.726562 381.988281 L 389.726562 352.480469 L 360.226562 352.480469 Z M 360.226562 381.988281 " fill-opacity="1" fill-rule="nonzero"/><path fill="#e6e9ee" d="M 419.230469 381.988281 L 448.734375 381.988281 L 448.734375 352.480469 L 419.230469 352.480469 Z M 419.230469 381.988281 " fill-opacity="1" fill-rule="nonzero"/><path fill="#e6e9ee" d="M 478.242188 381.988281 L 507.742188 381.988281 L 507.742188 352.480469 L 478.242188 352.480469 Z M 478.242188 381.988281 " fill-opacity="1" fill-rule="nonzero"/><path fill="#e6e9ee" d="M 301.703125 436.160156 L 331.207031 436.160156 L 331.207031 406.65625 L 301.703125 406.65625 Z M 301.703125 436.160156 " fill-opacity="1" fill-rule="nonzero"/><path fill="#e6e9ee" d="M 360.226562 436.160156 L 389.726562 436.160156 L 389.726562 406.65625 L 360.226562 406.65625 Z M 360.226562 436.160156 " fill-opacity="1" fill-rule="nonzero"/><path fill="#e6e9ee" d="M 419.230469 436.160156 L 448.734375 436.160156 L 448.734375 406.65625 L 419.230469 406.65625 Z M 419.230469 436.160156 " fill-opacity="1" fill-rule="nonzero"/><path fill="#e6e9ee" d="M 478.242188 436.160156 L 507.742188 436.160156 L 507.742188 406.65625 L 478.242188 406.65625 Z M 478.242188 436.160156 " fill-opacity="1" fill-rule="nonzero"/><path fill="#e6e9ee" d="M 301.703125 489.851562 L 331.207031 489.851562 L 331.207031 460.347656 L 301.703125 460.347656 Z M 301.703125 489.851562 " fill-opacity="1" fill-rule="nonzero"/><path fill="#e6e9ee" d="M 360.226562 489.851562 L 389.726562 489.851562 L 389.726562 460.347656 L 360.226562 460.347656 Z M 360.226562 489.851562 " fill-opacity="1" fill-rule="nonzero"/><path fill="#e6e9ee" d="M 419.230469 489.851562 L 448.734375 489.851562 L 448.734375 460.347656 L 419.230469 460.347656 Z M 419.230469 489.851562 " fill-opacity="1" fill-rule="nonzero"/><path fill="#84dbff" d="M 283.808594 356.359375 C 222.382812 356.359375 172.5625 406.179688 172.5625 467.597656 C 172.5625 529.023438 222.382812 578.84375 283.808594 578.84375 C 345.234375 578.84375 395.046875 529.023438 395.046875 467.597656 C 395.046875 406.179688 345.234375 356.359375 283.808594 356.359375 Z M 283.808594 356.359375 " fill-opacity="1" fill-rule="nonzero"/><path fill="#ffffff" d="M 283.808594 381.511719 C 236.410156 381.511719 197.714844 420.199219 197.714844 467.597656 C 197.714844 515.003906 236.410156 553.691406 283.808594 553.691406 C 331.207031 553.691406 369.902344 515.003906 369.902344 467.597656 C 369.417969 420.199219 331.207031 381.511719 283.808594 381.511719 Z M 283.808594 381.511719 " fill-opacity="1" fill-rule="nonzero"/><path fill="#2b3b4e" d="M 280.417969 416.816406 L 276.550781 478.726562 C 276.066406 482.589844 278.972656 486.460938 283.324219 486.460938 C 287.675781 486.460938 290.582031 483.078125 290.582031 479.207031 L 286.707031 416.816406 C 286.707031 415.367188 285.261719 413.914062 283.808594 413.914062 C 281.871094 414.398438 280.902344 415.367188 280.417969 416.816406 Z M 280.417969 416.816406 " fill-opacity="1" fill-rule="nonzero"/><path fill="#324a5e" d="M 326.371094 459.378906 L 269.78125 463.246094 C 265.914062 463.730469 263.007812 466.636719 263.492188 470.019531 C 263.976562 473.886719 267.359375 476.308594 271.234375 475.824219 L 327.339844 464.699219 C 328.785156 464.214844 329.753906 463.246094 329.269531 461.796875 C 328.785156 460.347656 327.816406 459.378906 326.371094 459.378906 Z M 326.371094 459.378906 " fill-opacity="1" fill-rule="nonzero"/><path fill="#ff7058" d="M 293.964844 467.597656 C 293.964844 473.207031 289.417969 477.757812 283.808594 477.757812 C 278.199219 477.757812 273.648438 473.207031 273.648438 467.597656 C 273.648438 461.988281 278.199219 457.445312 283.808594 457.445312 C 289.417969 457.445312 293.964844 461.988281 293.964844 467.597656 Z M 293.964844 467.597656 " fill-opacity="1" fill-rule="nonzero"/><path fill="#e6e9ee" d="M 290.582031 395.050781 C 290.582031 398.792969 287.546875 401.820312 283.808594 401.820312 C 280.066406 401.820312 277.035156 398.792969 277.035156 395.050781 C 277.035156 391.3125 280.066406 388.277344 283.808594 388.277344 C 287.546875 388.277344 290.582031 391.3125 290.582031 395.050781 Z M 290.582031 395.050781 " fill-opacity="1" fill-rule="nonzero"/><path fill="#e6e9ee" d="M 290.582031 536.765625 C 290.582031 540.503906 287.546875 543.535156 283.808594 543.535156 C 280.066406 543.535156 277.035156 540.503906 277.035156 536.765625 C 277.035156 533.027344 280.066406 529.992188 283.808594 529.992188 C 287.546875 529.992188 290.582031 533.027344 290.582031 536.765625 Z M 290.582031 536.765625 " fill-opacity="1" fill-rule="nonzero"/><path fill="#e6e9ee" d="M 361.191406 465.667969 C 361.191406 469.40625 358.160156 472.441406 354.421875 472.441406 C 350.683594 472.441406 347.648438 469.40625 347.648438 465.667969 C 347.648438 461.925781 350.683594 458.894531 354.421875 458.894531 C 358.160156 458.894531 361.191406 461.925781 361.191406 465.667969 Z M 361.191406 465.667969 " fill-opacity="1" fill-rule="nonzero"/><path fill="#e6e9ee" d="M 219.476562 465.667969 C 219.476562 469.40625 216.449219 472.441406 212.710938 472.441406 C 208.96875 472.441406 205.941406 469.40625 205.941406 465.667969 C 205.941406 461.925781 208.96875 458.894531 212.710938 458.894531 C 216.449219 458.894531 219.476562 461.925781 219.476562 465.667969 Z M 219.476562 465.667969 " fill-opacity="1" fill-rule="nonzero"/><path fill="#e6e9ee" d="M 340.394531 415.847656 C 340.394531 419.585938 337.363281 422.621094 333.628906 422.621094 C 329.882812 422.621094 326.855469 419.585938 326.855469 415.847656 C 326.855469 412.113281 329.882812 409.078125 333.628906 409.078125 C 337.363281 409.078125 340.394531 412.113281 340.394531 415.847656 Z M 340.394531 415.847656 " fill-opacity="1" fill-rule="nonzero"/><path fill="#e6e9ee" d="M 240.277344 515.964844 C 240.277344 519.707031 237.242188 522.738281 233.503906 522.738281 C 229.769531 522.738281 226.734375 519.707031 226.734375 515.964844 C 226.734375 512.226562 229.769531 509.191406 233.503906 509.191406 C 237.242188 509.191406 240.277344 512.226562 240.277344 515.964844 Z M 240.277344 515.964844 " fill-opacity="1" fill-rule="nonzero"/><path fill="#e6e9ee" d="M 340.394531 515.964844 C 340.394531 519.707031 337.363281 522.738281 333.628906 522.738281 C 329.882812 522.738281 326.855469 519.707031 326.855469 515.964844 C 326.855469 512.226562 329.882812 509.191406 333.628906 509.191406 C 337.363281 509.191406 340.394531 512.226562 340.394531 515.964844 Z M 340.394531 515.964844 " fill-opacity="1" fill-rule="nonzero"/><path fill="#e6e9ee" d="M 240.277344 415.847656 C 240.277344 419.585938 237.242188 422.621094 233.503906 422.621094 C 229.769531 422.621094 226.734375 419.585938 226.734375 415.847656 C 226.734375 412.113281 229.769531 409.078125 233.503906 409.078125 C 237.242188 409.078125 240.277344 412.113281 240.277344 415.847656 Z M 240.277344 415.847656 " fill-opacity="1" fill-rule="nonzero"/><path fill="#ffffff" d="M 513.0625 244.632812 C 513.0625 252.914062 506.351562 259.628906 498.066406 259.628906 C 489.789062 259.628906 483.078125 252.914062 483.078125 244.632812 C 483.078125 236.355469 489.789062 229.640625 498.066406 229.640625 C 506.351562 229.640625 513.0625 236.355469 513.0625 244.632812 Z M 513.0625 244.632812 " fill-opacity="1" fill-rule="nonzero"/><path fill="#ffffff" d="M 326.371094 244.632812 C 326.371094 252.914062 319.65625 259.628906 311.375 259.628906 C 303.097656 259.628906 296.382812 252.914062 296.382812 244.632812 C 296.382812 236.355469 303.097656 229.640625 311.375 229.640625 C 319.65625 229.640625 326.371094 236.355469 326.371094 244.632812 Z M 326.371094 244.632812 " fill-opacity="1" fill-rule="nonzero"/></svg>