<svg xmlns="http://www.w3.org/2000/svg" xmlns:xlink="http://www.w3.org/1999/xlink" width="1024" zoomAndPan="magnify" viewBox="0 0 768 767.999994" height="1024" preserveAspectRatio="xMidYMid meet" version="1.0"><path fill="#f9b574" d="M 183.074219 487.078125 L 181.34375 485.378906 C 167.523438 471.550781 167.523438 448.933594 181.34375 435.105469 L 244.417969 371.980469 C 269.660156 346.75 288.230469 321.207031 317.625 301.078125 C 336.007812 288.445312 350.546875 271.058594 367.671875 256.757812 C 397.726562 231.589844 415.699219 227.558594 453.53125 230.804688 C 472.921875 232.472656 508.550781 191.585938 524.664062 207.714844 L 637.53125 320.671875 C 655.34375 338.46875 593.246094 352.261719 587.863281 390.0625 L 587.707031 391.070312 C 581.980469 431.292969 563.347656 468.589844 534.609375 497.316406 L 397.160156 634.90625 C 383.34375 648.734375 360.746094 648.734375 346.929688 634.90625 L 345.230469 633.171875 C 332.609375 620.574219 331.570312 600.632812 341.988281 586.742188 L 341.703125 586.460938 L 337.140625 591.027344 C 323.324219 604.855469 300.722656 604.855469 286.90625 591.027344 L 285.207031 589.324219 C 271.390625 575.496094 271.390625 552.882812 285.207031 539.054688 C 271.390625 552.882812 248.792969 552.882812 234.976562 539.054688 L 233.273438 537.351562 C 219.457031 523.523438 219.457031 500.90625 233.273438 487.078125 C 219.457031 500.90625 196.859375 500.90625 183.074219 487.078125 " fill-opacity="1" fill-rule="nonzero"/><path fill="#96ddf8" d="M 628.496094 354.785156 L 696.105469 287.125 C 702.019531 281.234375 702.019531 271.625 696.105469 265.703125 L 558.339844 127.832031 C 552.425781 121.910156 542.855469 121.910156 536.9375 127.832031 L 469.332031 195.492188 C 463.414062 201.414062 463.414062 211.023438 469.332031 216.941406 L 607.0625 354.785156 C 612.980469 360.707031 622.582031 360.707031 628.496094 354.785156 " fill-opacity="1" fill-rule="nonzero"/><path fill="#ffffff" d="M 613.734375 296.667969 C 621.917969 304.855469 635.203125 304.855469 643.386719 296.667969 C 651.597656 288.476562 651.597656 275.152344 643.386719 266.964844 C 635.203125 258.773438 621.917969 258.773438 613.734375 266.964844 C 605.519531 275.152344 605.519531 288.476562 613.734375 296.667969 " fill-opacity="1" fill-rule="nonzero"/><path fill="#fcd490" d="M 233.085938 488.214844 L 302.675781 418.570312 " fill-opacity="1" fill-rule="nonzero"/><path fill="#efb585" d="M 233.085938 488.214844 C 237.746094 481.285156 242.9375 474.859375 248.351562 468.652344 C 253.734375 462.449219 259.335938 456.429688 265.128906 450.636719 C 270.917969 444.808594 276.929688 439.234375 283.128906 433.816406 C 289.332031 428.429688 295.75 423.199219 302.675781 418.570312 C 298.050781 425.53125 292.855469 431.925781 287.441406 438.128906 C 282.058594 444.335938 276.457031 450.351562 270.667969 456.148438 C 264.875 461.976562 258.863281 467.550781 252.632812 472.96875 C 246.429688 478.355469 240.042969 483.550781 233.085938 488.214844 " fill-opacity="1" fill-rule="nonzero"/><path fill="#fcd490" d="M 280.140625 544.691406 L 349.730469 475.046875 " fill-opacity="1" fill-rule="nonzero"/><path fill="#efb585" d="M 280.140625 544.691406 C 284.765625 537.761719 289.992188 531.335938 295.375 525.128906 C 300.789062 518.925781 306.359375 512.910156 312.148438 507.113281 C 317.941406 501.285156 323.953125 495.710938 330.183594 490.292969 C 336.382812 484.90625 342.773438 479.707031 349.730469 475.046875 C 345.070312 482.007812 339.878906 488.402344 334.496094 494.609375 C 329.082031 500.8125 323.511719 506.828125 317.6875 512.625 C 311.898438 518.453125 305.886719 524.027344 299.65625 529.445312 C 293.484375 534.832031 287.066406 540.03125 280.140625 544.691406 " fill-opacity="1" fill-rule="nonzero"/><path fill="#fcd490" d="M 338.429688 591.78125 L 408.050781 522.105469 " fill-opacity="1" fill-rule="nonzero"/><path fill="#efb585" d="M 338.429688 591.78125 C 343.089844 584.820312 348.3125 578.425781 353.695312 572.191406 C 359.078125 565.984375 364.679688 559.96875 370.472656 554.171875 C 376.261719 548.34375 382.273438 542.769531 388.476562 537.351562 C 394.707031 531.964844 401.097656 526.769531 408.050781 522.105469 C 403.394531 529.066406 398.199219 535.460938 392.785156 541.667969 C 387.40625 547.90625 381.832031 553.921875 376.011719 559.714844 C 370.21875 565.511719 364.175781 571.085938 358.007812 576.503906 C 351.777344 581.890625 345.386719 587.089844 338.429688 591.78125 " fill-opacity="1" fill-rule="nonzero"/><path fill="#fcd490" d="M 584.714844 484.433594 L 586.417969 482.703125 C 600.234375 468.90625 600.234375 446.289062 586.417969 432.460938 L 549.464844 395.480469 L 523.34375 369.335938 C 498.101562 344.074219 479.5 318.558594 450.132812 298.398438 C 431.75 285.800781 417.210938 268.382812 400.121094 254.082031 C 370.03125 228.914062 352.058594 224.882812 314.226562 228.15625 C 294.839844 229.828125 259.179688 188.910156 243.09375 205.035156 L 130.226562 317.992188 C 112.414062 335.820312 174.511719 349.585938 179.894531 387.386719 L 180.050781 388.425781 C 185.78125 428.648438 204.445312 465.945312 233.148438 494.671875 L 370.597656 632.226562 C 384.414062 646.054688 407.011719 646.054688 420.832031 632.226562 L 422.53125 630.527344 C 435.152344 617.894531 436.191406 597.957031 425.773438 584.066406 L 426.054688 583.78125 L 430.617188 588.378906 C 444.4375 602.175781 467.035156 602.175781 480.851562 588.378906 L 482.550781 586.648438 C 496.367188 572.820312 496.367188 550.203125 482.550781 536.40625 C 496.367188 550.203125 518.96875 550.203125 532.785156 536.40625 L 534.484375 534.675781 C 548.300781 520.878906 548.300781 498.261719 534.484375 484.433594 C 548.300781 498.261719 570.898438 498.261719 584.714844 484.433594 " fill-opacity="1" fill-rule="nonzero"/><path fill="#ec104d" d="M 139.292969 352.136719 L 71.65625 284.476562 C 65.738281 278.554688 65.738281 268.949219 71.65625 263.058594 L 209.417969 125.1875 C 215.335938 119.265625 224.902344 119.265625 230.820312 125.1875 L 298.425781 192.847656 C 304.34375 198.769531 304.34375 208.34375 298.425781 214.265625 L 160.695312 352.136719 C 154.777344 358.058594 145.179688 358.058594 139.292969 352.136719 " fill-opacity="1" fill-rule="nonzero"/><path fill="#ffffff" d="M 154.023438 293.988281 C 145.839844 302.210938 132.558594 302.210938 124.34375 293.988281 C 116.160156 285.800781 116.160156 272.507812 124.34375 264.285156 C 132.558594 256.097656 145.839844 256.097656 154.023438 264.285156 C 162.238281 272.507812 162.238281 285.800781 154.023438 293.988281 " fill-opacity="1" fill-rule="nonzero"/><path fill="#fcd490" d="M 534.671875 485.566406 L 465.050781 415.890625 " fill-opacity="1" fill-rule="nonzero"/><path fill="#efb585" d="M 534.671875 485.566406 C 527.71875 480.90625 521.328125 475.675781 515.128906 470.289062 C 508.894531 464.90625 502.882812 459.296875 497.09375 453.5 C 491.300781 447.707031 485.699219 441.691406 480.316406 435.484375 C 474.902344 429.277344 469.710938 422.851562 465.050781 415.890625 C 472.007812 420.554688 478.429688 425.75 484.628906 431.167969 C 490.828125 436.554688 496.839844 442.160156 502.632812 447.957031 C 508.421875 453.753906 514.027344 459.769531 519.40625 466.007812 C 524.820312 472.210938 530.015625 478.605469 534.671875 485.566406 " fill-opacity="1" fill-rule="nonzero"/><path fill="#fcd490" d="M 487.648438 542.046875 L 418.027344 472.371094 " fill-opacity="1" fill-rule="nonzero"/><path fill="#efb585" d="M 487.648438 542.046875 C 480.695312 537.382812 474.304688 532.15625 468.105469 526.769531 C 461.871094 521.382812 455.859375 515.773438 450.070312 509.980469 C 444.277344 504.183594 438.675781 498.167969 433.292969 491.960938 C 427.878906 485.726562 422.6875 479.332031 418.027344 472.371094 C 424.984375 477.03125 431.40625 482.230469 437.574219 487.648438 C 443.804688 493.03125 449.816406 498.609375 455.609375 504.4375 C 461.402344 510.230469 467.003906 516.28125 472.386719 522.484375 C 477.765625 528.691406 482.992188 535.085938 487.648438 542.046875 " fill-opacity="1" fill-rule="nonzero"/><path fill="#fcd490" d="M 429.328125 589.105469 L 359.738281 519.429688 " fill-opacity="1" fill-rule="nonzero"/><path fill="#efb585" d="M 429.328125 589.105469 C 422.371094 584.445312 415.984375 579.246094 409.78125 573.828125 C 403.582031 568.441406 397.570312 562.867188 391.746094 557.039062 C 385.957031 551.242188 380.355469 545.226562 374.972656 539.023438 C 369.558594 532.816406 364.367188 526.390625 359.738281 519.429688 C 366.664062 524.089844 373.050781 529.289062 379.285156 534.707031 C 385.484375 540.09375 391.496094 545.699219 397.289062 551.496094 C 403.078125 557.292969 408.679688 563.339844 414.0625 569.542969 C 419.476562 575.75 424.671875 582.144531 429.328125 589.105469 " fill-opacity="1" fill-rule="nonzero"/><path fill="#f9b574" d="M 504.078125 285.988281 C 495.488281 287.21875 503.859375 331.347656 461.496094 352.546875 C 429.578125 368.515625 398.828125 368.863281 366.945312 371.667969 C 335.945312 374.40625 309.570312 390 282.058594 403.039062 C 260.152344 413.433594 217.945312 431.011719 210.644531 392.519531 C 206.425781 370.15625 374.3125 242.332031 385.703125 239.085938 C 426.777344 227.371094 419.066406 228.472656 475.816406 221.417969 " fill-opacity="1" fill-rule="nonzero"/></svg>