<svg xmlns="http://www.w3.org/2000/svg" xmlns:xlink="http://www.w3.org/1999/xlink" width="940" zoomAndPan="magnify" viewBox="0 0 705 591.000005" height="788" preserveAspectRatio="xMidYMid meet" version="1.0"><path fill="#6cb5ff" d="M 515.582031 416.300781 C 394.070312 475.046875 389.425781 588.457031 317.683594 488.5625 C 243.710938 385.414062 167.835938 466.71875 170.746094 319.769531 C 172.546875 231.105469 85.621094 -12.859375 343.027344 128.777344 C 444.28125 184.492188 483.789062 -13.015625 599.140625 296.425781 C 619.464844 350.910156 569.507812 390.328125 515.578125 416.300781 Z M 515.582031 416.300781 " fill-opacity="0.51" fill-rule="nonzero"/><path fill="#6cb5ff" d="M 461.191406 474.941406 C 315.261719 489.0625 267.855469 602.878906 232.335938 474.074219 C 195.765625 341.109375 87.855469 395.394531 146.113281 246.746094 C 181.3125 157.070312 184.527344 -124.265625 393.542969 116.976562 C 475.757812 211.875 590.339844 25.480469 591.449219 384.246094 C 591.660156 447.421875 525.917969 468.78125 461.191406 474.941406 Z M 461.191406 474.941406 " fill-opacity="0.51" fill-rule="nonzero"/><path fill="#6cb5ff" d="M 443.550781 74.847656 L 445.703125 77.347656 C 449.605469 82.8125 451.140625 88.75 450.300781 95.15625 C 449.433594 101.585938 446.261719 106.972656 440.78125 111.316406 C 435.320312 115.21875 429.386719 116.753906 422.980469 115.914062 C 420.917969 115.636719 418.910156 115.09375 416.960938 114.289062 L 414.121094 112.882812 C 412.269531 111.816406 410.554688 110.488281 408.976562 108.894531 C 404.28125 103.875 401.957031 98.136719 402.007812 91.683594 C 402.058594 85.226562 404.46875 79.527344 409.246094 74.582031 C 414.265625 69.882812 420 67.558594 426.453125 67.605469 C 432.90625 67.65625 438.605469 70.070312 443.550781 74.847656 " fill-opacity="1" fill-rule="nonzero"/><path fill="#6cb5ff" d="M 491.652344 68.753906 L 493.390625 70.066406 C 496.671875 73.046875 498.488281 76.664062 498.839844 80.914062 C 499.179688 85.183594 497.886719 89.101562 494.957031 92.667969 C 491.976562 95.949219 488.363281 97.769531 484.113281 98.121094 C 482.742188 98.230469 481.375 98.160156 480.003906 97.914062 L 477.976562 97.402344 C 476.632812 96.972656 475.339844 96.355469 474.101562 95.550781 C 470.371094 92.964844 468.070312 89.589844 467.199219 85.417969 C 466.332031 81.246094 467.09375 77.230469 469.484375 73.375 C 472.066406 69.640625 475.441406 67.339844 479.609375 66.472656 C 483.78125 65.601562 487.796875 66.363281 491.652344 68.753906 " fill-opacity="1" fill-rule="nonzero"/><path fill="#6cb5ff" d="M 520.621094 88.515625 L 521.53125 87.660156 C 523.535156 86.101562 525.75 85.425781 528.1875 85.644531 C 530.628906 85.871094 532.714844 86.984375 534.4375 88.988281 C 536 90.992188 536.671875 93.210938 536.457031 95.644531 C 536.382812 96.429688 536.210938 97.195312 535.9375 97.945312 L 535.449219 99.042969 C 535.074219 99.757812 534.601562 100.425781 534.023438 101.046875 C 532.203125 102.902344 530.070312 103.871094 527.632812 103.953125 C 525.191406 104.035156 523 103.214844 521.058594 101.484375 C 519.203125 99.664062 518.234375 97.53125 518.152344 95.089844 C 518.070312 92.652344 518.890625 90.457031 520.621094 88.515625 " fill-opacity="1" fill-rule="nonzero"/><path fill="#6cb5ff" d="M 435.597656 547.089844 L 432.339844 545.261719 C 426.070312 540.964844 422.140625 535.242188 420.550781 528.101562 C 418.980469 520.925781 420.269531 513.964844 424.417969 507.222656 C 428.714844 500.949219 434.433594 497.019531 441.574219 495.429688 C 443.875 494.925781 446.222656 494.726562 448.605469 494.824219 L 452.171875 495.21875 C 454.558594 495.636719 456.894531 496.386719 459.1875 497.46875 C 466.128906 500.988281 470.824219 506.191406 473.273438 513.078125 C 475.71875 519.964844 475.359375 526.964844 472.195312 534.078125 C 468.675781 541.023438 463.476562 545.71875 456.589844 548.167969 C 449.707031 550.613281 442.710938 550.253906 435.597656 547.089844 " fill-opacity="1" fill-rule="nonzero"/><path fill="#6cb5ff" d="M 386.789062 572.214844 L 384.433594 571.492188 C 379.789062 569.59375 376.453125 566.453125 374.433594 562.066406 C 372.417969 557.65625 372.277344 552.984375 374.011719 548.058594 C 375.910156 543.410156 379.046875 540.074219 383.433594 538.050781 C 384.847656 537.40625 386.332031 536.949219 387.886719 536.679688 L 390.242188 536.4375 C 391.835938 536.375 393.449219 536.53125 395.082031 536.910156 C 400.050781 538.210938 403.804688 540.910156 406.34375 545.011719 C 408.886719 549.113281 409.632812 553.679688 408.582031 558.710938 C 407.28125 563.679688 404.582031 567.4375 400.484375 569.976562 C 396.382812 572.519531 391.820312 573.261719 386.789062 572.214844 " fill-opacity="1" fill-rule="nonzero"/><path fill="#6cb5ff" d="M 348.320312 562.421875 L 347.683594 563.683594 C 346.15625 566.121094 344.058594 567.695312 341.386719 568.40625 C 338.699219 569.113281 336.050781 568.734375 333.4375 567.273438 C 331 565.746094 329.425781 563.648438 328.714844 560.972656 C 328.488281 560.109375 328.375 559.226562 328.375 558.324219 L 328.46875 556.96875 C 328.585938 556.0625 328.835938 555.167969 329.207031 554.285156 C 330.425781 551.605469 332.320312 549.75 334.882812 548.714844 C 337.445312 547.683594 340.09375 547.707031 342.832031 548.792969 C 345.511719 550.011719 347.367188 551.90625 348.398438 554.46875 C 349.429688 557.035156 349.40625 559.683594 348.320312 562.421875 " fill-opacity="1" fill-rule="nonzero"/><path fill="#6cb5ff" d="M 107.996094 186.792969 L 110.179688 184.324219 C 115.0625 179.71875 120.730469 177.402344 127.1875 177.367188 C 133.671875 177.359375 139.429688 179.777344 144.46875 184.617188 C 149.070312 189.5 151.386719 195.171875 151.421875 201.628906 C 151.421875 203.710938 151.15625 205.769531 150.625 207.808594 L 149.617188 210.8125 C 148.808594 212.792969 147.726562 214.667969 146.363281 216.441406 C 142.027344 221.773438 136.660156 224.847656 130.261719 225.667969 C 123.867188 226.488281 117.898438 224.867188 112.355469 220.804688 C 107.027344 216.46875 103.953125 211.101562 103.132812 204.703125 C 102.3125 198.304688 103.933594 192.335938 107.996094 186.792969 " fill-opacity="1" fill-rule="nonzero"/><path fill="#6cb5ff" d="M 95.476562 139.972656 L 96.542969 138.078125 C 99.050781 134.425781 102.382812 132.136719 106.542969 131.214844 C 110.722656 130.304688 114.777344 131.058594 118.703125 133.476562 C 122.351562 135.984375 124.640625 139.316406 125.5625 143.480469 C 125.855469 144.820312 125.96875 146.1875 125.910156 147.578125 L 125.679688 149.65625 C 125.4375 151.046875 125 152.40625 124.367188 153.742188 C 122.3125 157.789062 119.28125 160.519531 115.269531 161.945312 C 111.257812 163.367188 107.179688 163.15625 103.039062 161.308594 C 98.996094 159.253906 96.261719 156.222656 94.839844 152.207031 C 93.417969 148.195312 93.628906 144.117188 95.476562 139.972656 " fill-opacity="1" fill-rule="nonzero"/><path fill="#6cb5ff" d="M 111.128906 108.621094 L 110.164062 107.832031 C 108.347656 106.058594 107.382812 103.953125 107.269531 101.511719 C 107.164062 99.0625 107.984375 96.847656 109.734375 94.867188 C 111.507812 93.050781 113.613281 92.085938 116.050781 91.972656 C 116.839844 91.941406 117.621094 92.007812 118.398438 92.179688 L 119.550781 92.511719 C 120.308594 92.785156 121.035156 93.164062 121.730469 93.652344 C 123.808594 95.207031 125.054688 97.1875 125.464844 99.59375 C 125.878906 101.996094 125.359375 104.28125 123.910156 106.4375 C 122.355469 108.519531 120.375 109.765625 117.972656 110.175781 C 115.566406 110.585938 113.285156 110.066406 111.128906 108.621094 " fill-opacity="1" fill-rule="nonzero"/></svg>