<svg xmlns="http://www.w3.org/2000/svg" xmlns:xlink="http://www.w3.org/1999/xlink" width="500" zoomAndPan="magnify" viewBox="0 0 375 374.999991" height="500" preserveAspectRatio="xMidYMid meet" version="1.0"><defs><clipPath id="e7419e6027"><path d="M 40.25 13 L 62 13 L 62 361.730469 L 40.25 361.730469 Z M 40.25 13 " clip-rule="nonzero"/></clipPath><clipPath id="fb6d60aa03"><path d="M 54 13.003906 L 173.972656 13.003906 L 173.972656 361.730469 L 54 361.730469 Z M 54 13.003906 " clip-rule="nonzero"/></clipPath><clipPath id="d3fb80acb7"><path d="M 53.550781 13.003906 L 174.671875 13.003906 L 174.671875 361.730469 L 53.550781 361.730469 Z M 53.550781 13.003906 " clip-rule="nonzero"/></clipPath><clipPath id="74a5002bf9"><path d="M 313 13 L 335 13 L 335 361.730469 L 313 361.730469 Z M 313 13 " clip-rule="nonzero"/></clipPath><clipPath id="f441873311"><path d="M 201.277344 13.003906 L 321.695312 13.003906 L 321.695312 361.730469 L 201.277344 361.730469 Z M 201.277344 13.003906 " clip-rule="nonzero"/></clipPath><clipPath id="2a0c12beb5"><path d="M 201 13.003906 L 321.695312 13.003906 L 321.695312 361.730469 L 201 361.730469 Z M 201 13.003906 " clip-rule="nonzero"/></clipPath></defs><g clip-path="url(#e7419e6027)"><path fill="#28183b" d="M 53.957031 346.957031 L 53.957031 27.78125 C 53.957031 21.050781 57.605469 15.347656 61.695312 13.714844 L 47.722656 18.753906 L 47.722656 18.769531 C 43.800781 20.121094 40.25 26.390625 40.25 33.039062 L 40.25 341.699219 C 40.25 348.351562 43.800781 354.621094 47.722656 355.96875 L 47.722656 355.988281 L 61.695312 361.015625 L 61.695312 360.992188 C 57.605469 359.363281 53.957031 353.691406 53.957031 346.957031 " fill-opacity="1" fill-rule="nonzero"/></g><g clip-path="url(#fb6d60aa03)"><path fill="#ffffff" d="M 65.699219 361.472656 C 59.328125 361.472656 54.148438 356.292969 54.148438 349.925781 L 54.148438 24.8125 C 54.148438 18.449219 59.328125 13.269531 65.699219 13.269531 C 67.417969 13.269531 69.09375 13.652344 70.679688 14.410156 L 167.386719 60.585938 C 171.378906 62.488281 173.953125 66.574219 173.953125 70.988281 L 173.953125 303.753906 C 173.953125 308.167969 171.378906 312.25 167.386719 314.15625 L 70.679688 360.328125 C 69.09375 361.085938 67.417969 361.472656 65.699219 361.472656 " fill-opacity="1" fill-rule="nonzero"/></g><g clip-path="url(#d3fb80acb7)"><path fill="#28183b" d="M 65.699219 13.007812 C 59.492188 13.007812 53.882812 17.992188 53.882812 24.8125 L 53.882812 349.925781 C 53.882812 356.75 59.492188 361.734375 65.699219 361.734375 C 67.386719 361.734375 69.117188 361.367188 70.792969 360.566406 L 167.5 314.390625 C 171.605469 312.433594 174.21875 308.292969 174.21875 303.753906 L 174.21875 70.988281 C 174.21875 66.449219 171.605469 62.308594 167.5 60.347656 L 70.792969 14.175781 C 69.117188 13.375 67.386719 13.007812 65.699219 13.007812 Z M 65.699219 13.007812 L 65.699219 13.53125 C 67.378906 13.53125 69.011719 13.90625 70.566406 14.648438 L 167.277344 60.820312 C 171.171875 62.683594 173.691406 66.675781 173.691406 70.988281 L 173.691406 303.753906 C 173.691406 308.066406 171.171875 312.058594 167.273438 313.917969 L 70.566406 360.09375 C 69.011719 360.832031 67.375 361.210938 65.699219 361.210938 C 59.472656 361.210938 54.410156 356.148438 54.410156 349.925781 L 54.410156 24.8125 C 54.410156 18.59375 59.472656 13.53125 65.699219 13.53125 L 65.699219 13.007812 " fill-opacity="1" fill-rule="nonzero"/></g><path fill="#8ad8dc" d="M 160.140625 67.820312 L 125.964844 51.503906 L 125.964844 56.070312 C 125.964844 60.527344 121.238281 61.21875 117.273438 57.34375 C 115.296875 55.410156 114.050781 52.796875 114.050781 50.574219 L 114.050781 45.816406 L 74.257812 26.816406 C 69.414062 24.503906 63.8125 28.03125 63.8125 33.390625 L 63.8125 341.351562 C 63.8125 346.710938 69.414062 350.238281 74.257812 347.925781 L 160.140625 306.917969 C 162.675781 305.710938 164.289062 303.152344 164.289062 300.34375 L 164.289062 74.394531 C 164.289062 71.589844 162.675781 69.03125 160.140625 67.820312 " fill-opacity="1" fill-rule="nonzero"/><g clip-path="url(#74a5002bf9)"><path fill="#28183b" d="M 321.285156 346.957031 L 321.285156 27.78125 C 321.285156 21.050781 317.640625 15.347656 313.550781 13.714844 L 327.519531 18.753906 L 327.519531 18.769531 C 331.441406 20.121094 334.996094 26.390625 334.996094 33.039062 L 334.996094 341.699219 C 334.996094 348.351562 331.441406 354.621094 327.519531 355.96875 L 327.519531 355.988281 L 313.550781 361.015625 L 313.550781 360.992188 C 317.640625 359.363281 321.285156 353.691406 321.285156 346.957031 " fill-opacity="1" fill-rule="nonzero"/></g><g clip-path="url(#f441873311)"><path fill="#ffffff" d="M 309.546875 361.472656 C 307.828125 361.472656 306.152344 361.085938 304.5625 360.328125 L 207.855469 314.15625 C 203.867188 312.25 201.285156 308.167969 201.285156 303.753906 L 201.285156 70.988281 C 201.285156 66.574219 203.867188 62.488281 207.855469 60.585938 L 304.5625 14.410156 C 306.152344 13.652344 307.828125 13.269531 309.546875 13.269531 C 315.914062 13.269531 321.097656 18.449219 321.097656 24.8125 L 321.097656 349.925781 C 321.097656 353.085938 319.855469 356.027344 317.597656 358.199219 C 315.441406 360.28125 312.507812 361.472656 309.546875 361.472656 " fill-opacity="1" fill-rule="nonzero"/></g><g clip-path="url(#2a0c12beb5)"><path fill="#28183b" d="M 309.546875 13.007812 C 307.859375 13.007812 306.125 13.375 304.449219 14.175781 L 207.742188 60.347656 C 203.636719 62.308594 201.023438 66.449219 201.023438 70.988281 L 201.023438 303.753906 C 201.023438 308.292969 203.636719 312.433594 207.742188 314.390625 L 304.449219 360.566406 C 306.125 361.367188 307.859375 361.734375 309.546875 361.734375 C 315.753906 361.734375 321.359375 356.75 321.359375 349.925781 L 321.359375 24.8125 C 321.359375 17.992188 315.753906 13.007812 309.546875 13.007812 Z M 309.546875 13.53125 C 315.769531 13.53125 320.835938 18.59375 320.835938 24.8125 L 320.835938 349.925781 C 320.835938 356.148438 315.769531 361.210938 309.546875 361.210938 C 307.867188 361.210938 306.226562 360.832031 304.675781 360.09375 L 207.96875 313.917969 C 204.070312 312.058594 201.550781 308.066406 201.550781 303.753906 L 201.550781 70.988281 C 201.550781 66.675781 204.070312 62.683594 207.96875 60.820312 L 304.675781 14.648438 C 306.226562 13.90625 307.867188 13.53125 309.546875 13.53125 " fill-opacity="1" fill-rule="nonzero"/></g><path fill="#8ad8dc" d="M 215.101562 67.820312 L 249.277344 51.503906 L 249.277344 56.070312 C 249.277344 60.527344 254.007812 61.21875 257.96875 57.34375 C 259.949219 55.410156 261.191406 52.796875 261.191406 50.574219 L 261.191406 45.816406 L 300.980469 26.816406 C 305.828125 24.503906 311.433594 28.03125 311.433594 33.390625 L 311.433594 341.351562 C 311.433594 346.710938 305.828125 350.238281 300.980469 347.925781 L 215.101562 306.917969 C 212.566406 305.710938 210.953125 303.152344 210.953125 300.34375 L 210.953125 74.394531 C 210.953125 71.589844 212.566406 69.03125 215.101562 67.820312 " fill-opacity="1" fill-rule="nonzero"/><path fill="#28183b" d="M 243.25 113.613281 C 242.339844 113.613281 241.414062 113.164062 240.75 112.390625 C 240.1875 111.734375 239.800781 110.839844 239.632812 109.804688 C 239.207031 107.125 240.15625 104.269531 242.628906 100.8125 L 242.898438 100.4375 C 243.386719 99.761719 243.894531 99.0625 244.257812 98.316406 C 244.757812 97.292969 245.011719 96.152344 245.210938 95.164062 C 245.628906 93.078125 245.910156 90.878906 245.132812 88.933594 C 244.984375 88.558594 244.789062 88.179688 244.601562 87.816406 C 244.261719 87.164062 243.910156 86.492188 243.773438 85.746094 C 243.75 85.601562 243.84375 85.464844 243.984375 85.4375 C 244.136719 85.414062 244.265625 85.507812 244.292969 85.648438 C 244.414062 86.320312 244.730469 86.929688 245.066406 87.574219 C 245.261719 87.949219 245.460938 88.339844 245.625 88.738281 C 246.449219 90.8125 246.160156 93.101562 245.726562 95.269531 C 245.519531 96.289062 245.257812 97.46875 244.730469 98.542969 C 244.34375 99.332031 243.824219 100.050781 243.324219 100.742188 L 243.054688 101.117188 C 240.667969 104.457031 239.746094 107.1875 240.152344 109.71875 C 240.304688 110.660156 240.648438 111.464844 241.148438 112.050781 C 241.714844 112.703125 242.492188 113.089844 243.246094 113.089844 L 243.320312 113.089844 C 243.460938 113.089844 243.578125 113.199219 243.582031 113.34375 C 243.585938 113.488281 243.472656 113.605469 243.328125 113.613281 L 243.25 113.613281 " fill-opacity="1" fill-rule="nonzero"/><path fill="#5fbbeb" d="M 256.976562 293.078125 C 257.027344 297.179688 257.320312 303.140625 257.320312 303.140625 C 257.320312 303.140625 236.007812 308.625 238.65625 312.855469 C 243.089844 319.941406 274.3125 313.585938 274.582031 310.476562 C 274.863281 307.183594 274.582031 297.949219 274.398438 294.289062 C 274.179688 289.867188 256.75 275.4375 256.976562 293.078125 " fill-opacity="1" fill-rule="nonzero"/><path fill="#5fbbeb" d="M 290.285156 298.582031 C 290.660156 302.792969 292.054688 315.398438 292.054688 315.398438 C 292.578125 320.359375 294.683594 325.011719 298.070312 328.679688 C 301.246094 332.121094 305.769531 336.292969 311.433594 339.617188 L 311.433594 321.675781 L 307.960938 316.523438 L 307.230469 298.582031 C 307.230469 298.582031 288.988281 284.148438 290.285156 298.582031 " fill-opacity="1" fill-rule="nonzero"/><path fill="#28183b" d="M 251.75 173.183594 C 249.171875 180.703125 250.929688 245.382812 250.726562 259.433594 C 250.605469 267.691406 249.542969 285.707031 254.472656 292.25 C 257.140625 295.789062 263.324219 300.976562 274.398438 294.289062 C 283.265625 288.933594 278.65625 202.652344 278.65625 202.652344 C 278.65625 202.652344 282.402344 230.363281 284.105469 253.996094 C 284.777344 263.328125 283.765625 284.597656 285.980469 292.589844 C 287.324219 297.445312 294.152344 308.570312 305.394531 305.167969 C 307.859375 304.425781 309.878906 302.851562 311.433594 300.421875 L 311.433594 251.84375 C 310.878906 249.085938 311.097656 242.707031 311.433594 234.519531 L 311.433594 190.929688 C 310.335938 178.503906 307.730469 167.65625 302.160156 162.398438 C 291.609375 152.441406 258.617188 153.121094 251.75 173.183594 " fill-opacity="1" fill-rule="nonzero"/><path fill="#5fbbeb" d="M 301.882812 223.15625 C 301.480469 223.160156 301.078125 223.160156 300.679688 223.15625 L 292.894531 223.140625 C 292.492188 219.269531 292.0625 215.378906 291.589844 211.476562 C 294.679688 210.898438 297.746094 210.148438 300.761719 209.238281 C 301.1875 213.851562 301.566406 218.488281 301.882812 223.15625 Z M 302.488281 233.535156 C 302.550781 234.875 302.609375 236.21875 302.667969 237.5625 C 301.054688 237.613281 299.476562 237.605469 298 237.597656 C 296.746094 237.589844 295.480469 237.582031 294.214844 237.574219 C 294.140625 236.285156 294.050781 235 293.929688 233.710938 C 293.617188 230.386719 293.292969 227.035156 292.949219 223.667969 L 300.679688 223.679688 C 300.898438 223.679688 301.117188 223.683594 301.339844 223.683594 C 301.53125 223.683594 301.722656 223.679688 301.914062 223.679688 C 302.132812 226.953125 302.328125 230.238281 302.488281 233.535156 Z M 303.109375 250.007812 C 300.144531 250.148438 297.199219 250.140625 294.339844 250.09375 C 294.464844 246.105469 294.457031 242.101562 294.242188 238.097656 C 295.5 238.105469 296.753906 238.113281 297.996094 238.121094 C 298.582031 238.125 299.179688 238.128906 299.789062 238.128906 C 300.734375 238.128906 301.703125 238.117188 302.6875 238.085938 C 302.859375 242.085938 302.996094 246.074219 303.109375 250.007812 Z M 303.609375 274.460938 C 303.613281 274.835938 303.621094 275.214844 303.628906 275.59375 C 299.886719 275.386719 296.167969 274.6875 292.609375 273.527344 C 292.625 273.367188 292.644531 273.199219 292.65625 273.046875 L 292.792969 271.550781 C 293.429688 264.675781 294.078125 257.671875 294.324219 250.621094 C 295.449219 250.636719 296.589844 250.648438 297.742188 250.648438 C 299.519531 250.648438 301.320312 250.621094 303.125 250.535156 C 303.367188 258.960938 303.503906 267.105469 303.609375 274.460938 Z M 303.636719 276.113281 C 303.683594 278.136719 303.757812 280.195312 303.832031 282.207031 C 303.976562 286.214844 304.121094 290.269531 304.066406 294.300781 C 299.570312 294.140625 294.992188 293.601562 290.75 292.015625 C 290.886719 287.289062 291.507812 282.476562 292.015625 278.492188 C 292.21875 276.90625 292.410156 275.398438 292.554688 274.054688 C 296.132812 275.214844 299.875 275.902344 303.636719 276.113281 Z M 289.003906 193.347656 C 292.203125 192.851562 295.53125 192.261719 298.910156 191.519531 C 299.574219 197.195312 300.179688 202.925781 300.714844 208.703125 C 297.695312 209.621094 294.625 210.371094 291.523438 210.953125 C 290.804688 205.09375 289.984375 199.214844 289.003906 193.347656 Z M 266.171875 214.109375 C 265.167969 214.117188 264.175781 214.082031 263.195312 213.96875 C 261.976562 213.828125 260.796875 213.640625 259.648438 213.429688 C 259.660156 208.800781 259.625 204.460938 259.582031 200.601562 C 259.558594 198.832031 259.570312 197.054688 259.59375 195.226562 C 261.757812 195.394531 263.921875 195.480469 266.078125 195.480469 C 266.335938 195.480469 266.597656 195.472656 266.859375 195.46875 C 266.589844 201.667969 266.355469 207.886719 266.171875 214.109375 Z M 266.550781 267.613281 C 266.613281 268.785156 266.710938 269.972656 266.820312 271.175781 C 262.890625 270.917969 258.976562 270.429688 255.101562 269.683594 C 255.367188 264.949219 255.992188 260.125 256.675781 255.40625 C 259.84375 256.066406 263.03125 256.40625 266.082031 256.5625 C 266.199219 260.3125 266.355469 263.988281 266.550781 267.613281 Z M 267.523438 277.722656 C 267.898438 280.9375 268.277344 284.191406 268.492188 287.410156 C 266.8125 287.699219 265.058594 287.648438 263.363281 287.59375 C 262.996094 287.578125 262.632812 287.566406 262.269531 287.558594 C 261.21875 287.535156 260.164062 287.539062 259.105469 287.539062 C 258.300781 287.539062 257.488281 287.539062 256.679688 287.53125 C 255.089844 282.222656 254.769531 276.300781 255.074219 270.199219 C 258.972656 270.953125 262.910156 271.460938 266.871094 271.714844 C 267.058594 273.664062 267.285156 275.660156 267.523438 277.722656 Z M 257.253906 251.511719 C 257.808594 247.796875 258.339844 244.226562 258.699219 240.882812 C 260.992188 241.308594 263.363281 241.59375 265.8125 241.730469 C 265.84375 246.652344 265.925781 251.410156 266.0625 256.035156 C 263.042969 255.878906 259.886719 255.546875 256.75 254.898438 C 256.914062 253.761719 257.085938 252.632812 257.253906 251.511719 Z M 259.464844 226.320312 C 259.578125 222.070312 259.628906 217.917969 259.644531 213.960938 C 260.777344 214.167969 261.933594 214.351562 263.136719 214.488281 C 264.082031 214.597656 265.035156 214.644531 265.996094 214.644531 L 266.15625 214.636719 C 266.035156 218.933594 265.933594 223.222656 265.871094 227.511719 C 263.71875 227.238281 261.574219 226.84375 259.464844 226.320312 Z M 259.078125 236.332031 C 259.242188 233.160156 259.363281 229.988281 259.449219 226.859375 C 261.5625 227.375 263.710938 227.773438 265.867188 228.039062 C 265.835938 230.488281 265.808594 232.9375 265.800781 235.378906 C 265.792969 237.355469 265.796875 239.292969 265.808594 241.210938 C 263.382812 241.074219 261.023438 240.796875 258.753906 240.375 C 258.894531 238.984375 259.011719 237.632812 259.078125 236.332031 Z M 311.433594 204.648438 C 308.121094 206.160156 304.710938 207.46875 301.226562 208.546875 C 300.695312 202.78125 300.089844 197.0625 299.425781 191.402344 C 303.316406 190.535156 307.265625 189.457031 311.148438 188.074219 C 311.128906 187.898438 311.109375 187.71875 311.085938 187.539062 C 307.203125 188.925781 303.257812 190.007812 299.367188 190.878906 C 298.058594 179.75 296.550781 168.851562 295 158.269531 C 294.8125 158.203125 294.628906 158.136719 294.4375 158.070312 C 296.007812 168.75 297.53125 179.753906 298.847656 190.996094 C 295.460938 191.742188 292.125 192.332031 288.914062 192.832031 C 286.808594 180.394531 283.964844 168.046875 279.882812 156.15625 C 279.699219 156.167969 279.519531 156.171875 279.335938 156.179688 C 283.433594 168.082031 286.28125 180.453125 288.394531 192.914062 C 287.757812 193.015625 287.128906 193.109375 286.507812 193.199219 C 280.507812 194.085938 274.015625 194.847656 267.40625 194.9375 C 267.820312 185.582031 268.304688 176.277344 268.785156 167.101562 C 268.792969 166.957031 268.679688 166.832031 268.535156 166.824219 C 268.371094 166.8125 268.269531 166.929688 268.261719 167.074219 C 267.777344 176.261719 267.292969 185.578125 266.882812 194.949219 C 264.464844 194.96875 262.03125 194.890625 259.597656 194.699219 C 259.605469 194.1875 259.613281 193.675781 259.617188 193.148438 C 259.730469 184.800781 259.84375 176.167969 257.757812 168.320312 C 257.722656 168.183594 257.582031 168.097656 257.4375 168.136719 C 257.296875 168.171875 257.214844 168.316406 257.253906 168.457031 C 259.320312 176.234375 259.203125 184.832031 259.09375 193.140625 C 259.085938 193.648438 259.082031 194.15625 259.074219 194.664062 C 256.171875 194.417969 253.277344 193.988281 250.417969 193.351562 C 250.414062 193.53125 250.414062 193.710938 250.410156 193.890625 C 253.273438 194.523438 256.167969 194.941406 259.066406 195.183594 C 259.046875 197.003906 259.035156 198.835938 259.058594 200.609375 C 259.101562 204.441406 259.136719 208.746094 259.121094 213.332031 C 255.890625 212.691406 252.957031 211.753906 250.335938 210.535156 C 250.335938 210.726562 250.335938 210.917969 250.339844 211.113281 C 252.96875 212.3125 255.898438 213.238281 259.121094 213.863281 C 259.105469 217.808594 259.054688 221.953125 258.941406 226.1875 C 256.023438 225.429688 253.164062 224.441406 250.414062 223.21875 C 250.414062 223.414062 250.417969 223.601562 250.421875 223.796875 C 253.167969 225.003906 256.015625 225.984375 258.929688 226.730469 C 258.839844 229.890625 258.722656 233.097656 258.554688 236.304688 C 258.488281 237.578125 258.375 238.90625 258.238281 240.269531 C 255.554688 239.742188 252.996094 239.011719 250.574219 238.082031 C 250.578125 238.269531 250.578125 238.453125 250.582031 238.640625 C 252.984375 239.550781 255.523438 240.273438 258.183594 240.792969 C 257.824219 244.136719 257.289062 247.710938 256.734375 251.433594 C 256.570312 252.542969 256.402344 253.65625 256.238281 254.78125 C 254.378906 254.375 252.535156 253.847656 250.734375 253.179688 C 250.734375 253.375 250.734375 253.558594 250.734375 253.746094 C 252.511719 254.394531 254.332031 254.90625 256.160156 255.304688 C 255.476562 260.015625 254.851562 264.835938 254.582031 269.574219 C 253.234375 269.304688 251.890625 269 250.554688 268.675781 C 250.550781 268.855469 250.550781 269.039062 250.550781 269.21875 C 251.878906 269.546875 253.214844 269.839844 254.554688 270.105469 C 254.242188 276.21875 254.550781 282.167969 256.121094 287.519531 C 254.820312 287.492188 253.515625 287.421875 252.222656 287.265625 C 252.273438 287.449219 252.328125 287.632812 252.382812 287.816406 C 253.679688 287.964844 254.980469 288.023438 256.28125 288.046875 C 257.292969 291.292969 258.785156 294.304688 260.910156 296.988281 C 261.195312 297.078125 261.484375 297.160156 261.789062 297.226562 C 259.5 294.503906 257.902344 291.410156 256.832031 288.054688 C 257.597656 288.0625 258.355469 288.0625 259.109375 288.0625 C 260.15625 288.0625 261.210938 288.058594 262.253906 288.082031 C 262.617188 288.089844 262.980469 288.101562 263.34375 288.113281 C 264.039062 288.136719 264.742188 288.160156 265.441406 288.160156 C 266.472656 288.160156 267.503906 288.105469 268.523438 287.9375 C 268.707031 290.992188 268.738281 294.011719 268.464844 296.941406 C 268.644531 296.894531 268.824219 296.835938 269.007812 296.78125 C 269.265625 293.867188 269.230469 290.867188 269.046875 287.847656 L 269.089844 287.835938 C 271.097656 287.410156 272.957031 286.472656 274.753906 285.570312 C 275.828125 285.027344 276.925781 284.476562 278.054688 284.035156 C 278.082031 283.839844 278.109375 283.640625 278.140625 283.4375 C 276.890625 283.90625 275.691406 284.507812 274.515625 285.097656 C 272.757812 285.988281 270.941406 286.898438 269.011719 287.316406 C 268.796875 284.101562 268.417969 280.863281 268.046875 277.664062 C 267.808594 275.628906 267.585938 273.664062 267.398438 271.742188 C 269.242188 271.847656 271.085938 271.914062 272.933594 271.914062 C 274.171875 271.914062 275.414062 271.886719 276.65625 271.839844 C 277.503906 271.804688 278.382812 271.753906 279.257812 271.636719 C 279.269531 271.457031 279.277344 271.277344 279.289062 271.101562 C 278.398438 271.222656 277.503906 271.28125 276.632812 271.316406 C 273.53125 271.4375 270.4375 271.386719 267.347656 271.207031 C 267.238281 269.984375 267.140625 268.773438 267.074219 267.582031 C 266.882812 263.980469 266.726562 260.324219 266.609375 256.585938 C 268.191406 256.660156 269.734375 256.6875 271.214844 256.6875 C 271.601562 256.6875 271.988281 256.6875 272.367188 256.683594 C 274.171875 256.667969 275.925781 256.59375 277.484375 255.898438 C 277.980469 255.675781 278.457031 255.390625 278.917969 255.117188 C 279.222656 254.9375 279.515625 254.761719 279.816406 254.605469 C 279.816406 254.410156 279.816406 254.210938 279.820312 254.011719 C 279.417969 254.207031 279.03125 254.4375 278.648438 254.664062 C 278.199219 254.933594 277.738281 255.210938 277.269531 255.421875 C 275.800781 256.078125 274.179688 256.140625 272.363281 256.160156 C 270.535156 256.171875 268.59375 256.152344 266.589844 256.058594 C 266.449219 251.4375 266.367188 246.683594 266.335938 241.769531 C 267.3125 241.8125 268.296875 241.839844 269.292969 241.839844 C 272.6875 241.839844 276.210938 241.558594 279.820312 241.023438 C 279.816406 240.851562 279.816406 240.675781 279.816406 240.5 C 275.136719 241.195312 270.625 241.4375 266.335938 241.234375 C 266.324219 239.308594 266.316406 237.363281 266.328125 235.382812 C 266.335938 232.960938 266.359375 230.535156 266.390625 228.105469 C 268.46875 228.347656 270.558594 228.46875 272.640625 228.46875 C 272.820312 228.46875 273 228.464844 273.175781 228.464844 C 275.132812 228.445312 277.398438 228.320312 279.585938 227.628906 C 279.578125 227.449219 279.578125 227.265625 279.570312 227.085938 C 277.40625 227.796875 275.128906 227.917969 273.171875 227.941406 C 270.914062 227.960938 268.648438 227.832031 266.398438 227.574219 C 266.457031 223.257812 266.558594 218.941406 266.683594 214.625 C 268.871094 214.578125 271.078125 214.332031 273.242188 214.082031 C 275.191406 213.855469 277.195312 213.632812 279.140625 213.5625 C 279.132812 213.382812 279.125 213.210938 279.117188 213.039062 C 277.152344 213.109375 275.136719 213.335938 273.183594 213.5625 C 271.042969 213.808594 268.855469 214.058594 266.699219 214.109375 C 266.878906 207.882812 267.113281 201.664062 267.386719 195.460938 C 274.035156 195.371094 280.554688 194.609375 286.585938 193.722656 C 287.210938 193.628906 287.847656 193.53125 288.484375 193.429688 C 289.46875 199.300781 290.289062 205.1875 291.003906 211.050781 C 287.328125 211.71875 283.609375 212.140625 279.886719 212.316406 C 279.910156 212.488281 279.929688 212.660156 279.953125 212.839844 C 283.671875 212.660156 287.390625 212.238281 291.070312 211.574219 C 291.542969 215.441406 291.972656 219.304688 292.363281 223.140625 L 281.160156 223.121094 C 281.183594 223.292969 281.203125 223.46875 281.21875 223.644531 L 292.417969 223.667969 C 292.765625 227.050781 293.09375 230.417969 293.40625 233.761719 C 293.523438 235.035156 293.613281 236.304688 293.691406 237.570312 C 290.039062 237.542969 286.34375 237.5 282.675781 237.425781 C 282.691406 237.597656 282.710938 237.777344 282.726562 237.949219 C 286.390625 238.027344 290.078125 238.066406 293.722656 238.09375 C 293.941406 242.113281 293.953125 246.097656 293.824219 250.085938 C 293.066406 250.074219 292.308594 250.058594 291.5625 250.046875 C 289.128906 249.996094 286.210938 249.9375 283.710938 248.894531 C 283.726562 249.089844 283.746094 249.285156 283.757812 249.476562 C 286.289062 250.460938 289.152344 250.519531 291.550781 250.570312 C 292.292969 250.582031 293.050781 250.597656 293.804688 250.609375 C 293.566406 257.492188 292.929688 264.390625 292.273438 271.503906 L 292.136719 272.996094 C 292.125 273.109375 292.109375 273.238281 292.097656 273.351562 C 289.421875 272.4375 286.839844 271.265625 284.421875 269.832031 C 284.421875 270.03125 284.425781 270.234375 284.425781 270.433594 C 286.832031 271.832031 289.390625 272.988281 292.042969 273.882812 C 291.898438 275.25 291.703125 276.792969 291.496094 278.425781 C 290.988281 282.371094 290.382812 287.121094 290.230469 291.816406 C 289.59375 291.5625 288.964844 291.292969 288.347656 290.992188 C 287.246094 290.453125 286.238281 289.84375 285.316406 289.179688 C 285.347656 289.421875 285.382812 289.660156 285.421875 289.894531 C 286.253906 290.464844 287.152344 290.992188 288.113281 291.464844 C 288.804688 291.800781 289.507812 292.101562 290.214844 292.378906 C 290.148438 295.246094 290.257812 298.078125 290.675781 300.679688 C 290.882812 300.90625 291.097656 301.132812 291.320312 301.351562 C 290.808594 298.644531 290.667969 295.632812 290.734375 292.570312 C 295 294.136719 299.574219 294.671875 304.054688 294.828125 C 303.988281 298.488281 303.742188 302.121094 303.171875 305.664062 C 303.351562 305.636719 303.535156 305.605469 303.71875 305.566406 C 304.273438 302.058594 304.515625 298.464844 304.582031 294.84375 C 305.652344 294.875 306.722656 294.886719 307.777344 294.886719 C 309.015625 294.886719 310.234375 294.871094 311.433594 294.855469 L 311.433594 294.332031 C 309.21875 294.359375 306.917969 294.386719 304.589844 294.316406 C 304.644531 290.273438 304.503906 286.207031 304.355469 282.1875 C 304.285156 280.191406 304.210938 278.148438 304.164062 276.144531 C 304.800781 276.171875 305.433594 276.191406 306.070312 276.191406 C 307.863281 276.191406 309.65625 276.0625 311.433594 275.839844 L 311.433594 275.316406 C 309.027344 275.625 306.589844 275.730469 304.15625 275.621094 C 304.148438 275.230469 304.136719 274.839844 304.132812 274.453125 C 304.027344 267.097656 303.890625 258.941406 303.652344 250.511719 C 306.164062 250.375 308.6875 250.132812 311.183594 249.710938 C 311.171875 249.539062 311.160156 249.367188 311.152344 249.1875 C 308.667969 249.613281 306.144531 249.851562 303.636719 249.984375 C 303.519531 246.054688 303.382812 242.066406 303.214844 238.066406 C 305.898438 237.964844 308.679688 237.671875 311.332031 236.9375 C 311.34375 236.753906 311.347656 236.566406 311.355469 236.382812 C 308.699219 237.140625 305.898438 237.4375 303.191406 237.542969 C 303.132812 236.199219 303.074219 234.851562 303.011719 233.507812 C 302.851562 230.21875 302.660156 226.941406 302.441406 223.675781 C 304.738281 223.648438 307.0625 223.511719 309.289062 222.828125 C 310.023438 222.605469 310.730469 222.3125 311.433594 221.996094 L 311.433594 221.425781 C 310.679688 221.773438 309.917969 222.089844 309.136719 222.328125 C 306.964844 222.996094 304.675781 223.128906 302.410156 223.148438 C 302.089844 218.433594 301.703125 213.746094 301.277344 209.082031 C 304.746094 208.011719 308.136719 206.71875 311.433594 205.222656 L 311.433594 204.648438 " fill-opacity="1" fill-rule="nonzero"/><path fill="#28183b" d="M 261.191406 69.8125 C 262.234375 69.886719 263.414062 69.796875 264.660156 69.710938 C 269.839844 69.34375 276.121094 68.972656 278.074219 80.035156 C 278.527344 82.613281 277.476562 86.546875 280.207031 90.285156 C 282.6875 93.683594 292.941406 101.734375 287.15625 105.597656 C 277.933594 111.753906 254.308594 117.707031 243.6875 114.511719 C 240.890625 113.671875 240.324219 111.609375 243.320312 102.855469 C 244.121094 100.511719 247.339844 95.902344 246.183594 92.484375 C 244.730469 88.167969 240.910156 84.855469 245.4375 74.828125 C 247.28125 70.746094 251.398438 69.152344 261.191406 69.8125 " fill-opacity="1" fill-rule="nonzero"/><path fill="#f47155" d="M 267.234375 96.148438 L 267.679688 109.980469 L 255.238281 110.683594 L 255.238281 100.339844 L 267.234375 96.148438 " fill-opacity="1" fill-rule="nonzero"/><path fill="#28183b" d="M 252.65625 103.648438 L 255.238281 106.308594 C 255.238281 106.308594 261.191406 103.820312 262.875 100.132812 C 263.753906 98.214844 252.65625 103.648438 252.65625 103.648438 " fill-opacity="1" fill-rule="nonzero"/><path fill="#f47155" d="M 247.625 78.28125 C 247.625 78.28125 245.320312 89.859375 244.617188 94 C 243.910156 98.152344 245.101562 103.402344 251.414062 104.085938 C 256.203125 104.601562 262.816406 100.96875 267.234375 96.148438 L 269.832031 78.28125 L 247.625 78.28125 " fill-opacity="1" fill-rule="nonzero"/><path fill="#f47155" d="M 285.121094 104.703125 C 279.441406 102.414062 273.582031 102.074219 268.070312 102.785156 C 255.761719 104.367188 251.238281 108.550781 246.296875 112.203125 C 246.296875 112.203125 253.078125 117.660156 260.519531 116.539062 C 272.746094 114.699219 287.785156 105.78125 285.121094 104.703125 " fill-opacity="1" fill-rule="nonzero"/><path fill="#28183b" d="M 250.953125 95.636719 C 250.886719 95.636719 250.824219 95.613281 250.769531 95.558594 L 249.148438 93.984375 C 249.058594 93.898438 249.042969 93.765625 249.109375 93.660156 C 251.675781 89.566406 251.308594 87.507812 251.304688 87.488281 C 251.277344 87.347656 251.367188 87.210938 251.507812 87.179688 C 251.664062 87.152344 251.789062 87.242188 251.816406 87.382812 C 251.835938 87.46875 252.242188 89.574219 249.664062 93.753906 L 251.136719 95.1875 C 251.242188 95.289062 251.242188 95.453125 251.144531 95.558594 C 251.089844 95.609375 251.023438 95.636719 250.953125 95.636719 " fill-opacity="1" fill-rule="nonzero"/><path fill="#28183b" d="M 252.636719 98.046875 C 252.4375 98.046875 252.3125 98.03125 252.308594 98.027344 C 252.164062 98.007812 252.0625 97.878906 252.082031 97.734375 C 252.101562 97.589844 252.25 97.492188 252.378906 97.507812 C 252.46875 97.523438 254.542969 97.785156 255.128906 95.714844 C 255.164062 95.578125 255.308594 95.496094 255.449219 95.535156 C 255.589844 95.574219 255.671875 95.71875 255.632812 95.859375 C 255.074219 97.828125 253.363281 98.046875 252.636719 98.046875 " fill-opacity="1" fill-rule="nonzero"/><path fill="#28183b" d="M 248.464844 79.226562 C 247.375 80.960938 245.917969 87.003906 245.917969 87.003906 C 245.917969 87.003906 240.691406 75.171875 253.722656 74.164062 C 253.722656 74.164062 249.433594 77.679688 248.464844 79.226562 " fill-opacity="1" fill-rule="nonzero"/><path fill="#5fbbeb" d="M 246.296875 112.203125 C 246.296875 112.203125 242.042969 128.355469 247.148438 155.21875 C 247.148438 155.21875 249.363281 166.097656 247.917969 171.367188 C 247.917969 171.367188 243.898438 180.890625 261.191406 180.210938 C 261.191406 180.210938 312.207031 178.847656 305.222656 163.378906 C 305.222656 163.378906 297.21875 155.730469 297.558594 148.25 C 297.558594 148.25 295.679688 108.617188 285.121094 104.703125 C 285.121094 104.703125 267.132812 113.734375 246.296875 112.203125 " fill-opacity="1" fill-rule="nonzero"/><path fill="#5fbbeb" d="M 267.871094 156.066406 L 275.949219 179.085938 C 275.949219 179.085938 283.984375 179.230469 294.210938 176.808594 C 309.308594 173.242188 317.515625 170.914062 315.609375 153.859375 C 314.976562 148.175781 309.554688 141.449219 308.628906 136.515625 C 306.90625 127.363281 300.964844 108.582031 285.121094 104.703125 C 285.121094 104.703125 278.769531 117.988281 284.902344 134.761719 L 292.621094 148.621094 C 292.621094 148.621094 281.382812 152.667969 267.871094 156.066406 " fill-opacity="1" fill-rule="nonzero"/><path fill="#28183b" d="M 273.320312 157.542969 C 273.320312 157.542969 284.367188 174.394531 277.964844 179.050781 C 277.964844 179.050781 273.433594 179.984375 273.320312 170.917969 C 273.320312 170.917969 273.09375 164.003906 271.730469 160.035156 C 270.367188 156.066406 273.320312 157.542969 273.320312 157.542969 " fill-opacity="1" fill-rule="nonzero"/><path fill="#f47155" d="M 278.304688 167.207031 C 278.304688 167.207031 277.0625 164.027344 276.207031 162.496094 C 275.375 161.003906 274.507812 159.480469 274.507812 159.480469 L 262.734375 158.109375 L 262.734375 166.609375 L 278.304688 167.207031 " fill-opacity="1" fill-rule="nonzero"/><path fill="#28183b" d="M 264.351562 158.5625 C 265.332031 158.40625 267.792969 159.292969 269.128906 168.074219 C 269.726562 172.019531 273.734375 180.546875 269.265625 180.210938 C 265.515625 179.925781 246.566406 161.390625 264.351562 158.5625 " fill-opacity="1" fill-rule="nonzero"/><path fill="#ffffff" d="M 260.5 159.617188 C 260.5 159.617188 264.867188 148.910156 270.226562 147.324219 C 275.589844 145.738281 283.53125 146.730469 285.320312 147.324219 C 287.105469 147.921875 283.929688 142.371094 283.929688 139.59375 C 283.929688 136.820312 285.863281 138.601562 285.863281 138.601562 C 285.863281 138.601562 290.679688 137.078125 292.664062 138.039062 C 292.664062 138.039062 293.261719 135.828125 294.453125 136.023438 C 295.644531 136.226562 294.453125 147.417969 294.453125 147.417969 C 294.453125 147.417969 284.425781 157.4375 260.5 159.617188 " fill-opacity="1" fill-rule="nonzero"/><path fill="#f47155" d="M 255.417969 160.101562 C 255.417969 160.101562 255.8125 157.320312 256.425781 155.851562 C 257.039062 154.378906 262.511719 150.128906 263.265625 149.917969 C 265.085938 149.410156 265.175781 151.109375 265.175781 151.109375 C 265.175781 151.109375 265.824219 151.109375 266.109375 151.847656 C 266.339844 152.441406 265.878906 153.492188 265.878906 153.492188 C 265.878906 153.492188 266.417969 154.183594 265.96875 155.304688 C 265.515625 156.421875 262.746094 159.285156 262.746094 159.285156 L 255.417969 160.101562 " fill-opacity="1" fill-rule="nonzero"/><path fill="#f47155" d="M 268.273438 157.917969 C 268.273438 157.917969 271.816406 150.5 273.902344 150.398438 C 275.984375 150.300781 279.980469 150.464844 280.628906 150.84375 C 281.382812 151.277344 281.476562 151.699219 281.476562 151.699219 C 281.476562 151.699219 282.367188 151.839844 282.59375 152.394531 C 282.804688 152.910156 282.496094 153.308594 282.496094 153.308594 C 282.496094 153.308594 282.742188 153.882812 282.496094 154.5 C 282.25 155.117188 281.886719 155.117188 281.886719 155.117188 C 281.886719 155.117188 281.976562 156.238281 280.585938 156.542969 C 280.042969 156.664062 277.972656 156.875 277.972656 156.875 C 277.972656 156.875 276.152344 162.160156 273.570312 163.152344 C 270.988281 164.144531 260.433594 168.480469 260.433594 168.480469 L 262.746094 159.285156 L 268.273438 157.917969 " fill-opacity="1" fill-rule="nonzero"/><path fill="#5fbbeb" d="M 246.296875 112.203125 C 246.296875 112.203125 235.976562 119.457031 235.144531 134.222656 C 234.722656 141.695312 234.394531 154.734375 234.019531 156.429688 C 232.753906 162.132812 229.65625 178.832031 241.644531 179.53125 C 245.441406 179.753906 253.339844 182.589844 269.265625 180.210938 C 269.265625 180.210938 263.597656 178.394531 263.898438 166.269531 C 263.945312 164.339844 264.328125 158.894531 264.328125 158.894531 C 264.328125 158.894531 257.542969 159.785156 250.1875 160.125 L 246.296875 112.203125 " fill-opacity="1" fill-rule="nonzero"/><path fill="#ffffff" d="M 269.675781 116.617188 L 270.210938 116.492188 C 281.054688 114.046875 289.246094 111.753906 294.75 109.625 C 294.589844 109.492188 294.433594 109.355469 294.269531 109.226562 C 289.40625 111.085938 281.832031 113.335938 270.09375 115.984375 L 269.5625 116.105469 C 260.355469 118.191406 250.984375 118.667969 241.148438 117.519531 C 241.035156 117.675781 240.917969 117.835938 240.800781 118 C 244.402344 118.429688 247.945312 118.652344 251.4375 118.652344 C 257.640625 118.652344 263.691406 117.972656 269.675781 116.617188 " fill-opacity="1" fill-rule="nonzero"/><path fill="#ffffff" d="M 272.265625 129.878906 C 272.902344 129.722656 273.648438 129.539062 274.476562 129.339844 C 281.894531 127.5625 295.789062 124.222656 302.1875 118.664062 C 302.101562 118.511719 302.007812 118.367188 301.921875 118.21875 C 295.703125 123.703125 281.761719 127.054688 274.351562 128.832031 C 273.523438 129.03125 272.777344 129.210938 272.140625 129.367188 C 261.574219 132.003906 248.203125 132.042969 235.738281 129.640625 C 235.703125 129.8125 235.667969 129.976562 235.636719 130.148438 C 241.699219 131.320312 247.972656 131.925781 254.042969 131.925781 C 260.527344 131.925781 266.773438 131.246094 272.265625 129.878906 " fill-opacity="1" fill-rule="nonzero"/><path fill="#ffffff" d="M 273.183594 144.285156 L 274.117188 144.070312 C 284.210938 141.773438 298.589844 138.5 307.550781 131.851562 C 307.503906 131.671875 307.457031 131.492188 307.402344 131.308594 C 298.550781 137.972656 284.109375 141.257812 274.003906 143.558594 L 273.066406 143.773438 C 260.53125 146.628906 247.402344 147.457031 234.617188 146.226562 C 234.609375 146.398438 234.601562 146.574219 234.59375 146.746094 C 238.429688 147.113281 242.296875 147.304688 246.171875 147.304688 C 255.25 147.304688 264.367188 146.292969 273.183594 144.285156 " fill-opacity="1" fill-rule="nonzero"/><path fill="#28183b" d="M 272.265625 153.734375 C 272.199219 153.734375 272.136719 153.710938 272.082031 153.664062 C 271.976562 153.5625 271.972656 153.398438 272.070312 153.292969 C 272.121094 153.238281 273.367188 151.921875 275.402344 151.625 C 277.742188 151.28125 281.335938 151.429688 281.488281 151.4375 C 281.632812 151.441406 281.746094 151.566406 281.738281 151.710938 C 281.730469 151.851562 281.59375 151.972656 281.464844 151.960938 C 281.429688 151.960938 277.769531 151.808594 275.476562 152.144531 C 273.632812 152.414062 272.464844 153.636719 272.457031 153.652344 C 272.402344 153.707031 272.332031 153.734375 272.265625 153.734375 " fill-opacity="1" fill-rule="nonzero"/><path fill="#28183b" d="M 274.679688 157.125 C 274.609375 157.125 274.539062 157.09375 274.488281 157.039062 C 274.390625 156.929688 274.398438 156.761719 274.507812 156.664062 C 274.5625 156.617188 275.878906 155.460938 276.90625 155.097656 C 277.9375 154.738281 281.730469 154.851562 281.894531 154.855469 C 282.039062 154.859375 282.152344 154.980469 282.148438 155.125 C 282.140625 155.269531 282.03125 155.394531 281.875 155.378906 C 280.808594 155.347656 277.859375 155.324219 277.082031 155.59375 C 276.148438 155.921875 274.871094 157.046875 274.855469 157.058594 L 274.679688 157.125 " fill-opacity="1" fill-rule="nonzero"/><path fill="#28183b" d="M 259.605469 159.730469 L 259.554688 159.722656 C 259.414062 159.695312 259.320312 159.554688 259.351562 159.414062 C 259.359375 159.367188 259.589844 158.269531 260.027344 157.398438 C 260.761719 155.933594 262.90625 154.425781 263.820312 153.78125 L 264.027344 153.632812 C 264.972656 152.953125 265.917969 153.230469 265.957031 153.242188 C 266.097656 153.285156 266.171875 153.429688 266.132812 153.570312 C 266.089844 153.710938 265.949219 153.785156 265.808594 153.746094 C 265.769531 153.734375 265.058594 153.535156 264.332031 154.058594 L 264.121094 154.207031 C 263.238281 154.828125 261.171875 156.285156 260.5 157.632812 C 260.089844 158.441406 259.867188 159.507812 259.863281 159.523438 C 259.839844 159.644531 259.730469 159.730469 259.605469 159.730469 " fill-opacity="1" fill-rule="nonzero"/><path fill="#28183b" d="M 257.523438 160.179688 L 257.46875 160.175781 C 257.324219 160.144531 257.234375 160.003906 257.265625 159.863281 L 257.636719 158.136719 C 257.855469 157.089844 258.359375 156.121094 259.085938 155.335938 C 260.417969 153.90625 263.550781 151.117188 265.132812 150.851562 C 265.269531 150.824219 265.410156 150.925781 265.433594 151.066406 C 265.457031 151.207031 265.359375 151.34375 265.21875 151.371094 C 263.78125 151.613281 260.71875 154.351562 259.472656 155.695312 C 258.808594 156.410156 258.351562 157.292969 258.148438 158.246094 L 257.78125 159.972656 C 257.753906 160.09375 257.644531 160.179688 257.523438 160.179688 " fill-opacity="1" fill-rule="nonzero"/><path fill="#28183b" d="M 242.328125 161.820312 C 242.195312 161.820312 242.082031 161.722656 242.070312 161.589844 C 242.050781 161.445312 242.152344 161.316406 242.296875 161.300781 L 264.296875 158.632812 C 264.4375 158.617188 264.570312 158.71875 264.585938 158.863281 C 264.605469 159.007812 264.503906 159.136719 264.359375 159.15625 L 242.359375 161.816406 L 242.328125 161.820312 " fill-opacity="1" fill-rule="nonzero"/><path fill="#28183b" d="M 248.152344 161.167969 C 248.035156 161.167969 247.933594 161.089844 247.898438 160.976562 C 242.75 142.308594 244.335938 129.085938 244.351562 128.957031 C 244.367188 128.8125 244.503906 128.710938 244.644531 128.726562 C 244.785156 128.746094 244.890625 128.878906 244.871094 129.023438 C 244.855469 129.152344 243.285156 142.28125 248.40625 160.835938 C 248.445312 160.976562 248.363281 161.117188 248.222656 161.160156 L 248.152344 161.167969 " fill-opacity="1" fill-rule="nonzero"/><path fill="#28183b" d="M 244.503906 139.589844 C 244.425781 139.589844 244.347656 139.554688 244.292969 139.484375 C 242.578125 137.140625 242.085938 132.996094 242.066406 132.816406 C 242.050781 132.675781 242.152344 132.542969 242.296875 132.527344 C 242.449219 132.515625 242.570312 132.617188 242.589844 132.761719 C 242.59375 132.800781 243.085938 136.941406 244.71875 139.171875 C 244.804688 139.289062 244.777344 139.453125 244.660156 139.539062 L 244.503906 139.589844 " fill-opacity="1" fill-rule="nonzero"/><path fill="#28183b" d="M 287.105469 152.808594 C 287.007812 152.808594 286.914062 152.753906 286.867188 152.65625 C 286.808594 152.527344 286.863281 152.371094 286.992188 152.308594 C 292.183594 149.847656 298.890625 142.53125 298.957031 142.457031 C 299.058594 142.351562 299.222656 142.34375 299.332031 142.441406 C 299.4375 142.535156 299.445312 142.703125 299.347656 142.808594 C 299.070312 143.113281 292.5 150.277344 287.21875 152.785156 L 287.105469 152.808594 " fill-opacity="1" fill-rule="nonzero"/><path fill="#28183b" d="M 286.601562 138.421875 C 286.5 138.421875 286.402344 138.363281 286.363281 138.261719 C 286.339844 138.214844 284.355469 133.460938 282.78125 127.371094 C 282.742188 127.226562 282.828125 127.085938 282.972656 127.050781 C 283.113281 127.011719 283.253906 127.097656 283.289062 127.238281 C 284.855469 133.292969 286.824219 138.011719 286.847656 138.058594 C 286.902344 138.191406 286.835938 138.347656 286.703125 138.402344 L 286.601562 138.421875 " fill-opacity="1" fill-rule="nonzero"/><path fill="#5fbbeb" d="M 285.136719 203.328125 L 285.121094 203.328125 L 270.929688 202.421875 C 270.785156 202.410156 270.675781 202.289062 270.683594 202.144531 C 270.691406 202 270.796875 201.890625 270.960938 201.898438 L 285.152344 202.804688 C 285.296875 202.816406 285.40625 202.9375 285.398438 203.082031 C 285.390625 203.222656 285.273438 203.328125 285.136719 203.328125 " fill-opacity="1" fill-rule="nonzero"/><path fill="#ffffff" d="M 256.96875 316.03125 C 256.859375 316.03125 256.757812 315.960938 256.722656 315.851562 C 255.460938 312.039062 253.488281 309.460938 250.859375 308.1875 C 247.382812 306.507812 243.925781 307.726562 243.894531 307.738281 C 243.757812 307.789062 243.605469 307.71875 243.554688 307.582031 C 243.503906 307.445312 243.574219 307.296875 243.710938 307.246094 C 243.859375 307.191406 247.398438 305.933594 251.078125 307.710938 C 253.847656 309.050781 255.914062 311.734375 257.21875 315.6875 C 257.265625 315.824219 257.191406 315.96875 257.050781 316.015625 L 256.96875 316.03125 " fill-opacity="1" fill-rule="nonzero"/><path fill="#ffffff" d="M 268.097656 313.875 C 267.96875 313.875 267.855469 313.78125 267.835938 313.648438 C 266.800781 305.484375 274.402344 302.628906 274.480469 302.601562 C 274.613281 302.554688 274.765625 302.621094 274.816406 302.757812 C 274.863281 302.890625 274.796875 303.042969 274.660156 303.09375 C 274.363281 303.199219 267.375 305.839844 268.359375 313.582031 C 268.378906 313.726562 268.273438 313.855469 268.132812 313.875 L 268.097656 313.875 " fill-opacity="1" fill-rule="nonzero"/><path fill="#ffffff" d="M 306.246094 336.429688 C 306.101562 336.429688 305.988281 336.320312 305.980469 336.175781 C 305.980469 336.113281 305.855469 329.738281 311.324219 327.3125 C 311.460938 327.257812 311.613281 327.316406 311.671875 327.449219 C 311.730469 327.582031 311.671875 327.734375 311.539062 327.796875 C 306.394531 330.074219 306.503906 336.101562 306.507812 336.164062 C 306.511719 336.308594 306.398438 336.429688 306.253906 336.429688 L 306.246094 336.429688 " fill-opacity="1" fill-rule="nonzero"/><path fill="#5fbbeb" d="M 273.886719 206.398438 C 273.804688 206.398438 273.726562 206.363281 273.675781 206.292969 C 273.589844 206.175781 273.613281 206.011719 273.734375 205.925781 L 278.503906 202.441406 C 278.59375 202.371094 278.722656 202.371094 278.816406 202.445312 L 282.816406 205.503906 C 282.933594 205.59375 282.953125 205.753906 282.867188 205.871094 C 282.777344 205.988281 282.613281 206.007812 282.496094 205.917969 L 278.652344 202.980469 L 274.042969 206.347656 L 273.886719 206.398438 " fill-opacity="1" fill-rule="nonzero"/><path fill="#5fbbeb" d="M 271.84375 188.222656 L 271.90625 188.230469 C 271.871094 188.214844 272.921875 187.800781 273.539062 180.664062 C 272.21875 182.792969 270.191406 186.566406 270.886719 187.820312 C 271.042969 188.105469 271.355469 188.234375 271.835938 188.222656 Z M 271.863281 188.75 L 271.832031 188.746094 C 271.128906 188.753906 270.679688 188.535156 270.425781 188.074219 C 269.320312 186.074219 273.222656 180.164062 273.667969 179.5 C 273.734375 179.398438 273.859375 179.359375 273.972656 179.394531 C 274.085938 179.433594 274.160156 179.546875 274.148438 179.664062 C 273.761719 184.882812 273.085938 187.984375 272.195312 188.625 C 272.058594 188.722656 271.941406 188.75 271.863281 188.75 " fill-opacity="1" fill-rule="nonzero"/><path fill="#5fbbeb" d="M 274.253906 180.453125 C 274.589844 182.871094 275.503906 187.109375 277.058594 187.109375 L 277.0625 187.109375 C 277.074219 187.109375 277.527344 187.078125 277.699219 186.664062 C 277.941406 186.089844 277.785156 184.523438 274.253906 180.453125 Z M 277.066406 187.632812 C 274.515625 187.632812 273.710938 180.488281 273.625 179.671875 C 273.613281 179.554688 273.679688 179.449219 273.78125 179.402344 C 273.886719 179.355469 274.007812 179.382812 274.082031 179.46875 C 277.34375 183.105469 278.722656 185.597656 278.183594 186.875 C 277.875 187.59375 277.109375 187.632812 277.078125 187.632812 L 277.066406 187.632812 " fill-opacity="1" fill-rule="nonzero"/><path fill="#5fbbeb" d="M 273.320312 195.546875 L 273.238281 195.535156 C 273.101562 195.488281 273.023438 195.34375 273.070312 195.203125 C 274.402344 191.105469 273.632812 179.773438 273.625 179.664062 C 273.613281 179.519531 273.722656 179.394531 273.867188 179.382812 C 274.03125 179.378906 274.136719 179.476562 274.148438 179.617188 C 274.160156 179.730469 275.179688 190.816406 276.390625 193.121094 C 276.460938 193.25 276.40625 193.410156 276.277344 193.476562 C 276.148438 193.542969 275.992188 193.496094 275.925781 193.367188 C 275.328125 192.226562 274.789062 189.1875 274.382812 186.257812 C 274.398438 189.570312 274.242188 193.304688 273.566406 195.363281 C 273.53125 195.476562 273.429688 195.546875 273.320312 195.546875 " fill-opacity="1" fill-rule="nonzero"/><path fill="#28183b" d="M 249.296875 76.078125 C 247.4375 77.757812 244.804688 82.464844 256.574219 82.964844 C 258.074219 83.027344 261.738281 83.550781 261.191406 86.789062 C 261.019531 87.816406 260.695312 90.007812 263.1875 90.441406 C 264.28125 90.628906 267.414062 91.792969 267.414062 91.792969 C 267.414062 91.792969 267.542969 95.105469 267.234375 96.148438 C 265.980469 100.394531 256.644531 114.117188 266.117188 113.820312 C 269.109375 113.726562 272.652344 111.820312 275.25 106.085938 C 276.230469 103.921875 278.785156 102.726562 281.894531 103.613281 C 281.894531 103.613281 273.484375 94.699219 273.714844 85.257812 C 273.878906 78.746094 269.707031 57.664062 249.296875 76.078125 " fill-opacity="1" fill-rule="nonzero"/><path fill="#f47155" d="M 263.1875 90.441406 C 263.1875 90.441406 264.59375 86.921875 268.449219 87.796875 C 269.695312 88.078125 271.222656 89.066406 271.058594 92.183594 C 270.988281 93.558594 270.3125 95.007812 267.234375 96.148438 L 263.1875 90.441406 " fill-opacity="1" fill-rule="nonzero"/><path fill="#28183b" d="M 268.160156 92.519531 L 266.117188 92.519531 C 266.027344 92.519531 265.9375 92.46875 265.890625 92.386719 C 265.84375 92.308594 265.84375 92.207031 265.890625 92.125 L 267.488281 89.347656 C 267.5625 89.222656 267.722656 89.175781 267.847656 89.246094 C 267.972656 89.320312 268.015625 89.480469 267.945312 89.605469 L 266.574219 91.996094 L 268.160156 91.996094 C 268.304688 91.996094 268.425781 92.113281 268.425781 92.257812 C 268.425781 92.402344 268.304688 92.519531 268.160156 92.519531 " fill-opacity="1" fill-rule="nonzero"/><path fill="#28183b" d="M 153.414062 125.925781 C 158.058594 133.34375 148.074219 158.261719 142.160156 149.382812 C 138.558594 143.96875 149.160156 119.121094 153.414062 125.925781 " fill-opacity="1" fill-rule="nonzero"/><path fill="#f47155" d="M 141.222656 110.84375 C 141.222656 110.84375 154.425781 128.503906 155.867188 128.472656 C 157.621094 128.429688 171.398438 110.027344 171.398438 110.027344 L 182.230469 115.773438 C 182.230469 115.773438 168.984375 147.117188 161.035156 151.242188 C 153.742188 155.035156 139.789062 143.515625 133.574219 138.136719 L 141.222656 110.84375 " fill-opacity="1" fill-rule="nonzero"/><path fill="#ffffff" d="M 122.710938 98.308594 C 128.324219 99.964844 138.074219 104.382812 153.414062 125.925781 C 153.414062 125.925781 140.96875 134.484375 142.160156 149.382812 C 142.160156 149.382812 94.382812 89.941406 122.710938 98.308594 " fill-opacity="1" fill-rule="nonzero"/><path fill="#28183b" d="M 115.804688 295.992188 C 111.554688 297.53125 109.765625 302.285156 114.050781 303.867188 C 119.882812 306.019531 141.421875 306.199219 147.058594 304.152344 C 149.398438 303.300781 150.023438 300.6875 144.367188 299.644531 C 136.777344 298.25 123.765625 293.097656 115.804688 295.992188 " fill-opacity="1" fill-rule="nonzero"/><path fill="#28183b" d="M 88.429688 301.65625 C 86.058594 300.027344 78.398438 299.210938 80.996094 309.703125 C 82.519531 315.871094 89.027344 330.046875 94.449219 330.558594 C 98.898438 330.976562 100.523438 324.949219 96.589844 312.839844 C 95.523438 309.550781 91.289062 303.613281 88.429688 301.65625 " fill-opacity="1" fill-rule="nonzero"/><path fill="#f47155" d="M 83.378906 307.675781 C 84.597656 313.210938 93.078125 328.6875 96.308594 326.320312 C 99.542969 323.953125 95.636719 309.195312 95.015625 303.519531 C 94.757812 301.164062 95.015625 294.050781 95.015625 294.050781 L 83.378906 294.265625 C 83.378906 294.265625 82.660156 304.402344 83.378906 307.675781 " fill-opacity="1" fill-rule="nonzero"/><path fill="#f47155" d="M 125.398438 294.050781 L 125.398438 291.683594 L 113.097656 266.664062 C 113.097656 266.664062 112.148438 299.007812 114.050781 300.6875 C 116.160156 302.546875 147.378906 303.519531 147.058594 301.367188 C 146.738281 299.214844 125.398438 294.050781 125.398438 294.050781 " fill-opacity="1" fill-rule="nonzero"/><path fill="#ffffff" d="M 122.710938 98.308594 C 119.578125 97.542969 114.035156 97.179688 109.804688 97.617188 C 83.722656 100.304688 89.242188 144.566406 87.382812 170.96875 L 142.28125 178.847656 C 143.398438 158.699219 143.140625 103.277344 122.710938 98.308594 " fill-opacity="1" fill-rule="nonzero"/><path fill="#f47155" d="M 104.609375 127.871094 C 105.753906 122.816406 103.394531 101.496094 93.484375 110.042969 C 85.292969 117.109375 75.023438 147.703125 76.390625 157.726562 L 98.050781 152.316406 C 98.050781 152.316406 103.222656 134.007812 104.609375 127.871094 " fill-opacity="1" fill-rule="nonzero"/><path fill="#ffffff" d="M 105.757812 98.5 C 105.757812 98.5 94.222656 101.238281 87.695312 113.28125 C 83.878906 120.324219 81.902344 127.390625 76.683594 145.699219 C 76.683594 145.699219 82.28125 147.875 88.714844 147.570312 C 98.25 147.117188 101.660156 144.734375 101.660156 144.734375 C 101.660156 144.734375 115.09375 117.125 105.757812 98.5 " fill-opacity="1" fill-rule="nonzero"/><path fill="#28183b" d="M 87.382812 170.96875 C 87.382812 170.96875 83.90625 193.339844 81.480469 235.964844 L 78.207031 294.050781 C 78.207031 294.050781 84.890625 296.960938 99.160156 294.265625 L 112.253906 203.699219 L 112.253906 292.078125 C 112.253906 292.078125 120.6875 294.582031 130.785156 290.609375 L 142.132812 170.96875 L 87.382812 170.96875 " fill-opacity="1" fill-rule="nonzero"/><path fill="#5fbbeb" d="M 101.789062 99.992188 C 101.789062 99.992188 109.503906 106.128906 108.355469 129.773438 C 105.9375 179.492188 85.539062 174.085938 85.539062 174.085938 L 85.003906 181.867188 C 85.003906 181.867188 96.265625 177.585938 93.707031 213.597656 C 92.324219 233.070312 92.433594 248.894531 92.433594 248.894531 L 144.578125 246.621094 C 144.578125 246.621094 143.664062 156.175781 143.089844 142.121094 C 142.542969 128.789062 139.097656 106.933594 128.582031 100.6875 C 126.851562 99.660156 125.011719 99.085938 125.011719 99.085938 C 125.011719 99.085938 131.972656 104.851562 133.480469 112.492188 L 112.683594 113.046875 C 112.683594 113.046875 111.4375 103.855469 105.605469 98.480469 C 105.605469 98.480469 104.835938 98.683594 103.871094 99.070312 C 103.15625 99.355469 101.789062 99.992188 101.789062 99.992188 " fill-opacity="1" fill-rule="nonzero"/><path fill="#28183b" d="M 142.28125 181.015625 C 142.171875 181.015625 142.070312 180.949219 142.03125 180.839844 L 136.140625 163.484375 C 136.09375 163.347656 136.167969 163.199219 136.304688 163.152344 C 136.445312 163.105469 136.589844 163.179688 136.636719 163.316406 L 142.527344 180.671875 C 142.574219 180.808594 142.5 180.957031 142.363281 181.003906 L 142.28125 181.015625 " fill-opacity="1" fill-rule="nonzero"/><path fill="#8ad8dc" d="M 116.214844 125.976562 C 116.214844 125.976562 116.800781 138.871094 118.347656 143.910156 C 120.304688 150.285156 132.796875 149.148438 134.347656 143.230469 C 136.058594 136.6875 134.347656 125.207031 134.347656 125.207031 L 116.214844 125.976562 " fill-opacity="1" fill-rule="nonzero"/><path fill="#28183b" d="M 96.589844 312.839844 C 96.589844 312.839844 93.085938 308.628906 86.613281 315.652344 C 86.613281 315.652344 89.714844 328.832031 96.589844 327.839844 C 100.308594 327.300781 97.96875 317.070312 96.589844 312.839844 " fill-opacity="1" fill-rule="nonzero"/><path fill="#28183b" d="M 130.578125 303.164062 C 128.546875 302.402344 131.175781 295.191406 134.074219 295.222656 C 137.59375 295.265625 148.75 297.945312 148.75 302.140625 C 148.75 302.140625 136.199219 305.253906 130.578125 303.164062 " fill-opacity="1" fill-rule="nonzero"/><path fill="#f47155" d="M 131.507812 71.371094 C 131.507812 71.371094 133.0625 79.160156 133.800781 83.480469 C 134.535156 87.816406 133.292969 93.296875 126.703125 94.007812 C 121.703125 94.554688 114.804688 90.757812 110.1875 85.730469 L 107.476562 67.074219 L 131.507812 71.371094 " fill-opacity="1" fill-rule="nonzero"/><path fill="#28183b" d="M 114.414062 79.769531 L 115.679688 71.65625 L 131.507812 71.371094 C 131.507812 71.371094 131.050781 61.710938 119.65625 61.199219 C 105.140625 60.550781 95.871094 76.859375 110.042969 90.203125 L 110.1875 85.730469 L 111.351562 81.664062 L 114.414062 79.769531 " fill-opacity="1" fill-rule="nonzero"/><path fill="#f47155" d="M 110.1875 85.730469 L 109.722656 97.617188 L 122.710938 98.308594 L 122.710938 90.101562 L 110.1875 85.730469 " fill-opacity="1" fill-rule="nonzero"/><path fill="#f47155" d="M 114.414062 79.769531 C 114.414062 79.769531 112.941406 76.09375 108.921875 77.003906 C 107.621094 77.300781 106.023438 78.332031 106.195312 81.585938 C 106.273438 83.019531 106.976562 84.53125 110.1875 85.730469 L 114.414062 79.769531 " fill-opacity="1" fill-rule="nonzero"/><path fill="#28183b" d="M 111.351562 81.925781 L 109.222656 81.925781 C 109.074219 81.925781 108.957031 81.808594 108.957031 81.664062 C 108.957031 81.519531 109.074219 81.402344 109.222656 81.402344 L 110.898438 81.402344 L 109.457031 78.890625 C 109.386719 78.765625 109.429688 78.605469 109.554688 78.535156 C 109.679688 78.460938 109.839844 78.503906 109.914062 78.628906 L 111.582031 81.535156 C 111.628906 81.613281 111.628906 81.714844 111.578125 81.792969 C 111.53125 81.875 111.445312 81.925781 111.351562 81.925781 " fill-opacity="1" fill-rule="nonzero"/><path fill="#f47155" d="M 98.050781 152.316406 L 85.59375 149.382812 L 76.390625 157.726562 C 76.496094 158.488281 76.664062 159.132812 76.910156 159.640625 C 78.882812 163.710938 103.503906 179.617188 103.503906 179.617188 L 112.871094 164.5 L 98.050781 152.316406 " fill-opacity="1" fill-rule="nonzero"/><path fill="#28183b" d="M 102.191406 182.128906 L 102.054688 182.089844 C 101.929688 182.011719 101.890625 181.851562 101.96875 181.730469 L 113.925781 162.261719 C 114.003906 162.136719 114.164062 162.097656 114.289062 162.171875 C 114.410156 162.25 114.449219 162.410156 114.375 162.535156 L 102.417969 182.003906 C 102.367188 182.085938 102.28125 182.128906 102.191406 182.128906 " fill-opacity="1" fill-rule="nonzero"/><path fill="#28183b" d="M 120.96875 76.914062 C 120.898438 76.914062 120.828125 76.886719 120.777344 76.832031 C 120.675781 76.726562 120.683594 76.5625 120.785156 76.460938 C 121.824219 75.476562 123.21875 75.84375 123.8125 76.175781 C 123.9375 76.246094 123.984375 76.40625 123.914062 76.53125 C 123.839844 76.65625 123.683594 76.703125 123.558594 76.632812 C 123.5 76.601562 122.160156 75.878906 121.148438 76.84375 C 121.097656 76.886719 121.03125 76.914062 120.96875 76.914062 " fill-opacity="1" fill-rule="nonzero"/><path fill="#28183b" d="M 127.269531 82.746094 C 127.199219 82.746094 127.132812 82.722656 127.078125 82.671875 C 126.976562 82.5625 126.980469 82.402344 127.085938 82.300781 L 128.554688 80.867188 C 125.980469 76.6875 126.386719 74.582031 126.402344 74.496094 C 126.433594 74.355469 126.574219 74.261719 126.714844 74.292969 C 126.855469 74.324219 126.949219 74.460938 126.917969 74.601562 C 126.914062 74.628906 126.550781 76.6875 129.113281 80.769531 C 129.179688 80.878906 129.164062 81.011719 129.074219 81.097656 L 127.453125 82.671875 C 127.398438 82.726562 127.332031 82.746094 127.269531 82.746094 " fill-opacity="1" fill-rule="nonzero"/><path fill="#28183b" d="M 125.726562 86.84375 C 125 86.84375 123.285156 86.628906 122.730469 84.65625 C 122.691406 84.515625 122.773438 84.367188 122.910156 84.332031 C 123.054688 84.292969 123.195312 84.371094 123.238281 84.515625 C 123.820312 86.582031 125.890625 86.320312 125.984375 86.308594 C 126.113281 86.292969 126.257812 86.386719 126.277344 86.53125 C 126.296875 86.671875 126.199219 86.808594 126.054688 86.828125 C 126.050781 86.828125 125.925781 86.84375 125.726562 86.84375 " fill-opacity="1" fill-rule="nonzero"/><path fill="#28183b" d="M 128.628906 76.851562 C 128.554688 76.851562 128.480469 76.820312 128.429688 76.761719 C 128.335938 76.652344 128.347656 76.484375 128.457031 76.390625 C 129.414062 75.566406 130.457031 76.007812 130.875 76.355469 C 130.988281 76.445312 131 76.613281 130.910156 76.722656 C 130.816406 76.832031 130.652344 76.851562 130.542969 76.757812 C 130.507812 76.730469 129.65625 76.054688 128.800781 76.789062 L 128.628906 76.851562 " fill-opacity="1" fill-rule="nonzero"/><path fill="#28183b" d="M 120.3125 73.109375 C 120.246094 73.109375 120.179688 73.085938 120.128906 73.035156 C 120.023438 72.933594 120.019531 72.769531 120.121094 72.664062 C 121.222656 71.519531 122.746094 71.980469 123.394531 72.390625 C 123.519531 72.464844 123.558594 72.625 123.480469 72.75 C 123.402344 72.871094 123.242188 72.910156 123.121094 72.832031 C 123.054688 72.796875 121.578125 71.90625 120.5 73.027344 C 120.449219 73.082031 120.378906 73.109375 120.3125 73.109375 " fill-opacity="1" fill-rule="nonzero"/><path fill="#28183b" d="M 130.410156 72.789062 L 130.238281 72.722656 C 130.195312 72.683594 129.140625 71.789062 128.34375 72.644531 C 128.246094 72.75 128.082031 72.753906 127.972656 72.65625 C 127.871094 72.554688 127.863281 72.390625 127.960938 72.285156 C 128.871094 71.308594 130.074219 71.882812 130.582031 72.328125 C 130.691406 72.421875 130.703125 72.589844 130.609375 72.699219 C 130.558594 72.757812 130.484375 72.789062 130.410156 72.789062 " fill-opacity="1" fill-rule="nonzero"/><path fill="#28183b" d="M 257.824219 70.941406 C 257.824219 70.941406 254.207031 60.777344 264.570312 62.070312 C 267.148438 62.386719 275.675781 66.457031 268.234375 71.761719 L 257.824219 70.941406 " fill-opacity="1" fill-rule="nonzero"/><path fill="#28183b" d="M 287.738281 142.070312 C 287.738281 142.367188 287.613281 142.609375 287.457031 142.609375 C 287.296875 142.609375 287.171875 142.367188 287.171875 142.070312 C 287.171875 141.773438 287.296875 141.53125 287.457031 141.53125 C 287.613281 141.53125 287.738281 141.773438 287.738281 142.070312 " fill-opacity="1" fill-rule="nonzero"/><path fill="#28183b" d="M 291.796875 141.53125 C 291.796875 141.828125 291.671875 142.070312 291.515625 142.070312 C 291.355469 142.070312 291.230469 141.828125 291.230469 141.53125 C 291.230469 141.234375 291.355469 140.996094 291.515625 140.996094 C 291.671875 140.996094 291.796875 141.234375 291.796875 141.53125 " fill-opacity="1" fill-rule="nonzero"/><path fill="#28183b" d="M 288.703125 143.089844 C 288.84375 142.722656 289.992188 142.578125 290.265625 142.863281 C 290.511719 143.125 290 144.121094 289.640625 144.167969 C 289.285156 144.214844 288.578125 143.425781 288.703125 143.089844 " fill-opacity="1" fill-rule="nonzero"/><path fill="#28183b" d="M 289.054688 145.285156 C 288.914062 145.285156 288.761719 145.257812 288.59375 145.191406 C 288.460938 145.140625 288.390625 144.988281 288.441406 144.851562 C 288.496094 144.71875 288.652344 144.648438 288.78125 144.703125 C 288.914062 144.753906 289.089844 144.796875 289.199219 144.722656 C 289.34375 144.621094 289.382812 144.308594 289.378906 144.175781 C 289.371094 144.035156 289.480469 143.917969 289.617188 143.90625 C 289.78125 143.898438 289.882812 143.996094 289.902344 144.136719 C 289.917969 144.261719 289.996094 144.542969 290.148438 144.609375 C 290.269531 144.660156 290.464844 144.589844 290.703125 144.414062 C 290.824219 144.328125 290.988281 144.351562 291.070312 144.46875 C 291.160156 144.585938 291.132812 144.75 291.015625 144.835938 C 290.605469 145.140625 290.242188 145.222656 289.9375 145.089844 C 289.847656 145.050781 289.773438 144.996094 289.707031 144.933594 C 289.65625 145.011719 289.589844 145.085938 289.503906 145.148438 C 289.371094 145.238281 289.222656 145.285156 289.054688 145.285156 " fill-opacity="1" fill-rule="nonzero"/><path fill="#28183b" d="M 250.511719 85.4375 C 250.4375 85.4375 250.363281 85.402344 250.3125 85.339844 C 249.292969 84.097656 248.023438 84.5625 248.011719 84.570312 C 247.878906 84.621094 247.722656 84.550781 247.671875 84.414062 C 247.621094 84.28125 247.6875 84.128906 247.824219 84.078125 C 247.839844 84.070312 249.460938 83.476562 250.714844 85.007812 C 250.808594 85.121094 250.792969 85.285156 250.679688 85.375 L 250.511719 85.4375 " fill-opacity="1" fill-rule="nonzero"/><path fill="#28183b" d="M 257.835938 84.957031 L 257.691406 84.914062 C 256.148438 83.863281 254.371094 84.910156 254.351562 84.921875 C 254.230469 84.996094 254.070312 84.953125 253.996094 84.832031 C 253.917969 84.707031 253.960938 84.546875 254.082031 84.46875 C 254.167969 84.421875 256.167969 83.238281 257.984375 84.476562 C 258.105469 84.558594 258.136719 84.722656 258.054688 84.839844 C 258.003906 84.917969 257.917969 84.957031 257.835938 84.957031 " fill-opacity="1" fill-rule="nonzero"/><path fill="#5fbbeb" d="M 265.808594 70.128906 C 263.226562 70.128906 260.636719 69.984375 258.082031 69.695312 C 257.9375 69.679688 257.835938 69.550781 257.847656 69.40625 C 257.867188 69.261719 257.988281 69.160156 258.140625 69.175781 C 259.339844 69.3125 260.546875 69.414062 261.757812 69.488281 C 261.441406 69.199219 261.210938 68.789062 261.105469 68.304688 C 260.984375 67.765625 261.019531 67.21875 261.054688 66.6875 C 261.066406 66.542969 261.1875 66.429688 261.335938 66.445312 C 261.480469 66.453125 261.589844 66.578125 261.578125 66.722656 C 261.546875 67.214844 261.511719 67.722656 261.617188 68.191406 C 261.726562 68.683594 261.988281 69.070312 262.332031 69.261719 C 262.484375 69.335938 262.628906 69.410156 262.726562 69.535156 C 263.378906 69.566406 264.027344 69.585938 264.683594 69.597656 C 264.617188 69.488281 264.640625 69.347656 264.742188 69.261719 C 265.296875 68.796875 265.871094 68.316406 266.257812 67.710938 C 266.722656 66.980469 266.894531 66.074219 266.726562 65.226562 C 266.699219 65.085938 266.792969 64.945312 266.933594 64.917969 C 267.074219 64.890625 267.210938 64.980469 267.238281 65.125 C 267.433594 66.105469 267.238281 67.148438 266.699219 67.992188 C 266.289062 68.636719 265.714844 69.132812 265.152344 69.601562 C 266.507812 69.613281 267.867188 69.585938 269.21875 69.519531 C 269.371094 69.511719 269.484375 69.621094 269.492188 69.769531 C 269.5 69.914062 269.390625 70.035156 269.246094 70.042969 C 268.101562 70.101562 266.957031 70.128906 265.808594 70.128906 M 247.703125 80.152344 C 247.625 80.152344 247.546875 80.117188 247.496094 80.046875 C 245.84375 77.800781 247.484375 74.964844 248.992188 73.609375 C 249.101562 73.511719 249.265625 73.523438 249.363281 73.628906 C 249.460938 73.738281 249.453125 73.902344 249.347656 74 C 248.398438 74.847656 246.304688 77.539062 247.917969 79.738281 C 248.003906 79.851562 247.976562 80.015625 247.859375 80.105469 L 247.703125 80.152344 M 263.617188 87.191406 C 263.480469 87.191406 263.371094 87.089844 263.355469 86.957031 C 263.296875 86.414062 263.316406 85.855469 263.339844 85.316406 C 263.382812 84.347656 263.417969 83.433594 263.007812 82.636719 C 262.851562 82.335938 262.632812 82.046875 262.289062 81.695312 C 261.207031 80.585938 259.847656 79.785156 258.355469 79.375 C 258.15625 79.320312 257.957031 79.273438 257.753906 79.222656 C 256.808594 78.992188 255.832031 78.753906 255.183594 78 C 254.328125 77.015625 254.425781 75.589844 254.582031 74.328125 C 254.601562 74.183594 254.71875 74.085938 254.878906 74.101562 C 255.019531 74.121094 255.121094 74.25 255.105469 74.394531 C 254.953125 75.59375 254.867188 76.835938 255.578125 77.65625 C 256.121094 78.285156 257.015625 78.5 257.875 78.710938 C 258.082031 78.765625 258.292969 78.8125 258.492188 78.871094 C 260.074219 79.304688 261.519531 80.15625 262.664062 81.328125 C 263.042969 81.71875 263.296875 82.046875 263.476562 82.398438 C 263.945312 83.316406 263.90625 84.34375 263.863281 85.339844 C 263.84375 85.855469 263.820312 86.394531 263.875 86.898438 C 263.890625 87.042969 263.789062 87.171875 263.644531 87.1875 L 263.617188 87.191406 M 270.292969 88.726562 L 270.277344 88.726562 C 270.128906 88.71875 270.019531 88.59375 270.03125 88.449219 C 270.15625 86.171875 270.285156 83.820312 269.910156 81.539062 C 269.621094 79.777344 268.871094 77.304688 266.964844 75.535156 C 266.855469 75.4375 266.851562 75.273438 266.949219 75.164062 C 267.046875 75.058594 267.214844 75.054688 267.320312 75.152344 C 269.335938 77.019531 270.121094 79.609375 270.429688 81.457031 C 270.8125 83.792969 270.683594 86.171875 270.550781 88.476562 C 270.546875 88.621094 270.429688 88.726562 270.292969 88.726562 M 282.847656 102.246094 C 282.753906 102.246094 282.664062 102.199219 282.617188 102.109375 C 281.945312 100.902344 280.960938 99.949219 279.914062 98.941406 C 279.183594 98.234375 278.425781 97.507812 277.796875 96.683594 C 276.40625 94.867188 275.539062 92.488281 275.222656 89.621094 C 275.207031 89.476562 275.308594 89.347656 275.457031 89.328125 C 275.601562 89.3125 275.730469 89.417969 275.746094 89.5625 C 276.050781 92.335938 276.878906 94.625 278.210938 96.367188 C 278.820312 97.15625 279.5625 97.871094 280.28125 98.566406 C 281.308594 99.554688 282.367188 100.578125 283.078125 101.855469 C 283.148438 101.984375 283.101562 102.144531 282.972656 102.214844 L 282.847656 102.246094 M 268.25 110.011719 L 268.082031 110.007812 C 267.90625 109.996094 267.679688 109.96875 267.496094 109.820312 C 267.269531 109.636719 267.203125 109.355469 267.167969 109.132812 C 266.949219 107.710938 267.339844 106.125 268.324219 104.421875 C 268.722656 103.726562 269.183594 103.0625 269.628906 102.421875 C 270.074219 101.777344 270.535156 101.109375 270.925781 100.421875 C 271.84375 98.820312 272.199219 97.347656 271.992188 96.050781 C 271.964844 95.90625 272.0625 95.769531 272.207031 95.75 C 272.355469 95.722656 272.484375 95.824219 272.507812 95.964844 C 272.738281 97.386719 272.363281 98.972656 271.382812 100.683594 C 270.976562 101.390625 270.511719 102.066406 270.058594 102.71875 C 269.621094 103.351562 269.167969 104.007812 268.78125 104.683594 C 267.855469 106.28125 267.488281 107.753906 267.6875 109.054688 C 267.707031 109.183594 267.742188 109.34375 267.824219 109.410156 C 267.894531 109.464844 268.023438 109.480469 268.113281 109.484375 C 268.617188 109.515625 269.128906 109.378906 269.554688 109.109375 C 269.675781 109.035156 269.839844 109.070312 269.917969 109.191406 C 269.996094 109.316406 269.957031 109.476562 269.835938 109.554688 C 269.363281 109.851562 268.808594 110.011719 268.25 110.011719 M 246.675781 111.476562 C 246.605469 111.476562 246.539062 111.449219 246.484375 111.394531 C 246.308594 111.207031 246.253906 110.957031 246.226562 110.742188 C 246 108.964844 246.738281 107.25 247.484375 105.808594 C 247.761719 105.277344 248.058594 104.746094 248.367188 104.230469 C 248.4375 104.105469 248.597656 104.066406 248.726562 104.140625 C 248.851562 104.210938 248.890625 104.375 248.816406 104.496094 C 248.515625 105.007812 248.222656 105.527344 247.953125 106.046875 C 247.238281 107.417969 246.539062 109.039062 246.746094 110.675781 C 246.765625 110.808594 246.792969 110.957031 246.867188 111.03125 C 246.964844 111.136719 246.960938 111.304688 246.855469 111.402344 C 246.804688 111.449219 246.738281 111.476562 246.675781 111.476562 " fill-opacity="1" fill-rule="nonzero"/><path fill="#28183b" d="M 268.578125 165.414062 C 268.480469 165.414062 268.378906 165.351562 268.335938 165.25 C 268.28125 165.117188 268.347656 164.964844 268.480469 164.910156 C 270.191406 164.210938 272.445312 163.304688 273.476562 162.90625 C 274.105469 162.667969 274.75 162.117188 275.390625 161.273438 C 275.480469 161.160156 275.648438 161.136719 275.761719 161.226562 C 275.875 161.3125 275.898438 161.480469 275.8125 161.59375 C 275.109375 162.511719 274.386719 163.121094 273.664062 163.394531 C 272.851562 163.707031 271.128906 164.398438 268.679688 165.394531 L 268.578125 165.414062 " fill-opacity="1" fill-rule="nonzero"/><path fill="#5fbbeb" d="M 82.339844 295.300781 L 82.316406 295.300781 C 82.171875 295.292969 82.066406 295.164062 82.078125 295.019531 L 91.054688 185.894531 C 91.070312 185.75 91.199219 185.640625 91.339844 185.65625 C 91.484375 185.667969 91.59375 185.796875 91.582031 185.941406 L 82.601562 295.0625 C 82.589844 295.199219 82.472656 295.300781 82.339844 295.300781 " fill-opacity="1" fill-rule="nonzero"/><path fill="#5fbbeb" d="M 117.53125 293.085938 L 117.519531 293.085938 C 117.375 293.078125 117.265625 292.957031 117.269531 292.8125 L 119.300781 247.699219 C 119.308594 247.558594 119.425781 247.445312 119.574219 247.453125 C 119.71875 247.457031 119.832031 247.582031 119.828125 247.726562 L 117.792969 292.835938 C 117.789062 292.976562 117.671875 293.085938 117.53125 293.085938 " fill-opacity="1" fill-rule="nonzero"/><path fill="#f47155" d="M 178.636719 123.765625 C 180.734375 120.351562 187.980469 107.640625 189.363281 105.898438 C 190.570312 104.382812 192.539062 101.265625 191.566406 100.902344 C 190.53125 100.511719 189.28125 101.617188 187.671875 102.988281 C 187.671875 102.988281 191.808594 99.046875 191.035156 97.355469 C 190.371094 95.902344 187.332031 98.972656 185.691406 100.859375 C 185.691406 100.859375 190.539062 95.179688 189.253906 94.132812 C 187.71875 92.882812 185.085938 96.519531 183.035156 99.039062 C 183.035156 99.039062 186.535156 94.054688 185.664062 93.308594 C 184.386719 92.222656 180.363281 96.980469 179.105469 98.546875 C 177.902344 100.050781 174.253906 104.382812 174.253906 104.382812 C 174.253906 104.382812 174.703125 102.148438 174.660156 99.796875 C 174.601562 96.675781 172.359375 93.722656 171.386719 96.6875 C 170.847656 98.335938 170.117188 110.355469 166.503906 118.488281 C 165.339844 121.097656 175.878906 128.253906 178.636719 123.765625 " fill-opacity="1" fill-rule="nonzero"/><path fill="#28183b" d="M 176.703125 112.546875 L 176.613281 112.53125 C 176.476562 112.480469 176.40625 112.332031 176.457031 112.195312 C 178.210938 107.386719 174.277344 104.710938 174.109375 104.601562 C 173.988281 104.519531 173.953125 104.359375 174.035156 104.238281 C 174.113281 104.117188 174.273438 104.085938 174.398438 104.164062 C 174.441406 104.195312 178.847656 107.171875 176.949219 112.375 C 176.910156 112.480469 176.808594 112.546875 176.703125 112.546875 " fill-opacity="1" fill-rule="nonzero"/><path fill="#28183b" d="M 184.609375 108.339844 L 184.441406 108.277344 L 177.914062 103.035156 C 177.800781 102.945312 177.785156 102.777344 177.875 102.667969 C 177.964844 102.550781 178.128906 102.535156 178.242188 102.625 L 184.773438 107.871094 C 184.886719 107.960938 184.90625 108.125 184.8125 108.238281 C 184.761719 108.300781 184.6875 108.339844 184.609375 108.339844 " fill-opacity="1" fill-rule="nonzero"/><path fill="#28183b" d="M 179.105469 103.921875 L 178.941406 103.859375 C 178.832031 103.769531 178.8125 103.605469 178.90625 103.496094 L 184.527344 96.511719 C 184.621094 96.398438 184.785156 96.382812 184.898438 96.472656 C 185.011719 96.5625 185.027344 96.730469 184.9375 96.839844 L 179.3125 103.820312 C 179.261719 103.886719 179.183594 103.921875 179.105469 103.921875 " fill-opacity="1" fill-rule="nonzero"/><path fill="#28183b" d="M 181.6875 105.988281 L 181.515625 105.925781 C 181.402344 105.835938 181.390625 105.671875 181.484375 105.558594 L 186.9375 99.023438 C 187.03125 98.910156 187.195312 98.898438 187.308594 98.988281 C 187.417969 99.082031 187.433594 99.25 187.339844 99.359375 L 181.886719 105.894531 C 181.832031 105.957031 181.761719 105.988281 181.6875 105.988281 " fill-opacity="1" fill-rule="nonzero"/><path fill="#28183b" d="M 183.953125 107.8125 L 183.78125 107.75 C 183.671875 107.652344 183.660156 107.484375 183.753906 107.375 L 188.566406 101.816406 C 188.660156 101.707031 188.828125 101.695312 188.9375 101.789062 C 189.046875 101.882812 189.058594 102.050781 188.964844 102.160156 L 184.152344 107.722656 C 184.101562 107.78125 184.027344 107.8125 183.953125 107.8125 " fill-opacity="1" fill-rule="nonzero"/><path fill="#f47155" d="M 109.722656 97.617188 C 109.722656 97.617188 114.175781 101.097656 121.003906 100.390625 C 122.230469 100.261719 122.710938 99.566406 122.710938 98.308594 L 118.0625 96.054688 L 109.722656 97.617188 " fill-opacity="1" fill-rule="nonzero"/><path fill="#28183b" d="M 152.292969 132.273438 C 152.222656 132.273438 152.152344 132.246094 152.101562 132.1875 C 152.003906 132.082031 152.011719 131.917969 152.117188 131.816406 L 156.636719 127.675781 C 156.746094 127.578125 156.910156 127.585938 157.007812 127.691406 C 157.105469 127.800781 157.101562 127.964844 156.992188 128.0625 L 152.472656 132.207031 C 152.421875 132.253906 152.359375 132.273438 152.292969 132.273438 " fill-opacity="1" fill-rule="nonzero"/><path fill="#28183b" d="M 106.878906 129.941406 C 106.878906 129.941406 104.886719 141.128906 102.398438 143.90625 C 101.660156 144.734375 99.9375 145.566406 99.9375 145.566406 L 98.367188 151.179688 C 98.367188 151.179688 101.324219 149.800781 102.625 148.203125 C 107.199219 142.59375 106.878906 129.941406 106.878906 129.941406 " fill-opacity="1" fill-rule="nonzero"/><path fill="#28183b" d="M 122.710938 93.664062 C 122.710938 93.664062 119.503906 92.839844 117.25 91.386719 C 117.25 91.386719 119.753906 94.636719 122.710938 96.507812 L 122.710938 93.664062 " fill-opacity="1" fill-rule="nonzero"/><path fill="#28183b" d="M 116.496094 130.734375 C 116.355469 130.734375 116.238281 130.625 116.234375 130.484375 C 116.226562 130.339844 116.335938 130.21875 116.480469 130.210938 L 134.8125 129.253906 C 134.976562 129.246094 135.078125 129.359375 135.085938 129.503906 C 135.09375 129.648438 134.984375 129.769531 134.839844 129.777344 L 116.507812 130.734375 L 116.496094 130.734375 " fill-opacity="1" fill-rule="nonzero"/><path fill="#28183b" d="M 249.054688 88.777344 C 249.054688 89.320312 248.761719 89.765625 248.40625 89.765625 C 248.046875 89.765625 247.757812 89.320312 247.757812 88.777344 C 247.757812 88.230469 248.046875 87.792969 248.40625 87.792969 C 248.761719 87.792969 249.054688 88.230469 249.054688 88.777344 " fill-opacity="1" fill-rule="nonzero"/><path fill="#28183b" d="M 256.675781 89.230469 C 256.675781 89.773438 256.386719 90.21875 256.027344 90.21875 C 255.667969 90.21875 255.378906 89.773438 255.378906 89.230469 C 255.378906 88.6875 255.667969 88.242188 256.027344 88.242188 C 256.386719 88.242188 256.675781 88.6875 256.675781 89.230469 " fill-opacity="1" fill-rule="nonzero"/><path fill="#28183b" d="M 273.402344 154.972656 C 273.332031 154.972656 273.257812 154.941406 273.203125 154.878906 C 273.113281 154.769531 273.121094 154.605469 273.234375 154.511719 C 273.277344 154.472656 274.316406 153.597656 275.71875 153.363281 C 277.570312 153.046875 282.296875 153.046875 282.496094 153.046875 C 282.640625 153.046875 282.761719 153.164062 282.761719 153.308594 C 282.761719 153.453125 282.640625 153.570312 282.496094 153.570312 C 282.449219 153.570312 277.613281 153.574219 275.804688 153.878906 C 274.546875 154.089844 273.585938 154.902344 273.574219 154.910156 L 273.402344 154.972656 " fill-opacity="1" fill-rule="nonzero"/><path fill="#3e4976" d="M 104.699219 69.195312 C 106.695312 65.480469 110.316406 62.695312 114.816406 61.644531 C 114.089844 62.824219 113.234375 63.921875 112.242188 64.890625 C 110.15625 66.945312 107.523438 68.425781 104.699219 69.195312 " fill-opacity="1" fill-rule="nonzero"/><path fill="#3e4976" d="M 130.148438 66.984375 C 129.644531 66.808594 129.15625 66.601562 128.683594 66.347656 C 127.085938 65.484375 125.730469 64.066406 125.117188 62.394531 C 127.6875 63.535156 129.230469 65.3125 130.148438 66.984375 " fill-opacity="1" fill-rule="nonzero"/><path fill="#3e4976" d="M 106.839844 86.621094 C 104.566406 83.558594 103.371094 80.433594 103.074219 77.46875 C 104.125 78.179688 105.007812 79.085938 105.535156 80.230469 C 106.152344 81.574219 106.222656 83.097656 106.460938 84.558594 C 106.574219 85.238281 106.722656 85.929688 106.839844 86.621094 " fill-opacity="1" fill-rule="nonzero"/><path fill="#3e4976" d="M 243.328125 84.097656 C 243.171875 81.949219 243.558594 79.320312 245.003906 75.839844 C 245.378906 76.695312 245.574219 77.632812 245.570312 78.570312 C 245.140625 79.488281 244.949219 80.46875 244.894531 81.425781 C 244.605469 82.046875 244.242188 82.644531 243.882812 83.238281 C 243.710938 83.527344 243.527344 83.816406 243.328125 84.097656 " fill-opacity="1" fill-rule="nonzero"/><path fill="#3e4976" d="M 244.894531 81.425781 C 244.949219 80.46875 245.140625 79.488281 245.570312 78.570312 C 245.570312 79.199219 245.476562 79.828125 245.289062 80.433594 C 245.179688 80.773438 245.046875 81.101562 244.894531 81.425781 " fill-opacity="1" fill-rule="nonzero"/><path fill="#3e4976" d="M 277.902344 79.195312 C 277.148438 78.582031 276.449219 77.910156 275.921875 77.097656 C 275.472656 76.414062 275.164062 75.644531 274.964844 74.851562 C 274.753906 73.992188 274.683594 73.097656 274.738281 72.214844 C 276.101562 73.660156 277.210938 75.871094 277.902344 79.195312 " fill-opacity="1" fill-rule="nonzero"/><path fill="#3e4976" d="M 288.875 102.273438 C 288.152344 101.789062 287.527344 101.171875 286.910156 100.558594 C 286.378906 100.03125 285.835938 99.488281 285.542969 98.796875 C 285.1875 97.953125 285.257812 97.027344 285.460938 96.113281 C 287.210938 98.164062 288.710938 100.355469 288.875 102.273438 " fill-opacity="1" fill-rule="nonzero"/><path fill="#3e4976" d="M 241.34375 111.753906 C 241.191406 110.042969 241.789062 107.324219 243.320312 102.855469 C 243.390625 102.65625 243.476562 102.4375 243.574219 102.210938 C 244.328125 104.621094 244.113281 107.339844 242.890625 109.554688 C 242.457031 110.34375 241.914062 111.054688 241.34375 111.753906 " fill-opacity="1" fill-rule="nonzero"/><path fill="#3e4976" d="M 262.167969 108.410156 C 262.742188 105.871094 264.183594 102.851562 265.40625 100.3125 C 266.195312 101.460938 266.179688 103.113281 265.597656 104.417969 C 264.914062 105.953125 263.621094 107.117188 262.371094 108.238281 C 262.304688 108.292969 262.238281 108.355469 262.167969 108.410156 " fill-opacity="1" fill-rule="nonzero"/><path fill="#3e4976" d="M 258.5 63.980469 C 258.363281 63.980469 258.226562 63.980469 258.085938 63.976562 C 258.882812 62.804688 260.335938 61.960938 262.863281 61.960938 C 263.035156 61.960938 263.207031 61.964844 263.382812 61.972656 C 262.933594 62.480469 262.433594 62.929688 261.832031 63.261719 C 260.820312 63.824219 259.667969 63.980469 258.5 63.980469 " fill-opacity="1" fill-rule="nonzero"/><path fill="#28183b" d="M 285.675781 97.914062 C 285.578125 97.914062 285.484375 97.859375 285.441406 97.765625 C 284.734375 96.335938 283.875 94.945312 283.035156 93.601562 C 281.796875 91.609375 280.515625 89.546875 279.714844 87.289062 C 279.152344 85.691406 278.835938 84.007812 278.53125 82.382812 C 278.300781 81.191406 278.074219 79.960938 277.746094 78.777344 C 277.097656 76.445312 275.746094 73.386719 272.964844 72.0625 C 272.835938 72 272.78125 71.84375 272.84375 71.714844 C 272.90625 71.582031 273.066406 71.527344 273.195312 71.589844 C 276.148438 72.996094 277.574219 76.199219 278.25 78.636719 C 278.585938 79.839844 278.816406 81.085938 279.042969 82.285156 C 279.347656 83.894531 279.660156 85.558594 280.210938 87.113281 C 280.992188 89.320312 282.257812 91.355469 283.480469 93.328125 C 284.324219 94.679688 285.195312 96.082031 285.910156 97.535156 C 285.972656 97.664062 285.921875 97.824219 285.789062 97.886719 L 285.675781 97.914062 " fill-opacity="1" fill-rule="nonzero"/><path fill="#28183b" d="M 262.066406 89.683594 C 261.941406 89.683594 261.832031 89.589844 261.808594 89.460938 C 261.738281 89.027344 261.734375 88.566406 261.730469 88.125 C 261.714844 87.136719 261.703125 86.203125 261.046875 85.664062 C 260.730469 85.402344 260.308594 85.285156 259.832031 85.167969 C 257.890625 84.699219 255.902344 84.335938 253.921875 84.09375 L 253.65625 84.0625 C 252.664062 83.941406 251.636719 83.816406 250.695312 83.40625 C 248.480469 82.453125 247.09375 79.847656 247.546875 77.480469 C 247.574219 77.339844 247.703125 77.246094 247.851562 77.269531 C 247.996094 77.296875 248.085938 77.4375 248.058594 77.578125 C 247.65625 79.714844 248.902344 82.066406 250.902344 82.925781 C 251.773438 83.308594 252.761719 83.425781 253.71875 83.539062 L 253.988281 83.570312 C 255.984375 83.820312 257.992188 84.1875 259.953125 84.660156 C 260.476562 84.785156 260.976562 84.925781 261.382812 85.257812 C 262.226562 85.957031 262.242188 87.054688 262.253906 88.113281 C 262.261719 88.539062 262.265625 88.984375 262.328125 89.378906 C 262.351562 89.519531 262.25 89.65625 262.109375 89.679688 L 262.066406 89.683594 " fill-opacity="1" fill-rule="nonzero"/><path fill="#28183b" d="M 263.929688 112.3125 L 263.890625 112.308594 C 262.507812 112.09375 261.785156 110.605469 261.570312 109.285156 C 261.226562 107.152344 261.585938 104.828125 262.621094 102.558594 C 263.453125 100.726562 264.734375 98.898438 266.527344 96.980469 C 266.882812 96.601562 267.238281 96.242188 267.714844 96.039062 C 267.851562 95.980469 268.003906 96.039062 268.058594 96.171875 C 268.117188 96.304688 268.058594 96.460938 267.921875 96.519531 C 267.542969 96.683594 267.230469 97 266.910156 97.335938 C 265.15625 99.214844 263.910156 100.992188 263.097656 102.777344 C 262.109375 104.949219 261.757812 107.171875 262.085938 109.199219 C 262.273438 110.34375 262.863281 111.621094 263.972656 111.792969 C 264.113281 111.8125 264.210938 111.949219 264.191406 112.09375 C 264.171875 112.21875 264.058594 112.3125 263.929688 112.3125 " fill-opacity="1" fill-rule="nonzero"/><path fill="#28183b" d="M 269.992188 71.765625 L 269.828125 71.707031 C 269.714844 71.617188 269.695312 71.453125 269.785156 71.339844 C 270.480469 70.484375 271.136719 69.632812 271.550781 68.667969 C 272.007812 67.605469 272.085938 66.539062 271.769531 65.664062 C 271.292969 64.34375 269.929688 63.355469 267.722656 62.730469 C 265.351562 62.058594 263.535156 62.199219 262.332031 63.148438 C 262.21875 63.238281 262.054688 63.21875 261.964844 63.105469 C 261.875 62.992188 261.894531 62.828125 262.007812 62.738281 C 263.351562 61.679688 265.320312 61.507812 267.863281 62.226562 C 270.246094 62.902344 271.726562 63.996094 272.265625 65.488281 C 272.625 66.484375 272.542969 67.691406 272.035156 68.875 C 271.589844 69.898438 270.914062 70.78125 270.195312 71.667969 C 270.144531 71.734375 270.066406 71.765625 269.992188 71.765625 " fill-opacity="1" fill-rule="nonzero"/></svg>