<svg xmlns="http://www.w3.org/2000/svg" xmlns:xlink="http://www.w3.org/1999/xlink" width="1080" zoomAndPan="magnify" viewBox="0 0 810 809.999993" height="1080" preserveAspectRatio="xMidYMid meet" version="1.0"><path fill="#373535" d="M 741.492188 809.972656 L 541.695312 809.972656 L 541.695312 280.109375 C 541.695312 279.234375 541.738281 278.363281 541.824219 277.492188 C 541.910156 276.625 542.039062 275.761719 542.210938 274.902344 C 542.382812 274.046875 542.59375 273.199219 542.847656 272.363281 C 543.101562 271.527344 543.398438 270.703125 543.730469 269.898438 C 544.066406 269.089844 544.441406 268.300781 544.851562 267.53125 C 545.265625 266.761719 545.714844 266.011719 546.199219 265.285156 C 546.683594 264.558594 547.207031 263.855469 547.757812 263.179688 C 548.3125 262.503906 548.898438 261.859375 549.519531 261.242188 C 550.136719 260.621094 550.78125 260.035156 551.457031 259.480469 C 552.132812 258.925781 552.835938 258.40625 553.5625 257.921875 C 554.289062 257.433594 555.035156 256.984375 555.808594 256.574219 C 556.578125 256.160156 557.367188 255.785156 558.171875 255.453125 C 558.980469 255.117188 559.800781 254.820312 560.640625 254.566406 C 561.476562 254.3125 562.320312 254.101562 563.179688 253.929688 C 564.035156 253.757812 564.898438 253.628906 565.769531 253.542969 C 566.636719 253.453125 567.511719 253.410156 568.382812 253.410156 L 669.09375 253.5 C 670.394531 253.890625 800.210938 294.667969 805.128906 441.488281 C 809.988281 586.882812 805.179688 744.574219 805.128906 746.148438 C 805.105469 746.804688 801.882812 809.972656 741.492188 809.972656 Z M 545.902344 805.765625 L 741.492188 805.765625 C 765.085938 805.765625 782.238281 795.785156 792.472656 776.128906 C 800.210938 761.269531 800.910156 746.148438 800.917969 745.996094 C 800.964844 744.4375 805.777344 586.886719 800.917969 441.628906 C 796.214844 301.175781 674.90625 259.816406 668.164062 257.617188 L 568.363281 257.617188 C 567.625 257.621094 566.890625 257.65625 566.160156 257.730469 C 565.425781 257.800781 564.699219 257.910156 563.976562 258.054688 C 563.253906 258.199219 562.542969 258.378906 561.835938 258.59375 C 561.132812 258.808594 560.441406 259.054688 559.761719 259.335938 C 559.082031 259.621094 558.417969 259.933594 557.765625 260.28125 C 557.117188 260.628906 556.488281 261.007812 555.875 261.417969 C 555.265625 261.828125 554.671875 262.265625 554.105469 262.730469 C 553.535156 263.199219 552.992188 263.695312 552.46875 264.214844 C 551.949219 264.734375 551.457031 265.28125 550.988281 265.847656 C 550.523438 266.417969 550.082031 267.007812 549.675781 267.621094 C 549.265625 268.234375 548.886719 268.863281 548.539062 269.511719 C 548.191406 270.164062 547.878906 270.828125 547.597656 271.507812 C 547.316406 272.1875 547.066406 272.878906 546.851562 273.582031 C 546.640625 274.289062 546.460938 275 546.316406 275.722656 C 546.171875 276.445312 546.0625 277.171875 545.992188 277.90625 C 545.917969 278.636719 545.882812 279.371094 545.882812 280.109375 Z M 756.667969 605.4375 L 705.757812 605.4375 L 705.757812 412.777344 C 705.757812 406.617188 709.351562 401.789062 713.929688 401.789062 L 739.488281 401.96875 C 740.847656 402.566406 772.730469 417.222656 773.957031 471.03125 C 775.15625 523.554688 773.957031 580.511719 773.957031 581.085938 C 773.933594 582.070312 773.117188 605.4375 756.667969 605.4375 Z M 709.96875 601.226562 L 756.667969 601.226562 C 769.015625 601.226562 769.738281 581.164062 769.746094 580.964844 C 769.746094 580.40625 770.945312 523.539062 769.746094 471.109375 C 768.652344 423.015625 741.640625 407.753906 738.15625 405.980469 L 713.929688 405.980469 C 712.054688 405.980469 709.96875 408.765625 709.96875 412.757812 Z M 709.96875 601.226562 " fill-opacity="1" fill-rule="nonzero"/><path fill="#a6f3da" d="M 648.523438 213.949219 L 575.332031 213.949219 C 574.914062 213.949219 574.5 213.988281 574.09375 214.070312 C 573.683594 214.152344 573.289062 214.273438 572.902344 214.433594 C 572.515625 214.59375 572.152344 214.789062 571.804688 215.019531 C 571.457031 215.25 571.136719 215.515625 570.84375 215.808594 C 570.550781 216.105469 570.285156 216.425781 570.054688 216.769531 C 569.824219 217.117188 569.628906 217.484375 569.46875 217.867188 C 569.308594 218.253906 569.1875 218.648438 569.105469 219.058594 C 569.023438 219.46875 568.984375 219.878906 568.984375 220.296875 L 568.984375 255.515625 L 654.875 255.515625 L 654.875 220.296875 C 654.871094 219.878906 654.832031 219.46875 654.75 219.058594 C 654.667969 218.648438 654.546875 218.253906 654.390625 217.867188 C 654.230469 217.484375 654.035156 217.117188 653.800781 216.769531 C 653.570312 216.425781 653.308594 216.105469 653.011719 215.808594 C 652.71875 215.515625 652.398438 215.25 652.050781 215.019531 C 651.703125 214.789062 651.339844 214.59375 650.953125 214.433594 C 650.570312 214.273438 650.171875 214.152344 649.761719 214.070312 C 649.355469 213.988281 648.941406 213.949219 648.523438 213.949219 Z M 648.523438 213.949219 " fill-opacity="1" fill-rule="nonzero"/><path fill="#a6f3da" d="M 629.214844 164.140625 L 594.636719 164.140625 C 594.21875 164.140625 593.804688 164.179688 593.398438 164.261719 C 592.988281 164.34375 592.589844 164.464844 592.207031 164.625 C 591.820312 164.785156 591.457031 164.980469 591.109375 165.210938 C 590.761719 165.441406 590.441406 165.707031 590.148438 166 C 589.851562 166.296875 589.589844 166.617188 589.359375 166.964844 C 589.125 167.3125 588.929688 167.675781 588.769531 168.0625 C 588.613281 168.445312 588.492188 168.84375 588.410156 169.253906 C 588.328125 169.660156 588.289062 170.074219 588.289062 170.492188 L 588.289062 213.949219 L 635.585938 213.949219 L 635.585938 170.492188 C 635.585938 170.074219 635.542969 169.660156 635.460938 169.25 C 635.378906 168.839844 635.257812 168.441406 635.097656 168.058594 C 634.9375 167.671875 634.742188 167.304688 634.511719 166.957031 C 634.277344 166.609375 634.011719 166.289062 633.71875 165.996094 C 633.421875 165.699219 633.101562 165.4375 632.753906 165.207031 C 632.40625 164.972656 632.039062 164.777344 631.652344 164.617188 C 631.265625 164.460938 630.867188 164.339844 630.457031 164.257812 C 630.046875 164.179688 629.632812 164.136719 629.214844 164.140625 Z M 629.214844 164.140625 " fill-opacity="1" fill-rule="nonzero"/><path fill="#373535" d="M 656.972656 257.617188 L 566.878906 257.617188 L 566.878906 224.710938 C 566.878906 223.867188 566.964844 223.03125 567.128906 222.203125 C 567.292969 221.375 567.539062 220.570312 567.863281 219.789062 C 568.1875 219.007812 568.582031 218.269531 569.054688 217.566406 C 569.523438 216.863281 570.054688 216.214844 570.652344 215.617188 C 571.25 215.019531 571.902344 214.488281 572.601562 214.019531 C 573.304688 213.550781 574.046875 213.152344 574.828125 212.828125 C 575.605469 212.507812 576.410156 212.261719 577.238281 212.097656 C 578.066406 211.933594 578.902344 211.847656 579.75 211.847656 L 644.113281 211.847656 C 644.957031 211.851562 645.792969 211.933594 646.621094 212.097656 C 647.449219 212.265625 648.25 212.507812 649.03125 212.832031 C 649.8125 213.15625 650.550781 213.550781 651.253906 214.023438 C 651.957031 214.492188 652.605469 215.023438 653.203125 215.621094 C 653.796875 216.21875 654.332031 216.867188 654.800781 217.570312 C 655.269531 218.269531 655.667969 219.011719 655.988281 219.792969 C 656.3125 220.570312 656.558594 221.375 656.722656 222.203125 C 656.890625 223.03125 656.972656 223.867188 656.972656 224.710938 Z M 571.085938 253.410156 L 652.765625 253.410156 L 652.765625 224.710938 C 652.761719 224.144531 652.707031 223.582031 652.59375 223.023438 C 652.480469 222.46875 652.316406 221.925781 652.097656 221.402344 C 651.882812 220.878906 651.613281 220.382812 651.296875 219.910156 C 650.984375 219.4375 650.625 219 650.222656 218.601562 C 649.820312 218.199219 649.382812 217.839844 648.914062 217.523438 C 648.441406 217.207031 647.941406 216.941406 647.417969 216.722656 C 646.894531 216.503906 646.355469 216.339844 645.796875 216.226562 C 645.242188 216.117188 644.679688 216.058594 644.113281 216.058594 L 579.75 216.058594 C 579.179688 216.058594 578.617188 216.113281 578.058594 216.222656 C 577.5 216.335938 576.960938 216.5 576.433594 216.714844 C 575.90625 216.933594 575.410156 217.199219 574.933594 217.515625 C 574.460938 217.832031 574.023438 218.1875 573.621094 218.589844 C 573.21875 218.992188 572.859375 219.429688 572.542969 219.902344 C 572.226562 220.375 571.957031 220.871094 571.738281 221.398438 C 571.519531 221.921875 571.355469 222.464844 571.242188 223.019531 C 571.128906 223.578125 571.070312 224.140625 571.070312 224.710938 Z M 571.085938 253.410156 " fill-opacity="1" fill-rule="nonzero"/><path fill="#373535" d="M 637.667969 216.058594 L 586.183594 216.058594 L 586.183594 174.90625 C 586.183594 174.058594 586.269531 173.222656 586.433594 172.394531 C 586.597656 171.566406 586.84375 170.761719 587.167969 169.980469 C 587.492188 169.203125 587.886719 168.460938 588.355469 167.757812 C 588.828125 167.054688 589.359375 166.40625 589.957031 165.808594 C 590.554688 165.210938 591.203125 164.675781 591.90625 164.207031 C 592.609375 163.738281 593.351562 163.339844 594.128906 163.019531 C 594.910156 162.695312 595.714844 162.449219 596.542969 162.285156 C 597.371094 162.117188 598.207031 162.035156 599.054688 162.035156 L 624.808594 162.035156 C 625.652344 162.035156 626.488281 162.121094 627.316406 162.285156 C 628.144531 162.449219 628.949219 162.695312 629.726562 163.019531 C 630.507812 163.34375 631.25 163.738281 631.949219 164.210938 C 632.652344 164.679688 633.300781 165.210938 633.898438 165.808594 C 634.496094 166.40625 635.03125 167.058594 635.5 167.757812 C 635.96875 168.460938 636.363281 169.203125 636.6875 169.984375 C 637.011719 170.761719 637.253906 171.566406 637.417969 172.394531 C 637.585938 173.222656 637.667969 174.058594 637.667969 174.90625 Z M 590.398438 211.847656 L 633.460938 211.847656 L 633.460938 174.90625 C 633.460938 174.335938 633.402344 173.773438 633.292969 173.214844 C 633.183594 172.65625 633.019531 172.117188 632.800781 171.589844 C 632.582031 171.0625 632.316406 170.566406 632.003906 170.089844 C 631.6875 169.617188 631.328125 169.179688 630.925781 168.777344 C 630.523438 168.375 630.089844 168.015625 629.617188 167.699219 C 629.144531 167.382812 628.644531 167.113281 628.121094 166.894531 C 627.59375 166.675781 627.054688 166.511719 626.496094 166.398438 C 625.9375 166.285156 625.375 166.226562 624.808594 166.226562 L 599.054688 166.226562 C 598.484375 166.226562 597.921875 166.285156 597.363281 166.398438 C 596.804688 166.507812 596.265625 166.675781 595.738281 166.894531 C 595.214844 167.113281 594.714844 167.378906 594.242188 167.695312 C 593.769531 168.011719 593.332031 168.375 592.929688 168.777344 C 592.53125 169.179688 592.171875 169.617188 591.855469 170.089844 C 591.539062 170.5625 591.273438 171.0625 591.054688 171.589844 C 590.839844 172.113281 590.675781 172.65625 590.5625 173.214844 C 590.453125 173.773438 590.398438 174.335938 590.398438 174.90625 Z M 590.398438 211.847656 " fill-opacity="1" fill-rule="nonzero"/><path fill="#373535" d="M 15.652344 340.808594 C 14.671875 340.8125 13.699219 340.714844 12.738281 340.527344 C 11.777344 340.335938 10.84375 340.054688 9.941406 339.679688 C 9.035156 339.304688 8.175781 338.84375 7.359375 338.300781 C 6.542969 337.757812 5.789062 337.140625 5.097656 336.445312 C 4.402344 335.753906 3.785156 335 3.238281 334.1875 C 2.695312 333.371094 2.234375 332.511719 1.859375 331.605469 C 1.484375 330.703125 1.203125 329.769531 1.011719 328.808594 C 0.820312 327.847656 0.722656 326.875 0.722656 325.894531 C 0.722656 324.917969 0.820312 323.945312 1.011719 322.984375 C 1.203125 322.023438 1.484375 321.089844 1.859375 320.1875 C 2.234375 319.28125 2.695312 318.421875 3.238281 317.605469 C 3.785156 316.792969 4.402344 316.039062 5.097656 315.34375 C 5.789062 314.652344 6.542969 314.035156 7.359375 313.492188 C 8.175781 312.945312 9.035156 312.488281 9.941406 312.113281 C 10.84375 311.738281 11.777344 311.457031 12.738281 311.265625 C 13.699219 311.074219 14.671875 310.980469 15.652344 310.980469 L 15.652344 315.207031 C 14.949219 315.207031 14.25 315.277344 13.5625 315.414062 C 12.871094 315.550781 12.203125 315.753906 11.550781 316.019531 C 10.902344 316.289062 10.285156 316.617188 9.699219 317.007812 C 9.113281 317.398438 8.574219 317.84375 8.074219 318.339844 C 7.578125 318.835938 7.132812 319.378906 6.742188 319.964844 C 6.351562 320.546875 6.019531 321.164062 5.753906 321.816406 C 5.484375 322.464844 5.28125 323.132812 5.140625 323.824219 C 5.003906 324.515625 4.9375 325.210938 4.9375 325.914062 C 4.9375 326.617188 5.003906 327.3125 5.140625 328.003906 C 5.28125 328.691406 5.484375 329.363281 5.753906 330.011719 C 6.019531 330.664062 6.351562 331.28125 6.742188 331.863281 C 7.132812 332.449219 7.578125 332.988281 8.074219 333.488281 C 8.574219 333.984375 9.113281 334.425781 9.699219 334.816406 C 10.285156 335.207031 10.902344 335.539062 11.550781 335.804688 C 12.203125 336.074219 12.871094 336.277344 13.5625 336.414062 C 14.25 336.550781 14.949219 336.617188 15.652344 336.617188 C 16.601562 336.617188 17.535156 336.492188 18.453125 336.25 L 19.546875 340.3125 C 18.269531 340.648438 16.972656 340.816406 15.652344 340.808594 Z M 15.652344 340.808594 " fill-opacity="1" fill-rule="nonzero"/><path fill="#a6f3da" d="M 194.636719 550.320312 C 194.636719 550.320312 192.546875 552.582031 188.996094 565.917969 C 188.996094 565.917969 269.566406 592.390625 345.128906 564.773438 L 340.246094 548.957031 C 340.246094 548.957031 272.199219 576.109375 194.636719 550.320312 Z M 194.636719 550.320312 " fill-opacity="1" fill-rule="nonzero"/><path fill="#373535" d="M 490.925781 445.023438 L 470.3125 564.855469 C 470.617188 565.171875 470.886719 565.511719 471.125 565.878906 C 472.195312 567.640625 472.6875 569.554688 472.605469 571.613281 C 472.851562 571.921875 473.066406 572.253906 473.246094 572.609375 L 495.074219 445.742188 Z M 490.925781 445.023438 " fill-opacity="1" fill-rule="nonzero"/><path fill="#373535" d="M 77.917969 668.046875 L 39.546875 444.988281 L 35.394531 445.707031 L 74.28125 671.777344 C 74.527344 670.886719 74.972656 670.109375 75.621094 669.445312 C 76.265625 668.78125 77.03125 668.316406 77.917969 668.046875 Z M 77.917969 668.046875 " fill-opacity="1" fill-rule="nonzero"/><path fill="#373535" d="M 428.425781 805.765625 L 223.867188 805.765625 C 224 807.292969 223.636719 808.699219 222.785156 809.972656 L 432.414062 809.972656 L 432.730469 808.136719 C 431.863281 808.113281 431.050781 807.894531 430.292969 807.476562 C 429.53125 807.054688 428.910156 806.484375 428.425781 805.765625 Z M 428.425781 805.765625 " fill-opacity="1" fill-rule="nonzero"/><path fill="#373535" d="M 513.398438 339.183594 L 509.253906 338.46875 L 517.386719 291.226562 C 517.503906 290.539062 517.582031 289.847656 517.625 289.15625 C 517.667969 288.460938 517.675781 287.765625 517.640625 287.070312 C 517.609375 286.375 517.539062 285.683594 517.429688 284.996094 C 517.320312 284.308594 517.175781 283.628906 516.992188 282.957031 C 516.8125 282.285156 516.59375 281.625 516.339844 280.976562 C 516.085938 280.328125 515.796875 279.695312 515.472656 279.078125 C 515.152344 278.460938 514.796875 277.863281 514.40625 277.285156 C 514.019531 276.707031 513.601562 276.152344 513.152344 275.621094 C 512.703125 275.089844 512.226562 274.582031 511.722656 274.101562 C 511.21875 273.621094 510.691406 273.167969 510.140625 272.746094 C 509.585938 272.324219 509.011719 271.933594 508.417969 271.570312 C 507.820312 271.210938 507.207031 270.882812 506.578125 270.589844 C 505.945312 270.296875 505.300781 270.039062 504.640625 269.816406 C 503.980469 269.589844 503.3125 269.40625 502.632812 269.253906 C 501.953125 269.105469 501.265625 268.992188 500.574219 268.914062 C 499.882812 268.839844 499.1875 268.800781 498.492188 268.800781 L 31.980469 268.800781 C 31.285156 268.800781 30.589844 268.839844 29.898438 268.914062 C 29.207031 268.988281 28.519531 269.101562 27.839844 269.253906 C 27.160156 269.402344 26.488281 269.589844 25.832031 269.8125 C 25.171875 270.035156 24.523438 270.292969 23.894531 270.585938 C 23.261719 270.882812 22.648438 271.207031 22.054688 271.570312 C 21.457031 271.929688 20.882812 272.320312 20.328125 272.742188 C 19.777344 273.167969 19.25 273.617188 18.746094 274.097656 C 18.242188 274.578125 17.765625 275.085938 17.316406 275.617188 C 16.867188 276.152344 16.449219 276.707031 16.058594 277.285156 C 15.671875 277.863281 15.316406 278.460938 14.992188 279.074219 C 14.671875 279.691406 14.382812 280.324219 14.128906 280.972656 C 13.875 281.621094 13.65625 282.28125 13.472656 282.953125 C 13.289062 283.625 13.144531 284.304688 13.039062 284.992188 C 12.929688 285.679688 12.859375 286.375 12.824219 287.070312 C 12.792969 287.765625 12.796875 288.460938 12.839844 289.152344 C 12.882812 289.847656 12.964844 290.539062 13.082031 291.226562 L 21.222656 338.46875 L 17.070312 339.183594 L 8.941406 291.9375 C 8.800781 291.101562 8.703125 290.257812 8.652344 289.410156 C 8.597656 288.566406 8.59375 287.71875 8.632812 286.867188 C 8.675781 286.019531 8.761719 285.179688 8.894531 284.339844 C 9.027344 283.5 9.203125 282.671875 9.425781 281.851562 C 9.648438 281.035156 9.914062 280.230469 10.226562 279.441406 C 10.535156 278.648438 10.886719 277.878906 11.28125 277.125 C 11.675781 276.375 12.109375 275.648438 12.585938 274.941406 C 13.058594 274.238281 13.566406 273.5625 14.113281 272.914062 C 14.664062 272.261719 15.242188 271.644531 15.859375 271.058594 C 16.472656 270.476562 17.117188 269.925781 17.789062 269.410156 C 18.464844 268.894531 19.164062 268.414062 19.890625 267.976562 C 20.617188 267.539062 21.367188 267.136719 22.136719 266.78125 C 22.90625 266.421875 23.691406 266.109375 24.496094 265.835938 C 25.300781 265.5625 26.117188 265.335938 26.945312 265.152344 C 27.773438 264.96875 28.609375 264.832031 29.453125 264.738281 C 30.296875 264.648438 31.144531 264.601562 31.992188 264.601562 L 498.492188 264.601562 C 499.339844 264.601562 500.1875 264.648438 501.03125 264.738281 C 501.875 264.832031 502.710938 264.96875 503.539062 265.152344 C 504.367188 265.335938 505.183594 265.566406 505.988281 265.839844 C 506.792969 266.109375 507.578125 266.425781 508.347656 266.785156 C 509.117188 267.140625 509.863281 267.539062 510.589844 267.980469 C 511.316406 268.417969 512.015625 268.894531 512.691406 269.410156 C 513.363281 269.925781 514.007812 270.476562 514.621094 271.0625 C 515.238281 271.648438 515.816406 272.265625 516.363281 272.914062 C 516.910156 273.566406 517.421875 274.242188 517.894531 274.945312 C 518.367188 275.648438 518.800781 276.378906 519.195312 277.128906 C 519.589844 277.882812 519.941406 278.652344 520.25 279.441406 C 520.5625 280.230469 520.828125 281.035156 521.050781 281.855469 C 521.273438 282.675781 521.449219 283.503906 521.582031 284.339844 C 521.714844 285.179688 521.800781 286.023438 521.84375 286.871094 C 521.882812 287.71875 521.878906 288.566406 521.824219 289.414062 C 521.773438 290.257812 521.675781 291.101562 521.535156 291.9375 Z M 513.398438 339.183594 " fill-opacity="1" fill-rule="nonzero"/><path fill="#373535" d="M 19.148438 336.71875 L 511.328125 336.71875 L 511.328125 340.925781 L 19.148438 340.925781 Z M 19.148438 336.71875 " fill-opacity="1" fill-rule="nonzero"/><path fill="#373535" d="M 19.148438 323.796875 L 511.328125 323.796875 L 511.328125 328.003906 L 19.148438 328.003906 Z M 19.148438 323.796875 " fill-opacity="1" fill-rule="nonzero"/><path fill="#373535" d="M 345.929688 563.171875 C 345.929688 562.921875 345.929688 562.664062 345.929688 562.414062 C 332.894531 566.617188 319.613281 569.777344 306.085938 571.898438 C 292.554688 574.015625 278.941406 575.070312 265.246094 575.054688 C 125.230469 575.054688 10.894531 465.570312 4.945312 325.800781 L 0.738281 325.984375 C 6.8125 468.007812 122.96875 579.265625 265.238281 579.265625 C 279.117188 579.28125 292.910156 578.21875 306.621094 576.074219 C 320.332031 573.933594 333.796875 570.738281 347.007812 566.488281 C 346.332031 565.484375 345.972656 564.378906 345.929688 563.171875 Z M 345.929688 563.171875 " fill-opacity="1" fill-rule="nonzero"/><path fill="#373535" d="M 525.527344 325.8125 C 522.632812 393.847656 494.039062 454.6875 449.320312 499.253906 C 449.753906 500.800781 450.1875 502.355469 450.59375 503.921875 C 497.023438 458.507812 526.753906 395.992188 529.738281 326.011719 Z M 525.527344 325.8125 " fill-opacity="1" fill-rule="nonzero"/><path fill="#373535" d="M 445.144531 485.304688 L 445.316406 485.890625 C 482.199219 447.128906 506.667969 396.195312 512.257812 338.9375 L 508.066406 338.527344 C 502.609375 394.425781 478.847656 444.195312 443.011719 482.199219 C 444.074219 482.992188 444.785156 484.027344 445.144531 485.304688 Z M 445.144531 485.304688 " fill-opacity="1" fill-rule="nonzero"/><path fill="#373535" d="M 350.78125 543.261719 C 337.089844 548.324219 323.058594 552.136719 308.691406 554.699219 C 294.320312 557.261719 279.835938 558.53125 265.238281 558.511719 C 139.542969 558.511719 35.195312 464.351562 22.511719 339.472656 L 18.324219 339.90625 C 31.21875 466.933594 137.371094 562.726562 265.226562 562.726562 C 279.429688 562.746094 293.53125 561.5625 307.535156 559.175781 C 321.539062 556.792969 335.238281 553.238281 348.632812 548.519531 C 349.292969 546.71875 350.019531 544.957031 350.78125 543.261719 Z M 350.78125 543.261719 " fill-opacity="1" fill-rule="nonzero"/><path fill="#373535" d="M 514.828125 340.808594 C 513.503906 340.8125 512.203125 340.640625 510.925781 340.292969 L 512.027344 336.230469 C 512.761719 336.429688 513.511719 336.550781 514.273438 336.585938 C 515.03125 336.625 515.789062 336.582031 516.542969 336.460938 C 517.292969 336.335938 518.023438 336.136719 518.734375 335.855469 C 519.441406 335.578125 520.113281 335.226562 520.75 334.804688 C 521.382812 334.382812 521.964844 333.898438 522.496094 333.351562 C 523.027344 332.804688 523.492188 332.207031 523.894531 331.558594 C 524.300781 330.914062 524.628906 330.230469 524.886719 329.515625 C 525.144531 328.796875 525.324219 328.0625 525.425781 327.304688 C 525.523438 326.550781 525.542969 325.792969 525.484375 325.03125 C 525.421875 324.273438 525.28125 323.527344 525.058594 322.800781 C 524.839844 322.070312 524.542969 321.371094 524.175781 320.707031 C 523.804688 320.039062 523.371094 319.417969 522.867188 318.847656 C 522.367188 318.273438 521.808594 317.757812 521.199219 317.304688 C 520.585938 316.847656 519.933594 316.464844 519.238281 316.148438 C 518.546875 315.835938 517.824219 315.597656 517.082031 315.433594 C 516.335938 315.273438 515.582031 315.191406 514.820312 315.191406 L 514.820312 310.980469 C 515.800781 310.984375 516.769531 311.078125 517.730469 311.269531 C 518.6875 311.464844 519.621094 311.746094 520.523438 312.121094 C 521.429688 312.496094 522.285156 312.957031 523.101562 313.5 C 523.914062 314.046875 524.664062 314.664062 525.355469 315.355469 C 526.050781 316.046875 526.667969 316.800781 527.210938 317.613281 C 527.753906 318.429688 528.210938 319.289062 528.585938 320.191406 C 528.960938 321.097656 529.242188 322.027344 529.433594 322.988281 C 529.625 323.949219 529.71875 324.917969 529.71875 325.894531 C 529.71875 326.875 529.625 327.84375 529.433594 328.804688 C 529.242188 329.765625 528.960938 330.695312 528.585938 331.601562 C 528.210938 332.503906 527.753906 333.363281 527.210938 334.175781 C 526.667969 334.992188 526.050781 335.746094 525.355469 336.4375 C 524.664062 337.128906 523.914062 337.746094 523.101562 338.292969 C 522.285156 338.835938 521.425781 339.296875 520.523438 339.671875 C 519.621094 340.046875 518.6875 340.328125 517.726562 340.519531 C 516.769531 340.710938 515.800781 340.808594 514.820312 340.808594 Z M 514.828125 340.808594 " fill-opacity="1" fill-rule="nonzero"/><path fill="#a6f3da" d="M 407.191406 425.054688 L 427.449219 425.054688 L 427.449219 456.511719 L 386.929688 456.511719 L 386.929688 425.054688 Z M 407.191406 425.054688 " fill-opacity="1" fill-rule="nonzero"/><path fill="#a6f3da" d="M 427.449219 425.054688 C 427.449219 425.054688 430.582031 401.929688 452.777344 398.53125 L 452.777344 367.339844 C 452.777344 367.339844 444.25 351.746094 423.707031 350.941406 C 403.164062 350.140625 312.410156 350.941406 312.410156 350.941406 L 312.410156 375.335938 L 333.601562 375.738281 C 333.601562 375.738281 385.863281 376 386.925781 425.054688 Z M 427.449219 425.054688 " fill-opacity="1" fill-rule="nonzero"/><path fill="#a6f3da" d="M 341.800781 377.257812 C 341.800781 377.257812 341.765625 418.886719 316.875 444.515625 L 323.816406 450.738281 C 323.816406 450.738281 362.097656 422.722656 365.101562 385.121094 C 365.121094 385.128906 354.207031 377.371094 341.800781 377.257812 Z M 341.800781 377.257812 " fill-opacity="1" fill-rule="nonzero"/><path fill="#373535" d="M 474.578125 576.863281 C 457.140625 507.871094 432.792969 456.113281 432.550781 455.59375 L 431.976562 454.394531 L 429.550781 454.394531 L 429.550781 425.191406 C 429.84375 423.382812 433.523438 403.59375 453.085938 400.597656 L 454.871094 400.328125 L 454.871094 367.339844 L 454.613281 366.328125 C 454.238281 365.652344 445.269531 349.675781 423.804688 348.84375 C 403.476562 348.0625 313.320312 348.84375 312.402344 348.84375 L 310.320312 348.84375 L 310.320312 377.390625 L 333.601562 377.824219 C 335.636719 377.867188 337.660156 378.023438 339.675781 378.296875 C 339.453125 384.804688 337.210938 420.554688 315.378906 443.042969 L 313.851562 444.617188 L 323.714844 453.433594 L 325.085938 452.425781 C 326.636719 451.289062 362.160156 424.898438 366.894531 388.371094 C 376.4375 395.210938 384.429688 406.484375 384.832031 425.082031 L 384.832031 454.390625 L 382.402344 454.390625 L 381.828125 455.589844 C 381.585938 456.105469 357.242188 507.882812 339.792969 576.859375 C 323.664062 640.644531 310.289062 732.59375 338.183594 808.574219 L 338.691406 809.953125 L 475.703125 809.953125 L 476.207031 808.574219 C 504.085938 732.609375 490.722656 640.648438 474.578125 576.863281 Z M 314.523438 353.035156 L 327.476562 352.933594 L 327.476562 373.515625 L 314.523438 373.273438 Z M 323.933594 448.011719 L 319.898438 444.394531 C 340.726562 421.558594 343.492188 388.351562 343.855469 379.472656 C 352.535156 380.15625 360.242188 384.527344 362.910156 386.199219 C 359.691406 417.851562 330.574219 442.722656 323.933594 448.011719 Z M 362.195312 380.917969 C 357.960938 378.609375 353.488281 376.949219 348.777344 375.933594 C 343.816406 374.609375 338.769531 373.84375 333.636719 373.632812 L 331.667969 373.59375 L 331.667969 352.902344 C 359.5 352.71875 409.222656 352.46875 423.621094 353.050781 C 440.976562 353.722656 449.121094 365.429688 450.652344 367.917969 L 450.652344 396.785156 C 432.40625 400.566406 427.015625 417.367188 425.710938 422.96875 L 388.960938 422.96875 C 387.765625 399.703125 375.113281 387.414062 362.195312 380.917969 Z M 425.347656 427.160156 L 425.347656 454.40625 L 389.035156 454.40625 L 389.035156 427.160156 Z M 472.757812 805.765625 L 341.632812 805.765625 C 314.789062 731.074219 327.984375 640.769531 343.851562 577.988281 C 359.71875 515.203125 381.34375 466.753906 385.074219 458.617188 L 429.3125 458.617188 C 433.039062 466.753906 454.65625 515.195312 470.535156 577.988281 C 486.414062 640.78125 499.601562 731.074219 472.757812 805.765625 Z M 472.757812 805.765625 " fill-opacity="1" fill-rule="nonzero"/><path fill="#373535" d="M 236.691406 794.289062 L 37.085938 794.289062 C 36.808594 794.289062 36.539062 794.234375 36.28125 794.128906 C 36.023438 794.023438 35.796875 793.871094 35.597656 793.671875 C 35.398438 793.476562 35.25 793.246094 35.140625 792.988281 C 35.035156 792.730469 34.980469 792.460938 34.984375 792.183594 L 34.984375 728.621094 C 34.980469 728.34375 35.035156 728.074219 35.140625 727.816406 C 35.25 727.558594 35.398438 727.328125 35.597656 727.132812 C 35.796875 726.933594 36.023438 726.78125 36.28125 726.675781 C 36.539062 726.566406 36.808594 726.511719 37.085938 726.511719 C 37.488281 726.503906 37.882812 726.453125 38.277344 726.367188 C 38.667969 726.28125 39.046875 726.15625 39.414062 725.996094 C 39.78125 725.832031 40.128906 725.640625 40.460938 725.410156 C 40.789062 725.183594 41.09375 724.925781 41.375 724.636719 C 41.65625 724.351562 41.90625 724.039062 42.125 723.703125 C 42.34375 723.367188 42.527344 723.015625 42.679688 722.640625 C 42.832031 722.269531 42.945312 721.886719 43.023438 721.496094 C 43.097656 721.101562 43.136719 720.703125 43.136719 720.300781 C 43.136719 719.902344 43.097656 719.503906 43.023438 719.109375 C 42.945312 718.714844 42.832031 718.332031 42.679688 717.960938 C 42.527344 717.589844 42.34375 717.238281 42.125 716.902344 C 41.90625 716.566406 41.65625 716.253906 41.375 715.964844 C 41.09375 715.679688 40.789062 715.421875 40.460938 715.191406 C 40.128906 714.964844 39.78125 714.769531 39.414062 714.609375 C 39.046875 714.449219 38.667969 714.324219 38.277344 714.238281 C 37.882812 714.148438 37.488281 714.101562 37.085938 714.089844 C 36.808594 714.089844 36.539062 714.035156 36.28125 713.929688 C 36.023438 713.824219 35.796875 713.671875 35.597656 713.472656 C 35.402344 713.277344 35.25 713.050781 35.144531 712.792969 C 35.035156 712.535156 34.984375 712.265625 34.984375 711.984375 L 34.984375 700.269531 C 34.984375 699.992188 35.035156 699.722656 35.144531 699.464844 C 35.25 699.207031 35.402344 698.980469 35.597656 698.78125 C 35.796875 698.585938 36.023438 698.433594 36.28125 698.324219 C 36.539062 698.21875 36.808594 698.164062 37.085938 698.164062 L 236.691406 698.164062 C 236.96875 698.164062 237.238281 698.21875 237.496094 698.324219 C 237.753906 698.433594 237.980469 698.585938 238.179688 698.78125 C 238.375 698.980469 238.527344 699.207031 238.636719 699.464844 C 238.742188 699.722656 238.796875 699.992188 238.796875 700.269531 L 238.796875 711.984375 C 238.796875 712.265625 238.742188 712.535156 238.636719 712.792969 C 238.527344 713.050781 238.375 713.277344 238.179688 713.472656 C 237.980469 713.671875 237.753906 713.824219 237.496094 713.929688 C 237.238281 714.035156 236.96875 714.089844 236.691406 714.089844 C 236.277344 714.078125 235.863281 714.109375 235.457031 714.179688 C 235.046875 714.253906 234.648438 714.363281 234.261719 714.515625 C 233.875 714.667969 233.507812 714.855469 233.160156 715.078125 C 232.8125 715.304688 232.488281 715.5625 232.191406 715.851562 C 231.894531 716.140625 231.628906 716.457031 231.394531 716.800781 C 231.160156 717.140625 230.964844 717.503906 230.800781 717.886719 C 230.640625 718.269531 230.519531 718.664062 230.4375 719.070312 C 230.355469 719.476562 230.3125 719.886719 230.3125 720.300781 C 230.3125 720.71875 230.355469 721.128906 230.4375 721.535156 C 230.519531 721.941406 230.640625 722.335938 230.800781 722.71875 C 230.964844 723.101562 231.160156 723.460938 231.394531 723.804688 C 231.628906 724.148438 231.894531 724.464844 232.191406 724.753906 C 232.488281 725.042969 232.8125 725.300781 233.160156 725.523438 C 233.507812 725.75 233.875 725.9375 234.261719 726.089844 C 234.648438 726.238281 235.046875 726.351562 235.457031 726.421875 C 235.863281 726.496094 236.277344 726.523438 236.691406 726.511719 C 236.96875 726.511719 237.238281 726.566406 237.496094 726.675781 C 237.753906 726.78125 237.984375 726.933594 238.179688 727.132812 C 238.378906 727.328125 238.53125 727.558594 238.636719 727.816406 C 238.742188 728.074219 238.796875 728.34375 238.796875 728.621094 L 238.796875 792.183594 C 238.796875 792.460938 238.742188 792.730469 238.636719 792.988281 C 238.53125 793.246094 238.378906 793.476562 238.179688 793.671875 C 237.984375 793.871094 237.753906 794.023438 237.496094 794.128906 C 237.238281 794.234375 236.96875 794.289062 236.691406 794.289062 Z M 39.171875 790.078125 L 234.582031 790.078125 L 234.582031 730.511719 C 234 730.390625 233.433594 730.21875 232.878906 730.003906 C 232.328125 729.785156 231.796875 729.519531 231.289062 729.210938 C 230.78125 728.902344 230.300781 728.554688 229.855469 728.164062 C 229.40625 727.773438 228.996094 727.347656 228.621094 726.886719 C 228.246094 726.425781 227.910156 725.9375 227.621094 725.417969 C 227.328125 724.898438 227.082031 724.363281 226.882812 723.800781 C 226.683594 723.242188 226.535156 722.667969 226.433594 722.082031 C 226.332031 721.496094 226.28125 720.90625 226.28125 720.3125 C 226.28125 719.71875 226.332031 719.128906 226.433594 718.542969 C 226.535156 717.957031 226.683594 717.382812 226.882812 716.824219 C 227.082031 716.265625 227.328125 715.726562 227.621094 715.207031 C 227.910156 714.691406 228.246094 714.199219 228.621094 713.738281 C 228.996094 713.277344 229.40625 712.851562 229.855469 712.460938 C 230.300781 712.070312 230.78125 711.722656 231.289062 711.414062 C 231.796875 711.105469 232.328125 710.839844 232.878906 710.625 C 233.433594 710.40625 234 710.238281 234.582031 710.117188 L 234.582031 702.382812 L 39.171875 702.382812 L 39.171875 710.078125 C 39.753906 710.199219 40.320312 710.367188 40.871094 710.585938 C 41.425781 710.800781 41.957031 711.066406 42.464844 711.375 C 42.972656 711.683594 43.449219 712.03125 43.898438 712.421875 C 44.34375 712.8125 44.757812 713.238281 45.132812 713.699219 C 45.507812 714.160156 45.839844 714.648438 46.132812 715.167969 C 46.421875 715.6875 46.667969 716.226562 46.867188 716.785156 C 47.066406 717.34375 47.21875 717.917969 47.316406 718.503906 C 47.417969 719.089844 47.46875 719.679688 47.46875 720.273438 C 47.46875 720.867188 47.417969 721.457031 47.316406 722.042969 C 47.21875 722.628906 47.066406 723.203125 46.867188 723.761719 C 46.667969 724.324219 46.421875 724.859375 46.132812 725.378906 C 45.839844 725.898438 45.507812 726.386719 45.132812 726.847656 C 44.757812 727.308594 44.34375 727.734375 43.898438 728.125 C 43.449219 728.515625 42.972656 728.863281 42.464844 729.171875 C 41.957031 729.480469 41.425781 729.746094 40.871094 729.964844 C 40.320312 730.179688 39.753906 730.351562 39.171875 730.472656 Z M 39.171875 790.078125 " fill-opacity="1" fill-rule="nonzero"/><path fill="#a6f3da" d="M 216.15625 700.257812 L 216.15625 650.382812 L 77.09375 669.875 L 56.816406 700.257812 L 73.828125 700.257812 L 85.433594 683.898438 L 199.261719 667.535156 L 199.261719 700.257812 Z M 216.15625 700.257812 " fill-opacity="1" fill-rule="nonzero"/><path fill="#373535" d="M 216.15625 702.363281 L 199.261719 702.363281 C 198.980469 702.363281 198.714844 702.308594 198.457031 702.203125 C 198.199219 702.09375 197.96875 701.941406 197.773438 701.746094 C 197.574219 701.546875 197.421875 701.320312 197.316406 701.0625 C 197.210938 700.804688 197.15625 700.535156 197.15625 700.257812 L 197.15625 669.964844 L 86.652344 685.855469 L 75.558594 701.476562 C 75.136719 702.0625 74.566406 702.351562 73.84375 702.34375 L 56.835938 702.34375 C 56.449219 702.339844 56.089844 702.238281 55.757812 702.039062 C 55.429688 701.839844 55.171875 701.566406 54.992188 701.226562 C 54.808594 700.882812 54.730469 700.519531 54.75 700.132812 C 54.769531 699.75 54.886719 699.394531 55.097656 699.074219 L 75.375 668.699219 C 75.722656 668.171875 76.210938 667.867188 76.835938 667.78125 L 215.902344 648.289062 C 216.535156 648.195312 217.09375 648.363281 217.570312 648.785156 C 218.054688 649.203125 218.296875 649.734375 218.296875 650.375 L 218.296875 700.25 C 218.296875 700.53125 218.246094 700.804688 218.136719 701.066406 C 218.027344 701.324219 217.871094 701.554688 217.671875 701.753906 C 217.46875 701.953125 217.238281 702.105469 216.976562 702.210938 C 216.714844 702.316406 216.441406 702.367188 216.15625 702.363281 Z M 201.367188 698.152344 L 214.054688 698.152344 L 214.054688 652.800781 L 78.320312 671.820312 L 60.75 698.148438 L 72.738281 698.148438 L 83.726562 682.675781 C 84.070312 682.179688 84.542969 681.890625 85.140625 681.808594 L 198.960938 665.445312 C 199.589844 665.363281 200.148438 665.523438 200.636719 665.933594 C 201.121094 666.351562 201.367188 666.882812 201.367188 667.527344 Z M 201.367188 698.152344 " fill-opacity="1" fill-rule="nonzero"/><path fill="#373535" d="M 227.1875 809.972656 L 45.375 809.972656 C 45.097656 809.972656 44.828125 809.921875 44.570312 809.8125 C 44.3125 809.707031 44.082031 809.554688 43.886719 809.359375 C 43.6875 809.160156 43.535156 808.933594 43.429688 808.675781 C 43.320312 808.417969 43.265625 808.148438 43.265625 807.871094 L 43.265625 792.183594 C 43.265625 791.902344 43.320312 791.636719 43.429688 791.378906 C 43.535156 791.121094 43.6875 790.890625 43.886719 790.695312 C 44.082031 790.496094 44.3125 790.34375 44.570312 790.238281 C 44.828125 790.132812 45.097656 790.078125 45.375 790.078125 L 227.1875 790.078125 C 227.46875 790.078125 227.734375 790.132812 227.992188 790.238281 C 228.25 790.34375 228.480469 790.496094 228.675781 790.695312 C 228.875 790.890625 229.027344 791.121094 229.132812 791.378906 C 229.238281 791.636719 229.292969 791.902344 229.292969 792.183594 L 229.292969 807.871094 C 229.292969 808.148438 229.238281 808.417969 229.132812 808.675781 C 229.023438 808.933594 228.875 809.160156 228.675781 809.359375 C 228.480469 809.554688 228.25 809.707031 227.992188 809.8125 C 227.734375 809.921875 227.46875 809.972656 227.1875 809.972656 Z M 47.488281 805.765625 L 225.074219 805.765625 L 225.074219 794.289062 L 47.488281 794.289062 Z M 47.488281 805.765625 " fill-opacity="1" fill-rule="nonzero"/></svg>