<svg xmlns="http://www.w3.org/2000/svg" xmlns:xlink="http://www.w3.org/1999/xlink" width="940" zoomAndPan="magnify" viewBox="0 0 705 591.000005" height="788" preserveAspectRatio="xMidYMid meet" version="1.0"><defs><clipPath id="6300043d81"><path d="M 341 4.871094 L 376 4.871094 L 376 28 L 341 28 Z M 341 4.871094 " clip-rule="nonzero"/></clipPath><clipPath id="52863e4d36"><path d="M 299 560 L 338 560 L 338 585.140625 L 299 585.140625 Z M 299 560 " clip-rule="nonzero"/></clipPath><clipPath id="63c75f297d"><path d="M 47.367188 225 L 117 225 L 117 296 L 47.367188 296 Z M 47.367188 225 " clip-rule="nonzero"/></clipPath><clipPath id="ec2153b688"><path d="M 588 309 L 657.585938 309 L 657.585938 379 L 588 379 Z M 588 309 " clip-rule="nonzero"/></clipPath></defs><path fill="#5caeff" d="M 484.3125 271.285156 L 576.703125 211.496094 C 575.960938 213.671875 575.136719 215.816406 574.226562 217.929688 C 573.316406 220.042969 572.324219 222.117188 571.253906 224.152344 C 570.183594 226.191406 569.035156 228.179688 567.8125 230.128906 C 566.585938 232.074219 565.289062 233.972656 563.914062 235.816406 C 562.542969 237.664062 561.101562 239.453125 559.589844 241.1875 C 558.078125 242.921875 556.5 244.59375 554.859375 246.207031 C 553.21875 247.820312 551.515625 249.363281 549.753906 250.84375 C 547.992188 252.324219 546.175781 253.734375 544.304688 255.070312 C 542.433594 256.410156 540.515625 257.671875 538.546875 258.863281 C 536.578125 260.050781 534.5625 261.164062 532.507812 262.195312 C 530.453125 263.230469 528.359375 264.183594 526.230469 265.050781 C 524.101562 265.921875 521.941406 266.710938 519.75 267.414062 C 517.5625 268.117188 515.347656 268.734375 513.109375 269.265625 C 510.871094 269.792969 508.613281 270.238281 506.34375 270.59375 C 504.070312 270.949219 501.785156 271.21875 499.492188 271.394531 C 497.199219 271.574219 494.902344 271.664062 492.601562 271.664062 C 489.808594 271.664062 487.046875 271.535156 484.3125 271.285156 Z M 484.3125 271.285156 " fill-opacity="1" fill-rule="nonzero"/><path fill="#5caeff" d="M 494.589844 94.03125 L 410.742188 148.3125 C 411.585938 146.3125 412.5 144.347656 413.488281 142.417969 C 414.476562 140.488281 415.535156 138.59375 416.660156 136.742188 C 417.785156 134.886719 418.980469 133.078125 420.238281 131.3125 C 421.496094 129.546875 422.820312 127.828125 424.203125 126.160156 C 425.589844 124.488281 427.035156 122.871094 428.535156 121.308594 C 430.039062 119.746094 431.597656 118.238281 433.210938 116.789062 C 434.824219 115.339844 436.488281 113.949219 438.203125 112.621094 C 439.921875 111.296875 441.683594 110.03125 443.488281 108.832031 C 445.296875 107.632812 447.144531 106.503906 449.035156 105.441406 C 450.925781 104.378906 452.855469 103.382812 454.816406 102.460938 C 456.78125 101.539062 458.777344 100.691406 460.800781 99.914062 C 462.828125 99.140625 464.878906 98.4375 466.953125 97.8125 C 469.03125 97.1875 471.128906 96.636719 473.246094 96.164062 C 475.363281 95.691406 477.492188 95.296875 479.640625 94.980469 C 481.785156 94.664062 483.941406 94.429688 486.101562 94.269531 C 488.265625 94.113281 490.433594 94.03125 492.601562 94.03125 C 493.265625 94.007812 493.929688 94.011719 494.589844 94.03125 Z M 494.589844 94.03125 " fill-opacity="1" fill-rule="nonzero"/><path fill="#5caeff" d="M 528.34375 101.5 L 403.78125 182.101562 C 403.839844 174.085938 404.960938 166.222656 407.148438 158.507812 L 505.398438 94.90625 C 513.347656 96.058594 520.996094 98.253906 528.34375 101.5 Z M 528.34375 101.5 " fill-opacity="1" fill-rule="nonzero"/><path fill="#5caeff" d="M 553.507812 118.179688 L 408.652344 211.925781 C 406.167969 204.753906 404.632812 197.382812 404.042969 189.8125 L 535.253906 104.902344 C 541.90625 108.550781 547.988281 112.972656 553.507812 118.179688 Z M 553.507812 118.179688 " fill-opacity="1" fill-rule="nonzero"/><path fill="#5caeff" d="M 570.71875 140.519531 L 422.011719 236.757812 C 417.621094 231.023438 413.984375 224.84375 411.105469 218.222656 L 558.25 123 C 563.117188 128.332031 567.273438 134.171875 570.71875 140.519531 Z M 570.71875 140.519531 " fill-opacity="1" fill-rule="nonzero"/><path fill="#5caeff" d="M 580.175781 167.878906 L 443.089844 256.59375 C 436.859375 252.398438 431.246094 247.492188 426.253906 241.882812 L 573.691406 146.492188 C 576.761719 153.34375 578.921875 160.472656 580.175781 167.878906 Z M 580.175781 167.878906 " fill-opacity="1" fill-rule="nonzero"/><path fill="#5caeff" d="M 581.425781 182.839844 C 581.4375 189.253906 580.757812 195.601562 579.398438 201.871094 L 474.4375 269.796875 C 465.597656 267.960938 457.238281 264.839844 449.359375 260.433594 L 581.117188 175.167969 C 581.300781 177.695312 581.425781 180.257812 581.425781 182.839844 Z M 581.425781 182.839844 " fill-opacity="1" fill-rule="nonzero"/><path fill="#5caeff" d="M 349.558594 183.996094 C 349.558594 185.824219 349.511719 187.648438 349.421875 189.476562 C 349.332031 191.300781 349.199219 193.125 349.019531 194.945312 C 348.839844 196.761719 348.617188 198.578125 348.347656 200.386719 C 348.078125 202.195312 347.765625 203.992188 347.410156 205.785156 C 347.054688 207.578125 346.652344 209.363281 346.210938 211.136719 C 345.765625 212.910156 345.277344 214.671875 344.746094 216.421875 C 344.214844 218.171875 343.644531 219.90625 343.027344 221.625 C 342.410156 223.347656 341.753906 225.054688 341.054688 226.742188 C 340.355469 228.429688 339.613281 230.101562 338.832031 231.753906 C 338.050781 233.40625 337.230469 235.039062 336.367188 236.652344 C 335.503906 238.265625 334.605469 239.855469 333.664062 241.421875 C 332.726562 242.988281 331.746094 244.535156 330.730469 246.054688 C 329.714844 247.574219 328.664062 249.070312 327.574219 250.535156 C 326.484375 252.003906 325.359375 253.445312 324.203125 254.859375 C 323.042969 256.273438 321.847656 257.65625 320.621094 259.011719 C 319.394531 260.363281 318.132812 261.6875 316.839844 262.980469 C 315.546875 264.273438 314.222656 265.535156 312.867188 266.761719 C 311.515625 267.988281 310.128906 269.183594 308.71875 270.34375 C 307.304688 271.503906 305.863281 272.628906 304.394531 273.714844 C 302.925781 274.804688 301.433594 275.859375 299.914062 276.875 C 298.390625 277.890625 296.847656 278.867188 295.28125 279.804688 C 293.710938 280.746094 292.121094 281.648438 290.511719 282.507812 C 288.898438 283.371094 287.265625 284.191406 285.613281 284.972656 C 283.960938 285.753906 282.289062 286.496094 280.601562 287.195312 C 278.910156 287.894531 277.207031 288.554688 275.484375 289.167969 C 273.765625 289.785156 272.027344 290.359375 270.277344 290.890625 C 268.53125 291.417969 266.769531 291.90625 264.996094 292.351562 C 263.222656 292.796875 261.4375 293.195312 259.644531 293.550781 C 257.851562 293.910156 256.050781 294.222656 254.242188 294.488281 C 252.433594 294.757812 250.621094 294.980469 248.800781 295.160156 C 246.984375 295.339844 245.160156 295.476562 243.335938 295.5625 C 241.507812 295.652344 239.679688 295.699219 237.851562 295.699219 C 236.023438 295.699219 234.199219 295.652344 232.371094 295.5625 C 230.546875 295.476562 228.722656 295.339844 226.902344 295.160156 C 225.085938 294.980469 223.269531 294.757812 221.460938 294.488281 C 219.652344 294.222656 217.855469 293.910156 216.0625 293.550781 C 214.265625 293.195312 212.484375 292.796875 210.710938 292.351562 C 208.9375 291.90625 207.175781 291.417969 205.425781 290.890625 C 203.675781 290.359375 201.941406 289.785156 200.222656 289.167969 C 198.5 288.554688 196.792969 287.894531 195.105469 287.195312 C 193.417969 286.496094 191.746094 285.753906 190.09375 284.972656 C 188.441406 284.191406 186.808594 283.371094 185.195312 282.507812 C 183.582031 281.648438 181.992188 280.746094 180.425781 279.804688 C 178.859375 278.867188 177.3125 277.890625 175.792969 276.875 C 174.273438 275.859375 172.777344 274.804688 171.3125 273.714844 C 169.84375 272.628906 168.402344 271.503906 166.988281 270.34375 C 165.574219 269.183594 164.191406 267.988281 162.835938 266.761719 C 161.484375 265.535156 160.160156 264.273438 158.867188 262.980469 C 157.574219 261.6875 156.3125 260.363281 155.085938 259.011719 C 153.859375 257.65625 152.664062 256.273438 151.503906 254.859375 C 150.34375 253.445312 149.21875 252.003906 148.132812 250.535156 C 147.042969 249.066406 145.988281 247.574219 144.972656 246.054688 C 143.957031 244.535156 142.980469 242.988281 142.042969 241.421875 C 141.101562 239.855469 140.199219 238.265625 139.339844 236.652344 C 138.476562 235.039062 137.65625 233.40625 136.875 231.753906 C 136.09375 230.101562 135.351562 228.429688 134.652344 226.742188 C 133.953125 225.054688 133.292969 223.347656 132.679688 221.625 C 132.0625 219.90625 131.488281 218.171875 130.957031 216.421875 C 130.429688 214.671875 129.941406 212.910156 129.496094 211.136719 C 129.050781 209.363281 128.652344 207.578125 128.296875 205.785156 C 127.9375 203.992188 127.625 202.191406 127.359375 200.386719 C 127.089844 198.578125 126.867188 196.761719 126.6875 194.945312 C 126.507812 193.125 126.371094 191.300781 126.285156 189.476562 C 126.195312 187.648438 126.148438 185.824219 126.148438 183.996094 C 126.148438 182.167969 126.195312 180.339844 126.285156 178.511719 C 126.371094 176.6875 126.507812 174.863281 126.6875 173.046875 C 126.867188 171.226562 127.089844 169.414062 127.359375 167.605469 C 127.625 165.796875 127.9375 163.996094 128.296875 162.203125 C 128.652344 160.410156 129.050781 158.625 129.496094 156.851562 C 129.941406 155.078125 130.429688 153.316406 130.957031 151.570312 C 131.488281 149.820312 132.0625 148.082031 132.679688 146.363281 C 133.292969 144.640625 133.953125 142.9375 134.652344 141.246094 C 135.351562 139.558594 136.09375 137.886719 136.875 136.234375 C 137.65625 134.582031 138.476562 132.949219 139.339844 131.335938 C 140.199219 129.726562 141.101562 128.136719 142.042969 126.566406 C 142.980469 125 143.957031 123.457031 144.972656 121.933594 C 145.988281 120.414062 147.042969 118.921875 148.132812 117.453125 C 149.21875 115.984375 150.34375 114.542969 151.503906 113.128906 C 152.664062 111.71875 153.859375 110.332031 155.085938 108.980469 C 156.3125 107.625 157.574219 106.300781 158.867188 105.007812 C 160.160156 103.714844 161.484375 102.453125 162.835938 101.226562 C 164.191406 100 165.574219 98.804688 166.988281 97.644531 C 168.402344 96.488281 169.84375 95.363281 171.3125 94.273438 C 172.777344 93.183594 174.273438 92.132812 175.792969 91.117188 C 177.3125 90.101562 178.859375 89.121094 180.425781 88.183594 C 181.992188 87.242188 183.582031 86.34375 185.195312 85.480469 C 186.808594 84.617188 188.441406 83.796875 190.09375 83.015625 C 191.746094 82.234375 193.417969 81.492188 195.105469 80.792969 C 196.792969 80.09375 198.5 79.4375 200.222656 78.820312 C 201.941406 78.203125 203.675781 77.632812 205.425781 77.101562 C 207.175781 76.570312 208.9375 76.082031 210.710938 75.636719 C 212.484375 75.195312 214.265625 74.792969 216.0625 74.4375 C 217.855469 74.082031 219.652344 73.769531 221.460938 73.5 C 223.269531 73.230469 225.085938 73.007812 226.902344 72.828125 C 228.722656 72.648438 230.546875 72.515625 232.371094 72.425781 C 234.199219 72.335938 236.023438 72.289062 237.851562 72.289062 C 239.679688 72.289062 241.507812 72.335938 243.335938 72.425781 C 245.160156 72.515625 246.984375 72.648438 248.800781 72.828125 C 250.621094 73.007812 252.433594 73.230469 254.242188 73.5 C 256.050781 73.769531 257.851562 74.082031 259.644531 74.4375 C 261.4375 74.792969 263.222656 75.195312 264.996094 75.636719 C 266.769531 76.082031 268.53125 76.570312 270.277344 77.101562 C 272.027344 77.632812 273.765625 78.203125 275.484375 78.820312 C 277.207031 79.4375 278.910156 80.09375 280.601562 80.792969 C 282.289062 81.492188 283.960938 82.234375 285.613281 83.015625 C 287.265625 83.796875 288.898438 84.617188 290.511719 85.480469 C 292.121094 86.34375 293.710938 87.242188 295.28125 88.183594 C 296.847656 89.121094 298.390625 90.101562 299.914062 91.117188 C 301.433594 92.132812 302.925781 93.183594 304.394531 94.273438 C 305.863281 95.363281 307.304688 96.488281 308.71875 97.644531 C 310.128906 98.804688 311.515625 100 312.867188 101.226562 C 314.222656 102.453125 315.546875 103.714844 316.839844 105.007812 C 318.132812 106.300781 319.394531 107.625 320.621094 108.980469 C 321.847656 110.332031 323.042969 111.71875 324.203125 113.128906 C 325.359375 114.542969 326.484375 115.984375 327.574219 117.453125 C 328.664062 118.921875 329.714844 120.414062 330.730469 121.933594 C 331.746094 123.457031 332.726562 125 333.664062 126.566406 C 334.605469 128.136719 335.503906 129.726562 336.367188 131.335938 C 337.230469 132.949219 338.050781 134.582031 338.832031 136.234375 C 339.613281 137.886719 340.355469 139.558594 341.054688 141.246094 C 341.753906 142.9375 342.410156 144.640625 343.027344 146.363281 C 343.644531 148.082031 344.214844 149.820312 344.746094 151.570312 C 345.277344 153.316406 345.765625 155.078125 346.210938 156.851562 C 346.652344 158.625 347.054688 160.410156 347.410156 162.203125 C 347.765625 163.996094 348.078125 165.796875 348.347656 167.605469 C 348.617188 169.414062 348.839844 171.226562 349.019531 173.046875 C 349.199219 174.863281 349.332031 176.6875 349.421875 178.511719 C 349.511719 180.339844 349.558594 182.167969 349.558594 183.996094 Z M 349.558594 183.996094 " fill-opacity="1" fill-rule="nonzero"/><path fill="#2b6799" d="M 255.058594 311.355469 C 252.878906 311.355469 250.699219 311.292969 248.523438 311.167969 C 246.347656 311.042969 244.175781 310.855469 242.007812 310.605469 C 239.839844 310.355469 237.683594 310.046875 235.535156 309.671875 C 233.386719 309.300781 231.25 308.867188 229.125 308.371094 C 227.003906 307.875 224.894531 307.320312 222.804688 306.707031 C 220.710938 306.089844 218.636719 305.414062 216.585938 304.679688 C 214.53125 303.945312 212.5 303.152344 210.492188 302.300781 C 208.484375 301.449219 206.503906 300.542969 204.546875 299.578125 C 202.589844 298.613281 200.664062 297.59375 198.765625 296.519531 C 196.871094 295.445312 195.003906 294.316406 193.171875 293.136719 C 191.339844 291.953125 189.542969 290.71875 187.777344 289.4375 C 186.015625 288.152344 184.292969 286.816406 182.605469 285.433594 C 180.921875 284.050781 179.277344 282.621094 177.671875 281.140625 C 176.070312 279.664062 174.507812 278.140625 172.992188 276.574219 C 171.476562 275.007812 170.003906 273.398438 168.582031 271.75 C 167.15625 270.097656 165.78125 268.40625 164.453125 266.675781 C 163.125 264.945312 161.847656 263.179688 160.621094 261.375 C 159.394531 259.574219 158.222656 257.738281 157.101562 255.867188 C 155.976562 253.996094 154.910156 252.09375 153.898438 250.164062 C 152.886719 248.230469 151.929688 246.273438 151.03125 244.285156 C 150.128906 242.300781 149.289062 240.289062 148.503906 238.253906 C 147.71875 236.21875 146.992188 234.164062 146.324219 232.089844 C 145.65625 230.011719 145.050781 227.917969 144.503906 225.808594 C 143.957031 223.695312 143.46875 221.574219 143.042969 219.433594 C 142.617188 217.292969 142.253906 215.144531 141.953125 212.984375 C 141.648438 210.824219 141.410156 208.660156 141.230469 206.484375 C 141.054688 204.3125 140.9375 202.136719 140.882812 199.957031 C 140.828125 197.777344 140.839844 195.597656 140.910156 193.417969 C 140.980469 191.238281 141.113281 189.0625 141.3125 186.890625 C 141.507812 184.71875 141.765625 182.550781 142.085938 180.394531 C 142.40625 178.238281 142.785156 176.09375 143.226562 173.957031 C 143.671875 171.820312 144.175781 169.699219 144.738281 167.59375 C 145.304688 165.488281 145.929688 163.398438 146.613281 161.328125 C 147.296875 159.257812 148.039062 157.207031 148.839844 155.179688 C 149.640625 153.152344 150.5 151.148438 151.417969 149.167969 C 152.332031 147.191406 153.304688 145.238281 154.332031 143.316406 C 155.359375 141.394531 156.441406 139.5 157.578125 137.640625 C 158.714844 135.777344 159.902344 133.949219 161.144531 132.15625 C 162.386719 130.363281 163.675781 128.609375 165.019531 126.890625 C 166.359375 125.167969 167.75 123.492188 169.1875 121.851562 C 170.625 120.210938 172.109375 118.613281 173.636719 117.058594 C 175.167969 115.503906 176.738281 113.996094 178.355469 112.53125 C 179.972656 111.066406 181.628906 109.648438 183.324219 108.277344 C 185.023438 106.910156 186.757812 105.589844 188.527344 104.320312 C 190.300781 103.050781 192.109375 101.832031 193.953125 100.664062 C 195.792969 99.496094 197.667969 98.382812 199.574219 97.324219 C 201.480469 96.265625 203.414062 95.261719 205.378906 94.3125 C 207.34375 93.363281 209.332031 92.472656 211.347656 91.636719 C 213.363281 90.804688 215.398438 90.027344 217.457031 89.308594 C 219.515625 88.589844 221.59375 87.933594 223.691406 87.335938 C 225.789062 86.734375 227.902344 86.195312 230.027344 85.71875 C 232.15625 85.242188 234.296875 84.824219 236.449219 84.46875 C 238.597656 84.113281 240.757812 83.820312 242.925781 83.589844 C 245.097656 83.359375 247.269531 83.1875 249.449219 83.082031 C 251.625 82.972656 253.804688 82.929688 255.984375 82.945312 C 258.167969 82.964844 260.34375 83.046875 262.519531 83.1875 C 264.695312 83.332031 266.867188 83.535156 269.03125 83.800781 C 271.195312 84.070312 273.351562 84.398438 275.496094 84.789062 C 277.640625 85.179688 279.773438 85.628906 281.894531 86.140625 C 284.011719 86.65625 286.117188 87.226562 288.203125 87.859375 C 290.289062 88.492188 292.359375 89.183594 294.40625 89.9375 C 296.453125 90.6875 298.476562 91.496094 300.476562 92.363281 C 302.476562 93.230469 304.453125 94.15625 306.398438 95.136719 C 308.347656 96.117188 310.265625 97.152344 312.15625 98.242188 C 314.042969 99.332031 315.898438 100.476562 317.722656 101.671875 C 319.546875 102.871094 321.332031 104.117188 323.085938 105.417969 C 324.835938 106.714844 326.546875 108.0625 328.222656 109.460938 C 329.898438 110.859375 331.53125 112.300781 333.121094 113.792969 C 334.714844 115.285156 336.261719 116.820312 337.765625 118.398438 C 339.269531 119.976562 340.726562 121.597656 342.136719 123.261719 C 343.546875 124.925781 344.910156 126.625 346.222656 128.367188 C 347.535156 130.109375 348.800781 131.882812 350.011719 133.699219 C 351.222656 135.511719 352.382812 137.359375 353.488281 139.238281 C 354.59375 141.117188 355.644531 143.027344 356.640625 144.964844 C 357.636719 146.90625 358.578125 148.871094 359.460938 150.867188 C 360.34375 152.859375 361.171875 154.878906 361.9375 156.917969 C 362.707031 158.960938 363.417969 161.019531 364.066406 163.101562 C 364.714844 165.183594 365.304688 167.28125 365.835938 169.398438 C 366.367188 171.511719 366.835938 173.640625 367.242188 175.785156 C 367.652344 177.925781 367.996094 180.078125 368.28125 182.242188 C 368.566406 184.402344 368.789062 186.570312 368.949219 188.746094 C 369.109375 190.921875 369.207031 193.097656 369.242188 195.277344 C 369.28125 197.460938 369.253906 199.640625 369.164062 201.816406 C 369.074219 203.996094 368.921875 206.171875 368.710938 208.339844 C 368.496094 210.511719 368.21875 212.675781 367.882812 214.828125 C 367.546875 216.984375 367.144531 219.125 366.6875 221.257812 C 366.226562 223.390625 365.703125 225.503906 365.121094 227.609375 C 364.542969 229.710938 363.898438 231.792969 363.199219 233.859375 C 362.496094 235.921875 361.738281 237.964844 360.921875 239.988281 C 360.101562 242.007812 359.226562 244.003906 358.292969 245.976562 C 357.363281 247.949219 356.375 249.890625 355.332031 251.804688 C 354.285156 253.71875 353.1875 255.605469 352.039062 257.457031 C 350.886719 259.308594 349.683594 261.125 348.425781 262.90625 C 347.171875 264.691406 345.867188 266.4375 344.511719 268.144531 C 343.15625 269.851562 341.75 271.519531 340.300781 273.148438 C 338.847656 274.777344 337.351562 276.359375 335.808594 277.902344 C 333.171875 280.554688 330.410156 283.070312 327.519531 285.453125 C 324.632812 287.832031 321.636719 290.0625 318.527344 292.144531 C 315.417969 294.226562 312.214844 296.152344 308.917969 297.917969 C 305.621094 299.683594 302.242188 301.285156 298.785156 302.714844 C 295.328125 304.148438 291.808594 305.40625 288.226562 306.488281 C 284.648438 307.574219 281.023438 308.476562 277.351562 309.203125 C 273.679688 309.929688 269.984375 310.46875 266.257812 310.828125 C 262.535156 311.1875 258.800781 311.363281 255.058594 311.355469 Z M 255.058594 87.945312 C 194.84375 87.945312 145.851562 136.933594 145.851562 197.152344 C 145.851562 257.375 194.84375 306.355469 255.058594 306.355469 C 315.273438 306.355469 364.261719 257.367188 364.261719 197.152344 C 364.261719 136.9375 315.273438 87.945312 255.058594 87.945312 Z M 255.058594 87.945312 " fill-opacity="1" fill-rule="nonzero"/><path fill="#2b6799" d="M 197.101562 502.144531 L 289.496094 442.355469 C 288.75 444.53125 287.925781 446.675781 287.015625 448.789062 C 286.105469 450.902344 285.117188 452.976562 284.046875 455.011719 C 282.976562 457.050781 281.828125 459.039062 280.601562 460.988281 C 279.378906 462.933594 278.078125 464.832031 276.707031 466.675781 C 275.335938 468.523438 273.890625 470.3125 272.378906 472.046875 C 270.871094 473.78125 269.292969 475.453125 267.652344 477.066406 C 266.011719 478.675781 264.308594 480.222656 262.546875 481.703125 C 260.785156 483.179688 258.96875 484.589844 257.101562 485.929688 C 255.230469 487.265625 253.308594 488.53125 251.339844 489.71875 C 249.371094 490.910156 247.359375 492.019531 245.304688 493.054688 C 243.25 494.085938 241.15625 495.039062 239.027344 495.910156 C 236.898438 496.78125 234.738281 497.566406 232.550781 498.269531 C 230.359375 498.972656 228.144531 499.589844 225.90625 500.121094 C 223.667969 500.652344 221.414062 501.097656 219.140625 501.453125 C 216.867188 501.808594 214.585938 502.078125 212.292969 502.253906 C 210 502.433594 207.703125 502.523438 205.402344 502.523438 C 202.601562 502.523438 199.835938 502.398438 197.101562 502.144531 Z M 197.101562 502.144531 " fill-opacity="1" fill-rule="nonzero"/><path fill="#2b6799" d="M 207.378906 324.894531 L 123.53125 379.171875 C 124.375 377.171875 125.289062 375.207031 126.277344 373.277344 C 127.265625 371.34375 128.324219 369.453125 129.449219 367.597656 C 130.574219 365.742188 131.769531 363.933594 133.027344 362.164062 C 134.285156 360.398438 135.609375 358.679688 136.992188 357.007812 C 138.378906 355.339844 139.820312 353.722656 141.324219 352.15625 C 142.828125 350.59375 144.386719 349.085938 146 347.636719 C 147.613281 346.183594 149.277344 344.796875 150.992188 343.46875 C 152.710938 342.140625 154.472656 340.875 156.277344 339.675781 C 158.085938 338.476562 159.9375 337.34375 161.828125 336.28125 C 163.71875 335.21875 165.644531 334.226562 167.609375 333.300781 C 169.574219 332.378906 171.566406 331.53125 173.59375 330.753906 C 175.621094 329.976562 177.671875 329.277344 179.75 328.648438 C 181.824219 328.023438 183.921875 327.472656 186.039062 327 C 188.15625 326.527344 190.289062 326.132812 192.4375 325.816406 C 194.582031 325.5 196.738281 325.265625 198.902344 325.105469 C 201.066406 324.945312 203.230469 324.867188 205.402344 324.867188 C 206.054688 324.867188 206.722656 324.871094 207.378906 324.894531 Z M 207.378906 324.894531 " fill-opacity="1" fill-rule="nonzero"/><path fill="#2b6799" d="M 241.136719 332.351562 L 116.570312 412.972656 C 116.628906 404.957031 117.75 397.089844 119.941406 389.378906 L 218.191406 325.785156 C 226.136719 326.929688 233.785156 329.117188 241.136719 332.351562 Z M 241.136719 332.351562 " fill-opacity="1" fill-rule="nonzero"/><path fill="#2b6799" d="M 266.277344 349.054688 L 121.421875 442.800781 C 118.9375 435.628906 117.402344 428.257812 116.816406 420.6875 L 248.042969 335.765625 C 254.6875 339.414062 260.765625 343.847656 266.277344 349.054688 Z M 266.277344 349.054688 " fill-opacity="1" fill-rule="nonzero"/><path fill="#2b6799" d="M 283.523438 371.375 L 134.804688 467.617188 C 130.410156 461.882812 126.777344 455.707031 123.894531 449.082031 L 271.039062 353.859375 C 275.914062 359.191406 280.074219 365.03125 283.523438 371.375 Z M 283.523438 371.375 " fill-opacity="1" fill-rule="nonzero"/><path fill="#2b6799" d="M 292.964844 398.738281 L 155.878906 487.453125 C 149.648438 483.257812 144.039062 478.355469 139.042969 472.742188 L 286.460938 377.335938 C 289.539062 384.191406 291.707031 391.328125 292.964844 398.738281 Z M 292.964844 398.738281 " fill-opacity="1" fill-rule="nonzero"/><path fill="#2b6799" d="M 294.21875 413.699219 C 294.226562 420.117188 293.550781 426.460938 292.1875 432.730469 L 187.226562 500.65625 C 178.386719 498.824219 170.027344 495.699219 162.152344 491.292969 L 293.894531 406.027344 C 294.105469 408.554688 294.21875 411.117188 294.21875 413.699219 Z M 294.21875 413.699219 " fill-opacity="1" fill-rule="nonzero"/><path fill="#2b6799" d="M 371.660156 78.371094 L 409.925781 53.613281 C 409.308594 55.417969 408.554688 57.164062 407.667969 58.855469 C 406.78125 60.542969 405.765625 62.152344 404.628906 63.683594 C 403.488281 65.21875 402.238281 66.652344 400.878906 67.988281 C 399.515625 69.324219 398.058594 70.546875 396.507812 71.660156 C 394.953125 72.769531 393.324219 73.753906 391.621094 74.609375 C 389.917969 75.46875 388.15625 76.1875 386.339844 76.769531 C 384.519531 77.351562 382.667969 77.792969 380.785156 78.085938 C 378.898438 78.382812 377.003906 78.53125 375.09375 78.53125 C 373.9375 78.53125 372.792969 78.476562 371.660156 78.371094 Z M 371.660156 78.371094 " fill-opacity="1" fill-rule="nonzero"/><g clip-path="url(#6300043d81)"><path fill="#2b6799" d="M 375.914062 4.96875 L 341.191406 27.4375 C 341.890625 25.777344 342.710938 24.183594 343.644531 22.644531 C 344.578125 21.109375 345.621094 19.648438 346.769531 18.261719 C 347.917969 16.878906 349.160156 15.585938 350.5 14.382812 C 351.835938 13.179688 353.257812 12.082031 354.753906 11.089844 C 356.253906 10.09375 357.820312 9.214844 359.445312 8.449219 C 361.074219 7.683594 362.75 7.042969 364.472656 6.523438 C 366.195312 6.003906 367.945312 5.613281 369.726562 5.351562 C 371.503906 5.089844 373.296875 4.957031 375.09375 4.957031 C 375.367188 4.957031 375.648438 4.957031 375.914062 4.96875 Z M 375.914062 4.96875 " fill-opacity="1" fill-rule="nonzero"/></g><path fill="#2b6799" d="M 389.898438 8.058594 L 338.3125 41.441406 C 338.335938 38.121094 338.800781 34.863281 339.707031 31.667969 L 380.414062 5.339844 C 383.699219 5.8125 386.859375 6.71875 389.898438 8.058594 Z M 389.898438 8.058594 " fill-opacity="1" fill-rule="nonzero"/><path fill="#2b6799" d="M 400.316406 14.96875 L 340.339844 53.816406 C 339.308594 50.855469 338.671875 47.808594 338.425781 44.683594 L 392.769531 9.519531 C 395.515625 11.015625 398.03125 12.828125 400.316406 14.96875 Z M 400.316406 14.96875 " fill-opacity="1" fill-rule="nonzero"/><path fill="#2b6799" d="M 407.445312 24.21875 L 345.859375 64.078125 C 344.042969 61.699219 342.539062 59.140625 341.34375 56.398438 L 402.28125 16.960938 C 404.296875 19.167969 406.019531 21.589844 407.445312 24.21875 Z M 407.445312 24.21875 " fill-opacity="1" fill-rule="nonzero"/><path fill="#2b6799" d="M 411.359375 35.554688 L 354.589844 72.289062 C 352.011719 70.554688 349.6875 68.527344 347.621094 66.203125 L 408.667969 26.691406 C 409.941406 29.53125 410.839844 32.484375 411.359375 35.554688 Z M 411.359375 35.554688 " fill-opacity="1" fill-rule="nonzero"/><path fill="#2b6799" d="M 411.867188 41.746094 C 411.867188 44.402344 411.585938 47.027344 411.019531 49.625 L 367.566406 77.757812 C 363.90625 77 360.441406 75.707031 357.183594 73.878906 L 411.746094 38.566406 C 411.828125 39.601562 411.867188 40.660156 411.867188 41.746094 Z M 411.867188 41.746094 " fill-opacity="1" fill-rule="nonzero"/><g clip-path="url(#52863e4d36)"><path fill="#5caeff" d="M 299.644531 584.902344 L 337.910156 560.140625 C 337.292969 561.949219 336.542969 563.695312 335.652344 565.382812 C 334.765625 567.074219 333.75 568.683594 332.613281 570.214844 C 331.476562 571.746094 330.222656 573.179688 328.863281 574.515625 C 327.5 575.855469 326.042969 577.078125 324.492188 578.1875 C 322.941406 579.296875 321.3125 580.28125 319.605469 581.140625 C 317.902344 581.996094 316.140625 582.714844 314.324219 583.300781 C 312.507812 583.882812 310.65625 584.320312 308.769531 584.617188 C 306.886719 584.910156 304.988281 585.058594 303.078125 585.058594 C 301.921875 585.058594 300.777344 585.007812 299.644531 584.902344 Z M 299.644531 584.902344 " fill-opacity="1" fill-rule="nonzero"/></g><path fill="#5caeff" d="M 303.902344 511.5 L 269.179688 533.972656 C 269.878906 532.3125 270.695312 530.714844 271.628906 529.179688 C 272.5625 527.640625 273.605469 526.179688 274.753906 524.792969 C 275.902344 523.410156 277.144531 522.113281 278.480469 520.914062 C 279.820312 519.710938 281.238281 518.613281 282.738281 517.617188 C 284.238281 516.621094 285.800781 515.742188 287.429688 514.976562 C 289.058594 514.214844 290.734375 513.570312 292.457031 513.050781 C 294.179688 512.535156 295.929688 512.144531 297.710938 511.878906 C 299.492188 511.617188 301.28125 511.488281 303.078125 511.488281 C 303.355469 511.488281 303.632812 511.488281 303.902344 511.5 Z M 303.902344 511.5 " fill-opacity="1" fill-rule="nonzero"/><path fill="#5caeff" d="M 317.882812 514.585938 L 266.277344 547.972656 C 266.300781 544.652344 266.765625 541.394531 267.671875 538.203125 L 308.382812 511.894531 C 311.671875 512.355469 314.839844 513.253906 317.882812 514.585938 Z M 317.882812 514.585938 " fill-opacity="1" fill-rule="nonzero"/><path fill="#5caeff" d="M 328.300781 521.496094 L 268.304688 560.320312 C 267.28125 557.355469 266.644531 554.3125 266.398438 551.1875 L 320.738281 516.023438 C 323.492188 517.527344 326.011719 519.351562 328.300781 521.496094 Z M 328.300781 521.496094 " fill-opacity="1" fill-rule="nonzero"/><path fill="#5caeff" d="M 335.429688 530.75 L 273.84375 570.605469 C 272.027344 568.230469 270.523438 565.671875 269.328125 562.925781 L 330.265625 523.496094 C 332.28125 525.703125 334.003906 528.121094 335.429688 530.75 Z M 335.429688 530.75 " fill-opacity="1" fill-rule="nonzero"/><path fill="#5caeff" d="M 339.324219 542.082031 L 282.554688 578.820312 C 279.976562 577.085938 277.652344 575.054688 275.585938 572.734375 L 336.652344 533.199219 C 337.921875 536.046875 338.8125 539.007812 339.324219 542.082031 Z M 339.324219 542.082031 " fill-opacity="1" fill-rule="nonzero"/><path fill="#5caeff" d="M 339.867188 548.277344 C 339.867188 550.933594 339.585938 553.5625 339.019531 556.160156 L 295.550781 584.289062 C 291.890625 583.53125 288.429688 582.238281 285.167969 580.40625 L 339.730469 545.101562 C 339.824219 546.144531 339.867188 547.203125 339.867188 548.277344 Z M 339.867188 548.277344 " fill-opacity="1" fill-rule="nonzero"/><g clip-path="url(#63c75f297d)"><path fill="#2b6799" d="M 116.570312 260.476562 C 116.570312 261.609375 116.515625 262.742188 116.40625 263.871094 C 116.292969 264.996094 116.128906 266.117188 115.90625 267.230469 C 115.683594 268.339844 115.410156 269.4375 115.082031 270.523438 C 114.753906 271.605469 114.371094 272.671875 113.9375 273.71875 C 113.503906 274.765625 113.019531 275.789062 112.484375 276.789062 C 111.953125 277.789062 111.371094 278.757812 110.738281 279.703125 C 110.109375 280.644531 109.4375 281.554688 108.71875 282.429688 C 107.996094 283.304688 107.238281 284.144531 106.4375 284.945312 C 105.636719 285.746094 104.796875 286.507812 103.921875 287.226562 C 103.042969 287.945312 102.136719 288.617188 101.191406 289.25 C 100.25 289.878906 99.28125 290.460938 98.28125 290.996094 C 97.28125 291.527344 96.257812 292.011719 95.210938 292.445312 C 94.164062 292.878906 93.097656 293.261719 92.015625 293.589844 C 90.929688 293.917969 89.832031 294.195312 88.71875 294.414062 C 87.609375 294.636719 86.488281 294.800781 85.359375 294.914062 C 84.234375 295.023438 83.101562 295.078125 81.96875 295.078125 C 80.835938 295.078125 79.707031 295.023438 78.578125 294.914062 C 77.449219 294.800781 76.332031 294.636719 75.21875 294.414062 C 74.105469 294.195312 73.007812 293.917969 71.925781 293.589844 C 70.839844 293.261719 69.773438 292.878906 68.726562 292.445312 C 67.679688 292.011719 66.65625 291.527344 65.65625 290.996094 C 64.660156 290.460938 63.6875 289.878906 62.746094 289.25 C 61.804688 288.617188 60.894531 287.945312 60.019531 287.226562 C 59.140625 286.507812 58.304688 285.746094 57.503906 284.945312 C 56.699219 284.144531 55.941406 283.304688 55.222656 282.429688 C 54.503906 281.554688 53.828125 280.644531 53.199219 279.703125 C 52.570312 278.757812 51.988281 277.789062 51.453125 276.789062 C 50.917969 275.789062 50.433594 274.765625 50 273.71875 C 49.566406 272.671875 49.1875 271.605469 48.855469 270.523438 C 48.527344 269.4375 48.253906 268.339844 48.03125 267.230469 C 47.8125 266.117188 47.644531 264.996094 47.535156 263.871094 C 47.421875 262.742188 47.367188 261.609375 47.367188 260.476562 C 47.367188 259.34375 47.421875 258.214844 47.535156 257.085938 C 47.644531 255.957031 47.8125 254.839844 48.03125 253.726562 C 48.253906 252.617188 48.527344 251.519531 48.855469 250.433594 C 49.1875 249.347656 49.566406 248.285156 50 247.238281 C 50.433594 246.191406 50.917969 245.167969 51.453125 244.167969 C 51.988281 243.167969 52.570312 242.195312 53.199219 241.253906 C 53.828125 240.3125 54.503906 239.402344 55.222656 238.527344 C 55.941406 237.652344 56.699219 236.8125 57.503906 236.011719 C 58.304688 235.210938 59.140625 234.449219 60.019531 233.730469 C 60.894531 233.011719 61.804688 232.335938 62.746094 231.707031 C 63.6875 231.078125 64.660156 230.496094 65.65625 229.960938 C 66.65625 229.425781 67.679688 228.945312 68.726562 228.511719 C 69.773438 228.078125 70.839844 227.695312 71.925781 227.367188 C 73.007812 227.039062 74.105469 226.761719 75.21875 226.539062 C 76.332031 226.320312 77.449219 226.152344 78.578125 226.042969 C 79.707031 225.933594 80.835938 225.875 81.96875 225.875 C 83.101562 225.875 84.234375 225.933594 85.359375 226.042969 C 86.488281 226.152344 87.609375 226.320312 88.71875 226.539062 C 89.832031 226.761719 90.929688 227.039062 92.015625 227.367188 C 93.097656 227.695312 94.164062 228.078125 95.210938 228.511719 C 96.257812 228.945312 97.28125 229.425781 98.28125 229.960938 C 99.28125 230.496094 100.25 231.078125 101.191406 231.707031 C 102.136719 232.335938 103.042969 233.011719 103.921875 233.730469 C 104.796875 234.449219 105.636719 235.210938 106.4375 236.011719 C 107.238281 236.8125 107.996094 237.652344 108.71875 238.527344 C 109.4375 239.402344 110.109375 240.3125 110.738281 241.253906 C 111.371094 242.195312 111.953125 243.167969 112.484375 244.167969 C 113.019531 245.167969 113.503906 246.191406 113.9375 247.238281 C 114.371094 248.285156 114.753906 249.347656 115.082031 250.433594 C 115.410156 251.519531 115.683594 252.617188 115.90625 253.726562 C 116.128906 254.839844 116.292969 255.957031 116.40625 257.085938 C 116.515625 258.214844 116.570312 259.34375 116.570312 260.476562 Z M 116.570312 260.476562 " fill-opacity="1" fill-rule="nonzero"/></g><g clip-path="url(#ec2153b688)"><path fill="#5caeff" d="M 657.632812 343.816406 C 657.632812 344.949219 657.578125 346.078125 657.464844 347.207031 C 657.355469 348.335938 657.1875 349.453125 656.964844 350.566406 C 656.746094 351.675781 656.472656 352.773438 656.140625 353.859375 C 655.8125 354.945312 655.429688 356.007812 654.996094 357.054688 C 654.5625 358.101562 654.082031 359.125 653.546875 360.125 C 653.011719 361.125 652.429688 362.097656 651.800781 363.039062 C 651.171875 363.980469 650.496094 364.890625 649.777344 365.765625 C 649.058594 366.640625 648.296875 367.480469 647.496094 368.28125 C 646.695312 369.082031 645.855469 369.84375 644.980469 370.5625 C 644.105469 371.28125 643.195312 371.957031 642.253906 372.585938 C 641.3125 373.214844 640.339844 373.796875 639.339844 374.332031 C 638.339844 374.867188 637.316406 375.347656 636.269531 375.78125 C 635.222656 376.214844 634.160156 376.597656 633.074219 376.925781 C 631.988281 377.253906 630.890625 377.53125 629.78125 377.75 C 628.667969 377.972656 627.550781 378.140625 626.421875 378.25 C 625.292969 378.359375 624.164062 378.417969 623.03125 378.417969 C 621.894531 378.417969 620.765625 378.359375 619.636719 378.25 C 618.511719 378.140625 617.390625 377.972656 616.277344 377.75 C 615.167969 377.53125 614.070312 377.253906 612.984375 376.925781 C 611.902344 376.597656 610.835938 376.214844 609.789062 375.78125 C 608.742188 375.347656 607.71875 374.867188 606.71875 374.332031 C 605.71875 373.796875 604.75 373.214844 603.804688 372.585938 C 602.863281 371.957031 601.953125 371.28125 601.078125 370.5625 C 600.203125 369.84375 599.363281 369.082031 598.5625 368.28125 C 597.761719 367.480469 597 366.640625 596.28125 365.765625 C 595.5625 364.890625 594.890625 363.980469 594.257812 363.039062 C 593.628906 362.097656 593.046875 361.125 592.511719 360.125 C 591.980469 359.125 591.496094 358.101562 591.0625 357.054688 C 590.628906 356.007812 590.246094 354.945312 589.917969 353.859375 C 589.589844 352.773438 589.3125 351.675781 589.09375 350.566406 C 588.871094 349.453125 588.707031 348.335938 588.59375 347.207031 C 588.484375 346.078125 588.429688 344.949219 588.429688 343.816406 C 588.429688 342.679688 588.484375 341.550781 588.59375 340.421875 C 588.707031 339.296875 588.871094 338.175781 589.09375 337.0625 C 589.3125 335.953125 589.589844 334.855469 589.917969 333.769531 C 590.246094 332.6875 590.628906 331.621094 591.0625 330.574219 C 591.496094 329.527344 591.980469 328.503906 592.511719 327.503906 C 593.046875 326.503906 593.628906 325.535156 594.257812 324.589844 C 594.890625 323.648438 595.5625 322.738281 596.28125 321.863281 C 597 320.988281 597.761719 320.148438 598.5625 319.347656 C 599.363281 318.546875 600.203125 317.785156 601.078125 317.066406 C 601.953125 316.347656 602.863281 315.675781 603.804688 315.042969 C 604.75 314.414062 605.71875 313.832031 606.71875 313.296875 C 607.71875 312.765625 608.742188 312.28125 609.789062 311.847656 C 610.835938 311.414062 611.902344 311.03125 612.984375 310.703125 C 614.070312 310.375 615.167969 310.097656 616.277344 309.878906 C 617.390625 309.65625 618.511719 309.492188 619.636719 309.378906 C 620.765625 309.269531 621.894531 309.214844 623.03125 309.214844 C 624.164062 309.214844 625.292969 309.269531 626.421875 309.378906 C 627.550781 309.492188 628.667969 309.65625 629.78125 309.878906 C 630.890625 310.097656 631.988281 310.375 633.074219 310.703125 C 634.160156 311.03125 635.222656 311.414062 636.269531 311.847656 C 637.316406 312.28125 638.339844 312.765625 639.339844 313.296875 C 640.339844 313.832031 641.3125 314.414062 642.253906 315.042969 C 643.195312 315.675781 644.105469 316.347656 644.980469 317.066406 C 645.855469 317.785156 646.695312 318.546875 647.496094 319.347656 C 648.296875 320.148438 649.058594 320.988281 649.777344 321.863281 C 650.496094 322.738281 651.171875 323.648438 651.800781 324.589844 C 652.429688 325.535156 653.011719 326.503906 653.546875 327.503906 C 654.078125 328.503906 654.5625 329.527344 654.996094 330.574219 C 655.429688 331.621094 655.8125 332.6875 656.140625 333.769531 C 656.46875 334.855469 656.746094 335.953125 656.964844 337.0625 C 657.1875 338.175781 657.355469 339.296875 657.464844 340.421875 C 657.578125 341.550781 657.632812 342.679688 657.632812 343.816406 Z M 657.632812 343.816406 " fill-opacity="1" fill-rule="nonzero"/></g><path fill="#5caeff" d="M 160.863281 511.726562 C 159.128906 511.726562 157.394531 511.675781 155.664062 511.578125 C 153.933594 511.476562 152.207031 511.328125 150.484375 511.132812 C 148.761719 510.933594 147.046875 510.6875 145.339844 510.390625 C 143.628906 510.09375 141.933594 509.746094 140.242188 509.355469 C 138.554688 508.960938 136.878906 508.519531 135.214844 508.027344 C 133.550781 507.539062 131.902344 507 130.273438 506.417969 C 128.640625 505.832031 127.023438 505.203125 125.429688 504.527344 C 123.832031 503.851562 122.257812 503.128906 120.703125 502.359375 C 119.144531 501.59375 117.613281 500.78125 116.105469 499.929688 C 114.597656 499.074219 113.113281 498.175781 111.65625 497.238281 C 110.199219 496.296875 108.769531 495.316406 107.371094 494.296875 C 105.96875 493.273438 104.597656 492.214844 103.257812 491.113281 C 101.917969 490.011719 100.609375 488.875 99.335938 487.699219 C 98.058594 486.527344 96.820312 485.316406 95.613281 484.070312 C 94.40625 482.824219 93.238281 481.542969 92.105469 480.230469 C 90.972656 478.917969 89.878906 477.574219 88.824219 476.199219 C 87.769531 474.824219 86.753906 473.417969 85.777344 471.984375 C 84.804688 470.550781 83.871094 469.089844 82.980469 467.601562 C 82.085938 466.117188 81.238281 464.605469 80.433594 463.070312 C 79.628906 461.53125 78.871094 459.976562 78.152344 458.394531 C 77.4375 456.816406 76.769531 455.21875 76.144531 453.601562 C 75.519531 451.984375 74.945312 450.347656 74.414062 448.699219 C 73.882812 447.046875 73.402344 445.382812 72.964844 443.703125 C 72.53125 442.027344 72.144531 440.335938 71.804688 438.636719 C 71.46875 436.933594 71.179688 435.226562 70.9375 433.507812 C 70.699219 431.792969 70.507812 430.070312 70.363281 428.339844 C 70.222656 426.613281 70.132812 424.882812 70.089844 423.148438 C 70.046875 421.414062 70.054688 419.683594 70.109375 417.949219 C 70.167969 416.214844 70.273438 414.488281 70.429688 412.761719 C 70.585938 411.03125 70.789062 409.3125 71.042969 407.597656 C 71.296875 405.882812 71.601562 404.175781 71.953125 402.476562 C 72.304688 400.78125 72.707031 399.09375 73.15625 397.417969 C 73.605469 395.746094 74.101562 394.082031 74.644531 392.4375 C 75.1875 390.792969 75.777344 389.160156 76.417969 387.550781 C 77.054688 385.9375 77.738281 384.34375 78.464844 382.769531 C 79.195312 381.195312 79.964844 379.644531 80.785156 378.117188 C 81.601562 376.585938 82.460938 375.082031 83.363281 373.601562 C 84.269531 372.125 85.214844 370.671875 86.199219 369.246094 C 87.1875 367.820312 88.214844 366.421875 89.28125 365.054688 C 90.347656 363.6875 91.453125 362.355469 92.597656 361.050781 C 93.738281 359.746094 94.917969 358.476562 96.132812 357.242188 C 97.351562 356.003906 98.601562 354.804688 99.886719 353.640625 C 101.171875 352.476562 102.488281 351.347656 103.835938 350.261719 C 105.1875 349.171875 106.566406 348.121094 107.972656 347.113281 C 109.382812 346.101562 110.820312 345.132812 112.285156 344.207031 C 113.75 343.277344 115.242188 342.394531 116.757812 341.550781 C 118.273438 340.707031 119.8125 339.910156 121.371094 339.15625 C 122.933594 338.402344 124.515625 337.695312 126.117188 337.03125 C 127.71875 336.367188 129.339844 335.75 130.976562 335.179688 C 132.613281 334.609375 134.265625 334.085938 135.933594 333.609375 C 137.597656 333.132812 139.277344 332.703125 140.96875 332.324219 C 142.664062 331.945312 144.363281 331.613281 146.074219 331.332031 C 147.785156 331.046875 149.503906 330.816406 151.226562 330.632812 C 152.949219 330.445312 154.679688 330.3125 156.410156 330.226562 C 158.140625 330.140625 159.875 330.105469 161.609375 330.121094 C 163.34375 330.136719 165.074219 330.199219 166.804688 330.3125 C 168.535156 330.425781 170.261719 330.589844 171.980469 330.800781 C 173.703125 331.011719 175.414062 331.273438 177.121094 331.585938 C 178.828125 331.894531 180.523438 332.253906 182.207031 332.660156 C 183.894531 333.070312 185.566406 333.523438 187.222656 334.027344 C 188.882812 334.53125 190.527344 335.082031 192.15625 335.679688 C 193.78125 336.277344 195.390625 336.921875 196.980469 337.609375 C 198.574219 338.300781 200.144531 339.035156 201.691406 339.8125 C 203.242188 340.59375 204.765625 341.417969 206.265625 342.285156 C 207.769531 343.152344 209.246094 344.058594 210.695312 345.011719 C 212.144531 345.960938 213.5625 346.953125 214.957031 347.988281 C 216.351562 349.019531 217.710938 350.09375 219.042969 351.203125 C 220.375 352.3125 221.671875 353.460938 222.9375 354.648438 C 224.203125 355.832031 225.433594 357.054688 226.628906 358.308594 C 227.824219 359.566406 228.984375 360.855469 230.105469 362.175781 C 231.226562 363.496094 232.308594 364.851562 233.355469 366.234375 C 234.398438 367.621094 235.402344 369.03125 236.367188 370.472656 C 237.328125 371.914062 238.25 373.382812 239.128906 374.878906 C 240.007812 376.371094 240.84375 377.890625 241.636719 379.433594 C 242.429688 380.976562 243.175781 382.539062 243.878906 384.125 C 244.582031 385.710938 245.238281 387.3125 245.847656 388.9375 C 246.460938 390.558594 247.023438 392.199219 247.539062 393.851562 C 248.058594 395.507812 248.527344 397.175781 248.949219 398.859375 C 249.371094 400.539062 249.742188 402.234375 250.066406 403.9375 C 250.390625 405.640625 250.667969 407.351562 250.890625 409.070312 C 251.117188 410.789062 251.296875 412.511719 251.421875 414.242188 C 251.550781 415.96875 251.628906 417.703125 251.65625 419.4375 C 251.683594 421.167969 251.664062 422.902344 251.59375 424.636719 C 251.523438 426.367188 251.402344 428.097656 251.230469 429.820312 C 251.0625 431.546875 250.84375 433.265625 250.574219 434.980469 C 250.304688 436.691406 249.988281 438.394531 249.621094 440.089844 C 249.257812 441.785156 248.84375 443.46875 248.378906 445.140625 C 247.917969 446.8125 247.40625 448.46875 246.851562 450.109375 C 246.292969 451.75 245.691406 453.375 245.039062 454.984375 C 244.390625 456.589844 243.691406 458.175781 242.953125 459.746094 C 242.210938 461.3125 241.425781 462.855469 240.59375 464.378906 C 239.765625 465.902344 238.890625 467.398438 237.976562 468.871094 C 237.0625 470.34375 236.105469 471.789062 235.105469 473.207031 C 234.109375 474.625 233.070312 476.011719 231.992188 477.371094 C 230.914062 478.730469 229.796875 480.054688 228.644531 481.347656 C 227.492188 482.644531 226.300781 483.902344 225.074219 485.128906 C 222.976562 487.238281 220.78125 489.238281 218.484375 491.132812 C 216.1875 493.023438 213.804688 494.796875 211.332031 496.453125 C 208.859375 498.109375 206.3125 499.640625 203.691406 501.046875 C 201.066406 502.449219 198.382812 503.722656 195.632812 504.859375 C 192.882812 506 190.085938 507 187.238281 507.859375 C 184.390625 508.722656 181.507812 509.441406 178.589844 510.015625 C 175.667969 510.59375 172.730469 511.023438 169.765625 511.308594 C 166.804688 511.597656 163.835938 511.734375 160.863281 511.726562 Z M 160.863281 334.074219 C 112.980469 334.074219 74.015625 373.03125 74.015625 420.917969 C 74.015625 468.804688 112.972656 507.753906 160.855469 507.753906 C 208.738281 507.753906 247.699219 468.800781 247.699219 420.917969 C 247.699219 373.035156 208.746094 334.074219 160.863281 334.074219 Z M 160.863281 334.074219 " fill-opacity="1" fill-rule="nonzero"/><path fill="#2b6799" d="M 524.859375 291.777344 C 523.125 291.777344 521.394531 291.726562 519.664062 291.628906 C 517.929688 291.527344 516.203125 291.378906 514.480469 291.183594 C 512.761719 290.984375 511.042969 290.738281 509.335938 290.441406 C 507.628906 290.144531 505.929688 289.796875 504.242188 289.40625 C 502.550781 289.011719 500.875 288.570312 499.214844 288.078125 C 497.550781 287.589844 495.902344 287.054688 494.269531 286.46875 C 492.636719 285.882812 491.023438 285.253906 489.425781 284.578125 C 487.828125 283.902344 486.253906 283.179688 484.699219 282.410156 C 483.144531 281.644531 481.613281 280.835938 480.101562 279.980469 C 478.59375 279.125 477.113281 278.226562 475.65625 277.289062 C 474.199219 276.347656 472.769531 275.367188 471.367188 274.347656 C 469.964844 273.324219 468.597656 272.265625 467.253906 271.164062 C 465.914062 270.066406 464.609375 268.925781 463.332031 267.753906 C 462.058594 266.578125 460.816406 265.367188 459.609375 264.121094 C 458.40625 262.875 457.234375 261.59375 456.105469 260.28125 C 454.972656 258.96875 453.878906 257.625 452.820312 256.25 C 451.765625 254.875 450.75 253.46875 449.777344 252.035156 C 448.800781 250.601562 447.867188 249.140625 446.976562 247.65625 C 446.085938 246.167969 445.238281 244.65625 444.433594 243.121094 C 443.628906 241.585938 442.867188 240.027344 442.152344 238.445312 C 441.4375 236.867188 440.765625 235.269531 440.140625 233.652344 C 439.519531 232.035156 438.941406 230.398438 438.410156 228.75 C 437.878906 227.097656 437.398438 225.433594 436.964844 223.753906 C 436.527344 222.078125 436.140625 220.386719 435.804688 218.6875 C 435.464844 216.984375 435.175781 215.277344 434.933594 213.558594 C 434.695312 211.84375 434.503906 210.121094 434.363281 208.390625 C 434.21875 206.664062 434.128906 204.933594 434.085938 203.199219 C 434.042969 201.46875 434.050781 199.734375 434.105469 198 C 434.164062 196.269531 434.269531 194.539062 434.425781 192.8125 C 434.582031 191.085938 434.789062 189.363281 435.042969 187.648438 C 435.296875 185.933594 435.597656 184.226562 435.953125 182.527344 C 436.304688 180.832031 436.703125 179.144531 437.152344 177.46875 C 437.601562 175.796875 438.097656 174.136719 438.640625 172.488281 C 439.1875 170.84375 439.777344 169.210938 440.414062 167.601562 C 441.050781 165.988281 441.734375 164.394531 442.460938 162.820312 C 443.191406 161.25 443.964844 159.695312 444.78125 158.167969 C 445.597656 156.636719 446.460938 155.132812 447.363281 153.652344 C 448.265625 152.175781 449.210938 150.722656 450.199219 149.296875 C 451.183594 147.871094 452.210938 146.472656 453.277344 145.105469 C 454.34375 143.742188 455.449219 142.40625 456.59375 141.101562 C 457.738281 139.796875 458.917969 138.527344 460.132812 137.292969 C 461.347656 136.054688 462.597656 134.855469 463.882812 133.691406 C 465.167969 132.527344 466.484375 131.402344 467.835938 130.3125 C 469.183594 129.222656 470.5625 128.171875 471.972656 127.164062 C 473.382812 126.152344 474.820312 125.183594 476.285156 124.257812 C 477.75 123.328125 479.238281 122.445312 480.753906 121.601562 C 482.269531 120.761719 483.808594 119.960938 485.371094 119.207031 C 486.929688 118.453125 488.511719 117.746094 490.113281 117.082031 C 491.714844 116.417969 493.335938 115.800781 494.972656 115.230469 C 496.609375 114.660156 498.261719 114.136719 499.929688 113.660156 C 501.597656 113.183594 503.277344 112.753906 504.96875 112.375 C 506.660156 111.996094 508.359375 111.664062 510.070312 111.382812 C 511.78125 111.101562 513.5 110.867188 515.222656 110.683594 C 516.949219 110.5 518.675781 110.363281 520.40625 110.277344 C 522.140625 110.195312 523.871094 110.160156 525.605469 110.171875 C 527.339844 110.1875 529.070312 110.25 530.800781 110.363281 C 532.53125 110.476562 534.257812 110.640625 535.976562 110.851562 C 537.699219 111.066406 539.414062 111.324219 541.117188 111.636719 C 542.824219 111.945312 544.519531 112.304688 546.207031 112.714844 C 547.890625 113.121094 549.5625 113.574219 551.222656 114.078125 C 552.882812 114.582031 554.523438 115.132812 556.152344 115.730469 C 557.78125 116.328125 559.390625 116.972656 560.980469 117.660156 C 562.570312 118.351562 564.140625 119.085938 565.6875 119.863281 C 567.238281 120.644531 568.761719 121.46875 570.265625 122.335938 C 571.765625 123.203125 573.242188 124.109375 574.691406 125.0625 C 576.140625 126.015625 577.5625 127.007812 578.953125 128.039062 C 580.347656 129.070312 581.710938 130.144531 583.039062 131.253906 C 584.371094 132.367188 585.671875 133.511719 586.933594 134.699219 C 588.199219 135.882812 589.429688 137.105469 590.628906 138.359375 C 591.824219 139.617188 592.980469 140.90625 594.101562 142.226562 C 595.226562 143.550781 596.308594 144.902344 597.351562 146.285156 C 598.394531 147.671875 599.398438 149.082031 600.363281 150.523438 C 601.328125 151.964844 602.246094 153.433594 603.128906 154.929688 C 604.007812 156.421875 604.84375 157.941406 605.632812 159.484375 C 606.425781 161.027344 607.175781 162.589844 607.875 164.175781 C 608.578125 165.761719 609.234375 167.363281 609.847656 168.988281 C 610.457031 170.609375 611.019531 172.25 611.539062 173.902344 C 612.054688 175.558594 612.523438 177.226562 612.945312 178.910156 C 613.367188 180.589844 613.738281 182.285156 614.0625 183.988281 C 614.386719 185.691406 614.664062 187.402344 614.890625 189.121094 C 615.117188 190.839844 615.292969 192.5625 615.421875 194.292969 C 615.546875 196.023438 615.625 197.753906 615.65625 199.488281 C 615.683594 201.21875 615.660156 202.953125 615.589844 204.6875 C 615.519531 206.417969 615.398438 208.148438 615.230469 209.871094 C 615.058594 211.597656 614.839844 213.316406 614.570312 215.03125 C 614.304688 216.742188 613.988281 218.449219 613.621094 220.140625 C 613.253906 221.835938 612.839844 223.519531 612.378906 225.191406 C 611.914062 226.863281 611.40625 228.519531 610.847656 230.160156 C 610.289062 231.800781 609.6875 233.425781 609.035156 235.035156 C 608.386719 236.640625 607.691406 238.230469 606.949219 239.796875 C 606.207031 241.363281 605.421875 242.910156 604.59375 244.429688 C 603.761719 245.953125 602.890625 247.449219 601.972656 248.921875 C 601.058594 250.394531 600.101562 251.839844 599.105469 253.257812 C 598.105469 254.675781 597.066406 256.0625 595.988281 257.421875 C 594.910156 258.78125 593.796875 260.105469 592.640625 261.398438 C 591.488281 262.695312 590.296875 263.953125 589.070312 265.179688 C 586.972656 267.289062 584.777344 269.289062 582.480469 271.183594 C 580.183594 273.074219 577.800781 274.847656 575.328125 276.503906 C 572.855469 278.160156 570.308594 279.691406 567.6875 281.09375 C 565.0625 282.5 562.378906 283.769531 559.628906 284.910156 C 556.878906 286.046875 554.082031 287.046875 551.234375 287.910156 C 548.386719 288.773438 545.503906 289.492188 542.585938 290.066406 C 539.667969 290.644531 536.726562 291.074219 533.765625 291.359375 C 530.804688 291.648438 527.835938 291.785156 524.859375 291.777344 Z M 524.859375 114.125 C 476.972656 114.125 438.019531 153.082031 438.019531 200.96875 C 438.019531 248.855469 476.972656 287.804688 524.859375 287.804688 C 572.746094 287.804688 611.695312 248.851562 611.695312 200.96875 C 611.695312 153.085938 572.742188 114.125 524.859375 114.125 Z M 524.859375 114.125 " fill-opacity="1" fill-rule="nonzero"/><path fill="#2b6799" d="M 561.71875 420.917969 C 561.71875 422.746094 561.675781 424.574219 561.585938 426.398438 C 561.496094 428.222656 561.359375 430.046875 561.179688 431.867188 C 561.003906 433.683594 560.777344 435.5 560.511719 437.308594 C 560.242188 439.117188 559.929688 440.917969 559.574219 442.710938 C 559.214844 444.503906 558.816406 446.285156 558.371094 448.058594 C 557.925781 449.832031 557.441406 451.59375 556.910156 453.34375 C 556.378906 455.09375 555.804688 456.828125 555.1875 458.550781 C 554.574219 460.269531 553.914062 461.976562 553.214844 463.664062 C 552.515625 465.351562 551.777344 467.023438 550.996094 468.675781 C 550.210938 470.328125 549.390625 471.960938 548.53125 473.574219 C 547.667969 475.1875 546.765625 476.777344 545.828125 478.34375 C 544.886719 479.914062 543.910156 481.457031 542.894531 482.976562 C 541.878906 484.496094 540.824219 485.992188 539.738281 487.460938 C 538.648438 488.925781 537.523438 490.367188 536.363281 491.78125 C 535.203125 493.195312 534.011719 494.578125 532.78125 495.933594 C 531.554688 497.289062 530.292969 498.609375 529 499.902344 C 527.710938 501.195312 526.386719 502.457031 525.03125 503.683594 C 523.675781 504.914062 522.292969 506.105469 520.878906 507.265625 C 519.464844 508.425781 518.023438 509.550781 516.558594 510.640625 C 515.089844 511.726562 513.59375 512.78125 512.074219 513.796875 C 510.554688 514.8125 509.011719 515.789062 507.441406 516.730469 C 505.875 517.667969 504.285156 518.570312 502.671875 519.429688 C 501.058594 520.292969 499.425781 521.113281 497.773438 521.898438 C 496.121094 522.679688 494.453125 523.417969 492.761719 524.117188 C 491.074219 524.816406 489.367188 525.476562 487.648438 526.089844 C 485.925781 526.707031 484.191406 527.28125 482.441406 527.8125 C 480.691406 528.34375 478.929688 528.828125 477.15625 529.273438 C 475.382812 529.71875 473.601562 530.117188 471.808594 530.476562 C 470.015625 530.832031 468.214844 531.144531 466.40625 531.414062 C 464.597656 531.679688 462.78125 531.90625 460.964844 532.082031 C 459.144531 532.261719 457.320312 532.398438 455.496094 532.488281 C 453.671875 532.578125 451.84375 532.621094 450.015625 532.621094 C 448.1875 532.621094 446.359375 532.578125 444.535156 532.488281 C 442.707031 532.398438 440.886719 532.261719 439.066406 532.082031 C 437.246094 531.90625 435.433594 531.679688 433.625 531.414062 C 431.816406 531.144531 430.015625 530.832031 428.222656 530.476562 C 426.429688 530.117188 424.644531 529.71875 422.871094 529.273438 C 421.101562 528.828125 419.339844 528.34375 417.589844 527.8125 C 415.839844 527.28125 414.105469 526.707031 412.382812 526.089844 C 410.660156 525.476562 408.957031 524.816406 407.265625 524.117188 C 405.578125 523.417969 403.90625 522.679688 402.253906 521.898438 C 400.601562 521.113281 398.96875 520.292969 397.359375 519.429688 C 395.746094 518.570312 394.15625 517.667969 392.585938 516.730469 C 391.019531 515.789062 389.476562 514.8125 387.957031 513.796875 C 386.433594 512.78125 384.941406 511.726562 383.472656 510.640625 C 382.003906 509.550781 380.5625 508.425781 379.152344 507.265625 C 377.738281 506.105469 376.351562 504.914062 375 503.683594 C 373.644531 502.457031 372.320312 501.195312 371.027344 499.902344 C 369.734375 498.609375 368.476562 497.289062 367.246094 495.933594 C 366.019531 494.578125 364.824219 493.195312 363.667969 491.78125 C 362.507812 490.367188 361.382812 488.925781 360.292969 487.460938 C 359.203125 485.992188 358.152344 484.496094 357.136719 482.976562 C 356.121094 481.457031 355.144531 479.914062 354.203125 478.34375 C 353.261719 476.777344 352.363281 475.1875 351.5 473.574219 C 350.640625 471.960938 349.816406 470.328125 349.035156 468.675781 C 348.253906 467.023438 347.511719 465.351562 346.8125 463.664062 C 346.113281 461.976562 345.457031 460.269531 344.839844 458.550781 C 344.222656 456.828125 343.652344 455.09375 343.121094 453.34375 C 342.589844 451.59375 342.101562 449.832031 341.660156 448.058594 C 341.214844 446.285156 340.8125 444.503906 340.457031 442.710938 C 340.101562 440.917969 339.789062 439.117188 339.519531 437.308594 C 339.25 435.5 339.027344 433.683594 338.847656 431.867188 C 338.667969 430.046875 338.535156 428.222656 338.445312 426.398438 C 338.355469 424.574219 338.3125 422.746094 338.3125 420.917969 C 338.3125 419.089844 338.355469 417.261719 338.445312 415.4375 C 338.535156 413.609375 338.667969 411.789062 338.847656 409.96875 C 339.027344 408.148438 339.25 406.335938 339.519531 404.527344 C 339.789062 402.71875 340.101562 400.917969 340.457031 399.125 C 340.8125 397.332031 341.214844 395.546875 341.660156 393.773438 C 342.101562 392 342.589844 390.242188 343.121094 388.492188 C 343.652344 386.742188 344.222656 385.007812 344.839844 383.285156 C 345.457031 381.5625 346.113281 379.859375 346.8125 378.167969 C 347.511719 376.480469 348.253906 374.808594 349.035156 373.15625 C 349.816406 371.503906 350.640625 369.871094 351.5 368.261719 C 352.363281 366.648438 353.261719 365.058594 354.203125 363.488281 C 355.144531 361.921875 356.121094 360.378906 357.136719 358.859375 C 358.152344 357.335938 359.203125 355.84375 360.292969 354.375 C 361.382812 352.90625 362.507812 351.464844 363.667969 350.054688 C 364.824219 348.640625 366.019531 347.253906 367.246094 345.902344 C 368.476562 344.546875 369.734375 343.222656 371.027344 341.929688 C 372.320312 340.636719 373.644531 339.378906 375 338.148438 C 376.351562 336.921875 377.738281 335.726562 379.152344 334.570312 C 380.5625 333.410156 382.003906 332.285156 383.472656 331.195312 C 384.941406 330.105469 386.433594 329.054688 387.957031 328.039062 C 389.476562 327.023438 391.019531 326.046875 392.585938 325.105469 C 394.15625 324.164062 395.746094 323.265625 397.359375 322.402344 C 398.96875 321.542969 400.601562 320.71875 402.253906 319.9375 C 403.90625 319.15625 405.578125 318.414062 407.265625 317.714844 C 408.957031 317.015625 410.660156 316.359375 412.382812 315.742188 C 414.105469 315.125 415.839844 314.554688 417.589844 314.023438 C 419.339844 313.492188 421.101562 313.003906 422.871094 312.5625 C 424.644531 312.117188 426.429688 311.714844 428.222656 311.359375 C 430.015625 311.003906 431.816406 310.691406 433.625 310.421875 C 435.433594 310.152344 437.246094 309.929688 439.066406 309.75 C 440.886719 309.570312 442.707031 309.4375 444.535156 309.347656 C 446.359375 309.257812 448.1875 309.214844 450.015625 309.214844 C 451.84375 309.214844 453.671875 309.257812 455.496094 309.347656 C 457.320312 309.4375 459.144531 309.570312 460.964844 309.75 C 462.78125 309.929688 464.597656 310.152344 466.40625 310.421875 C 468.214844 310.691406 470.015625 311.003906 471.808594 311.359375 C 473.601562 311.714844 475.382812 312.117188 477.15625 312.5625 C 478.929688 313.003906 480.691406 313.492188 482.441406 314.023438 C 484.191406 314.554688 485.925781 315.125 487.648438 315.742188 C 489.367188 316.359375 491.074219 317.015625 492.761719 317.714844 C 494.453125 318.414062 496.121094 319.15625 497.773438 319.9375 C 499.425781 320.71875 501.058594 321.542969 502.671875 322.402344 C 504.285156 323.265625 505.875 324.164062 507.441406 325.105469 C 509.011719 326.046875 510.554688 327.023438 512.074219 328.039062 C 513.59375 329.054688 515.089844 330.105469 516.558594 331.195312 C 518.027344 332.285156 519.464844 333.410156 520.878906 334.570312 C 522.292969 335.726562 523.675781 336.921875 525.03125 338.148438 C 526.386719 339.378906 527.710938 340.636719 529 341.929688 C 530.292969 343.222656 531.554688 344.546875 532.78125 345.902344 C 534.011719 347.253906 535.203125 348.640625 536.363281 350.054688 C 537.523438 351.464844 538.648438 352.90625 539.738281 354.375 C 540.824219 355.84375 541.878906 357.335938 542.894531 358.859375 C 543.910156 360.378906 544.886719 361.921875 545.828125 363.488281 C 546.765625 365.058594 547.667969 366.648438 548.53125 368.261719 C 549.390625 369.871094 550.210938 371.503906 550.996094 373.15625 C 551.777344 374.808594 552.515625 376.480469 553.214844 378.167969 C 553.914062 379.859375 554.574219 381.5625 555.1875 383.285156 C 555.804688 385.007812 556.378906 386.742188 556.910156 388.492188 C 557.441406 390.242188 557.925781 392 558.371094 393.773438 C 558.816406 395.546875 559.214844 397.332031 559.574219 399.125 C 559.929688 400.917969 560.242188 402.71875 560.511719 404.527344 C 560.777344 406.335938 561.003906 408.148438 561.179688 409.96875 C 561.359375 411.789062 561.496094 413.609375 561.585938 415.4375 C 561.675781 417.261719 561.71875 419.089844 561.71875 420.917969 Z M 561.71875 420.917969 " fill-opacity="1" fill-rule="nonzero"/><path fill="#5caeff" d="M 467.222656 548.277344 C 465.042969 548.277344 462.863281 548.214844 460.683594 548.089844 C 458.507812 547.964844 456.335938 547.777344 454.167969 547.527344 C 452.003906 547.277344 449.847656 546.96875 447.699219 546.59375 C 445.546875 546.222656 443.414062 545.789062 441.289062 545.292969 C 439.164062 544.796875 437.058594 544.242188 434.964844 543.625 C 432.875 543.011719 430.800781 542.335938 428.746094 541.601562 C 426.695312 540.867188 424.664062 540.074219 422.65625 539.222656 C 420.648438 538.371094 418.667969 537.464844 416.710938 536.5 C 414.753906 535.535156 412.828125 534.515625 410.929688 533.441406 C 409.03125 532.363281 407.167969 531.238281 405.335938 530.054688 C 403.503906 528.875 401.703125 527.640625 399.941406 526.355469 C 398.179688 525.070312 396.457031 523.738281 394.769531 522.351562 C 393.085938 520.96875 391.441406 519.539062 389.835938 518.0625 C 388.234375 516.585938 386.671875 515.0625 385.15625 513.496094 C 383.640625 511.929688 382.167969 510.320312 380.746094 508.667969 C 379.320312 507.015625 377.945312 505.324219 376.617188 503.59375 C 375.289062 501.867188 374.011719 500.097656 372.785156 498.296875 C 371.558594 496.492188 370.386719 494.65625 369.265625 492.785156 C 368.144531 490.914062 367.078125 489.011719 366.066406 487.082031 C 365.050781 485.148438 364.097656 483.191406 363.195312 481.207031 C 362.296875 479.21875 361.453125 477.207031 360.667969 475.171875 C 359.882812 473.140625 359.15625 471.082031 358.492188 469.007812 C 357.824219 466.929688 357.214844 464.835938 356.667969 462.726562 C 356.121094 460.617188 355.636719 458.492188 355.210938 456.351562 C 354.785156 454.214844 354.421875 452.0625 354.117188 449.90625 C 353.816406 447.746094 353.578125 445.578125 353.398438 443.40625 C 353.21875 441.230469 353.105469 439.054688 353.050781 436.875 C 352.996094 434.695312 353.003906 432.515625 353.078125 430.335938 C 353.148438 428.15625 353.28125 425.980469 353.476562 423.808594 C 353.675781 421.636719 353.933594 419.472656 354.253906 417.316406 C 354.570312 415.15625 354.953125 413.011719 355.394531 410.875 C 355.839844 408.742188 356.34375 406.621094 356.90625 404.511719 C 357.472656 402.40625 358.097656 400.320312 358.78125 398.246094 C 359.464844 396.175781 360.207031 394.128906 361.007812 392.097656 C 361.808594 390.070312 362.667969 388.066406 363.585938 386.089844 C 364.5 384.109375 365.472656 382.160156 366.5 380.234375 C 367.527344 378.3125 368.609375 376.421875 369.746094 374.558594 C 370.882812 372.699219 372.074219 370.871094 373.3125 369.078125 C 374.554688 367.285156 375.847656 365.527344 377.1875 363.808594 C 378.527344 362.089844 379.917969 360.410156 381.355469 358.769531 C 382.792969 357.132812 384.277344 355.535156 385.808594 353.980469 C 387.335938 352.425781 388.910156 350.914062 390.523438 349.449219 C 392.140625 347.988281 393.796875 346.570312 395.496094 345.199219 C 397.191406 343.832031 398.925781 342.511719 400.699219 341.238281 C 402.472656 339.96875 404.277344 338.75 406.121094 337.585938 C 407.964844 336.417969 409.835938 335.304688 411.742188 334.246094 C 413.648438 333.1875 415.585938 332.183594 417.546875 331.234375 C 419.511719 330.285156 421.5 329.394531 423.515625 328.558594 C 425.53125 327.726562 427.566406 326.949219 429.625 326.230469 C 431.6875 325.511719 433.765625 324.855469 435.859375 324.257812 C 437.957031 323.65625 440.070312 323.117188 442.199219 322.640625 C 444.324219 322.164062 446.464844 321.746094 448.617188 321.390625 C 450.769531 321.035156 452.929688 320.742188 455.097656 320.511719 C 457.265625 320.28125 459.4375 320.109375 461.617188 320.003906 C 463.792969 319.894531 465.972656 319.851562 468.15625 319.871094 C 470.335938 319.886719 472.515625 319.96875 474.691406 320.109375 C 476.867188 320.253906 479.035156 320.457031 481.199219 320.726562 C 483.363281 320.992188 485.519531 321.320312 487.664062 321.710938 C 489.8125 322.101562 491.941406 322.550781 494.0625 323.066406 C 496.183594 323.578125 498.285156 324.148438 500.371094 324.785156 C 502.460938 325.417969 504.527344 326.109375 506.574219 326.859375 C 508.621094 327.613281 510.644531 328.421875 512.644531 329.289062 C 514.644531 330.15625 516.621094 331.078125 518.570312 332.058594 C 520.515625 333.039062 522.433594 334.074219 524.324219 335.167969 C 526.210938 336.257812 528.066406 337.398438 529.890625 338.597656 C 531.714844 339.792969 533.5 341.042969 535.253906 342.339844 C 537.003906 343.640625 538.71875 344.988281 540.390625 346.382812 C 542.066406 347.78125 543.699219 349.226562 545.289062 350.714844 C 546.882812 352.207031 548.429688 353.742188 549.933594 355.320312 C 551.4375 356.902344 552.894531 358.523438 554.304688 360.183594 C 555.714844 361.847656 557.078125 363.550781 558.390625 365.289062 C 559.703125 367.03125 560.96875 368.808594 562.179688 370.621094 C 563.390625 372.433594 564.550781 374.28125 565.65625 376.160156 C 566.761719 378.039062 567.8125 379.949219 568.808594 381.890625 C 569.804688 383.828125 570.746094 385.796875 571.628906 387.789062 C 572.511719 389.785156 573.339844 391.800781 574.105469 393.839844 C 574.875 395.882812 575.582031 397.945312 576.234375 400.027344 C 576.882812 402.105469 577.472656 404.207031 578.003906 406.320312 C 578.535156 408.4375 579.003906 410.566406 579.410156 412.707031 C 579.816406 414.847656 580.164062 417 580.449219 419.164062 C 580.734375 421.324219 580.957031 423.492188 581.117188 425.667969 C 581.277344 427.84375 581.375 430.019531 581.410156 432.203125 C 581.445312 434.382812 581.421875 436.5625 581.332031 438.742188 C 581.242188 440.917969 581.089844 443.09375 580.875 445.265625 C 580.664062 447.433594 580.386719 449.597656 580.050781 451.75 C 579.710938 453.90625 579.3125 456.046875 578.851562 458.179688 C 578.390625 460.3125 577.871094 462.429688 577.289062 464.53125 C 576.707031 466.632812 576.066406 468.714844 575.367188 470.78125 C 574.664062 472.84375 573.90625 474.890625 573.085938 476.910156 C 572.269531 478.933594 571.394531 480.929688 570.460938 482.898438 C 569.527344 484.871094 568.542969 486.8125 567.496094 488.730469 C 566.453125 490.644531 565.355469 492.527344 564.203125 494.378906 C 563.054688 496.230469 561.847656 498.046875 560.59375 499.832031 C 559.339844 501.613281 558.03125 503.359375 556.675781 505.066406 C 555.320312 506.777344 553.917969 508.445312 552.464844 510.070312 C 551.015625 511.699219 549.519531 513.285156 547.976562 514.824219 C 545.339844 517.480469 542.574219 519.996094 539.6875 522.375 C 536.800781 524.753906 533.800781 526.988281 530.695312 529.070312 C 527.585938 531.152344 524.382812 533.078125 521.082031 534.84375 C 517.785156 536.609375 514.40625 538.207031 510.949219 539.640625 C 507.492188 541.074219 503.972656 542.332031 500.394531 543.414062 C 496.8125 544.496094 493.183594 545.402344 489.515625 546.128906 C 485.84375 546.851562 482.144531 547.394531 478.421875 547.753906 C 474.695312 548.113281 470.964844 548.285156 467.222656 548.277344 Z M 467.222656 324.867188 C 407.007812 324.867188 358.019531 373.855469 358.019531 434.070312 C 358.019531 494.285156 407.007812 543.28125 467.222656 543.28125 C 527.4375 543.28125 576.429688 494.289062 576.429688 434.070312 C 576.429688 373.851562 527.441406 324.867188 467.222656 324.867188 Z M 467.222656 324.867188 " fill-opacity="1" fill-rule="nonzero"/></svg>