<svg xmlns="http://www.w3.org/2000/svg" xmlns:xlink="http://www.w3.org/1999/xlink" width="940" zoomAndPan="magnify" viewBox="0 0 705 591.000005" height="788" preserveAspectRatio="xMidYMid meet" version="1.0"><defs><clipPath id="48181e877d"><path d="M 76 9 L 533 9 L 533 584 L 76 584 Z M 76 9 " clip-rule="nonzero"/></clipPath><clipPath id="8ed208a36a"><path d="M 292.492188 -115.417969 L 780.953125 272.394531 L 412.695312 736.230469 L -75.769531 348.414062 Z M 292.492188 -115.417969 " clip-rule="nonzero"/></clipPath><clipPath id="d529ba4d81"><path d="M 292.492188 -115.417969 L 780.953125 272.394531 L 412.695312 736.230469 L -75.769531 348.414062 Z M 292.492188 -115.417969 " clip-rule="nonzero"/></clipPath><clipPath id="e1f0bf0bdf"><path d="M 50 100 L 236 100 L 236 335 L 50 335 Z M 50 100 " clip-rule="nonzero"/></clipPath><clipPath id="9e6ae03355"><path d="M 292.492188 -115.417969 L 780.953125 272.394531 L 412.695312 736.230469 L -75.769531 348.414062 Z M 292.492188 -115.417969 " clip-rule="nonzero"/></clipPath><clipPath id="53a873a9f0"><path d="M 292.492188 -115.417969 L 780.953125 272.394531 L 412.695312 736.230469 L -75.769531 348.414062 Z M 292.492188 -115.417969 " clip-rule="nonzero"/></clipPath><clipPath id="4e32d971bf"><path d="M 469 157 L 509 157 L 509 198 L 469 198 Z M 469 157 " clip-rule="nonzero"/></clipPath><clipPath id="61c2670b6c"><path d="M 292.492188 -115.417969 L 780.953125 272.394531 L 412.695312 736.230469 L -75.769531 348.414062 Z M 292.492188 -115.417969 " clip-rule="nonzero"/></clipPath><clipPath id="fb3060c69c"><path d="M 292.492188 -115.417969 L 780.953125 272.394531 L 412.695312 736.230469 L -75.769531 348.414062 Z M 292.492188 -115.417969 " clip-rule="nonzero"/></clipPath><clipPath id="889d2a0194"><path d="M 517 169 L 564 169 L 564 217 L 517 217 Z M 517 169 " clip-rule="nonzero"/></clipPath><clipPath id="46c817c9af"><path d="M 292.492188 -115.417969 L 780.953125 272.394531 L 412.695312 736.230469 L -75.769531 348.414062 Z M 292.492188 -115.417969 " clip-rule="nonzero"/></clipPath><clipPath id="47f099d8b0"><path d="M 292.492188 -115.417969 L 780.953125 272.394531 L 412.695312 736.230469 L -75.769531 348.414062 Z M 292.492188 -115.417969 " clip-rule="nonzero"/></clipPath><clipPath id="6d1d88b530"><path d="M 483 204 L 519 204 L 519 240 L 483 240 Z M 483 204 " clip-rule="nonzero"/></clipPath><clipPath id="f70eda5651"><path d="M 292.492188 -115.417969 L 780.953125 272.394531 L 412.695312 736.230469 L -75.769531 348.414062 Z M 292.492188 -115.417969 " clip-rule="nonzero"/></clipPath><clipPath id="19f22e8842"><path d="M 292.492188 -115.417969 L 780.953125 272.394531 L 412.695312 736.230469 L -75.769531 348.414062 Z M 292.492188 -115.417969 " clip-rule="nonzero"/></clipPath></defs><g clip-path="url(#48181e877d)"><g clip-path="url(#8ed208a36a)"><g clip-path="url(#d529ba4d81)"><path fill="#6cb5ff" d="M 379 12.144531 C 460.964844 26.777344 538.53125 80.027344 460.964844 219.988281 C 383.398438 359.949219 447.730469 391.015625 470.46875 404.902344 C 530.4375 441.464844 573.832031 533.027344 468.066406 575.148438 C 362.300781 617.273438 113.539062 498.761719 89.53125 404.042969 C 65.757812 310.34375 59.417969 251.121094 223.640625 71.582031 C 226.332031 68.714844 229.6875 66.589844 232.382812 63.722656 C 246.398438 49.214844 301.65625 -1.742188 379 12.144531 Z M 379 12.144531 " fill-opacity="1" fill-rule="nonzero"/></g></g></g><g clip-path="url(#e1f0bf0bdf)"><g clip-path="url(#9e6ae03355)"><g clip-path="url(#53a873a9f0)"><path fill="#123060" d="M 173.074219 101.671875 C 206.414062 107.71875 238.054688 129.292969 206.375 186.261719 C 174.820312 243.328125 200.894531 255.902344 210.246094 261.449219 C 234.621094 276.425781 252.246094 313.554688 209.253906 330.691406 C 166.261719 347.828125 64.976562 299.511719 55.226562 261.128906 C 45.5 222.980469 42.960938 198.871094 109.863281 125.894531 C 111.007812 124.71875 112.304688 123.871094 113.445312 122.695312 C 119.03125 116.707031 141.515625 96 173.074219 101.671875 Z M 173.074219 101.671875 " fill-opacity="1" fill-rule="nonzero"/></g></g></g><g clip-path="url(#4e32d971bf)"><g clip-path="url(#61c2670b6c)"><g clip-path="url(#fb3060c69c)"><path fill="#123060" d="M 504.648438 189.640625 C 504.246094 190.148438 503.820312 190.632812 503.371094 191.097656 C 502.921875 191.5625 502.449219 192.003906 501.957031 192.425781 C 501.460938 192.84375 500.949219 193.234375 500.417969 193.605469 C 499.886719 193.972656 499.335938 194.3125 498.773438 194.628906 C 498.207031 194.941406 497.625 195.226562 497.035156 195.484375 C 496.441406 195.742188 495.835938 195.96875 495.21875 196.167969 C 494.601562 196.363281 493.980469 196.53125 493.347656 196.667969 C 492.714844 196.804688 492.078125 196.910156 491.433594 196.984375 C 490.792969 197.058594 490.148438 197.097656 489.5 197.109375 C 488.851562 197.121094 488.207031 197.097656 487.5625 197.046875 C 486.917969 196.992188 486.277344 196.910156 485.640625 196.792969 C 485.003906 196.675781 484.375 196.53125 483.753906 196.351562 C 483.132812 196.175781 482.519531 195.964844 481.917969 195.730469 C 481.316406 195.492188 480.730469 195.222656 480.152344 194.929688 C 479.578125 194.632812 479.019531 194.308594 478.476562 193.960938 C 477.929688 193.609375 477.40625 193.230469 476.898438 192.828125 C 476.394531 192.425781 475.90625 192 475.441406 191.550781 C 474.976562 191.101562 474.535156 190.628906 474.117188 190.136719 C 473.699219 189.644531 473.304688 189.128906 472.9375 188.597656 C 472.570312 188.066406 472.230469 187.519531 471.914062 186.953125 C 471.601562 186.386719 471.316406 185.808594 471.058594 185.214844 C 470.800781 184.621094 470.574219 184.015625 470.375 183.398438 C 470.175781 182.785156 470.011719 182.160156 469.875 181.527344 C 469.738281 180.894531 469.632812 180.257812 469.558594 179.613281 C 469.484375 178.972656 469.441406 178.328125 469.433594 177.679688 C 469.421875 177.035156 469.441406 176.386719 469.496094 175.742188 C 469.550781 175.097656 469.632812 174.457031 469.75 173.820312 C 469.863281 173.1875 470.011719 172.554688 470.191406 171.933594 C 470.367188 171.3125 470.574219 170.699219 470.8125 170.097656 C 471.050781 169.496094 471.316406 168.910156 471.613281 168.332031 C 471.910156 167.757812 472.230469 167.199219 472.582031 166.65625 C 472.933594 166.113281 473.308594 165.585938 473.710938 165.082031 C 474.113281 164.574219 474.539062 164.085938 474.992188 163.625 C 475.441406 163.160156 475.910156 162.714844 476.40625 162.296875 C 476.898438 161.878906 477.410156 161.488281 477.941406 161.117188 C 478.476562 160.75 479.023438 160.410156 479.589844 160.09375 C 480.15625 159.78125 480.734375 159.496094 481.328125 159.238281 C 481.921875 158.980469 482.527344 158.753906 483.140625 158.554688 C 483.757812 158.359375 484.382812 158.191406 485.015625 158.054688 C 485.648438 157.917969 486.285156 157.8125 486.925781 157.738281 C 487.570312 157.664062 488.214844 157.625 488.859375 157.613281 C 489.507812 157.601562 490.152344 157.625 490.796875 157.675781 C 491.441406 157.730469 492.082031 157.8125 492.71875 157.929688 C 493.355469 158.046875 493.984375 158.191406 494.605469 158.371094 C 495.230469 158.546875 495.839844 158.757812 496.441406 158.992188 C 497.042969 159.230469 497.632812 159.5 498.207031 159.792969 C 498.785156 160.089844 499.34375 160.414062 499.886719 160.761719 C 500.429688 161.113281 500.957031 161.492188 501.460938 161.894531 C 501.96875 162.296875 502.453125 162.722656 502.917969 163.171875 C 503.382812 163.621094 503.824219 164.09375 504.242188 164.585938 C 504.660156 165.078125 505.054688 165.59375 505.421875 166.125 C 505.792969 166.65625 506.132812 167.203125 506.445312 167.769531 C 506.761719 168.335938 507.046875 168.914062 507.304688 169.507812 C 507.5625 170.101562 507.789062 170.707031 507.984375 171.324219 C 508.183594 171.9375 508.351562 172.5625 508.488281 173.195312 C 508.625 173.828125 508.730469 174.464844 508.800781 175.109375 C 508.875 175.75 508.917969 176.394531 508.929688 177.042969 C 508.9375 177.6875 508.917969 178.335938 508.863281 178.980469 C 508.8125 179.625 508.726562 180.265625 508.613281 180.902344 C 508.496094 181.535156 508.347656 182.164062 508.171875 182.789062 C 507.992188 183.410156 507.785156 184.023438 507.546875 184.625 C 507.308594 185.226562 507.042969 185.8125 506.746094 186.386719 C 506.453125 186.964844 506.128906 187.523438 505.777344 188.066406 C 505.429688 188.609375 505.050781 189.136719 504.648438 189.640625 Z M 504.648438 189.640625 " fill-opacity="1" fill-rule="nonzero"/></g></g></g><g clip-path="url(#889d2a0194)"><g clip-path="url(#46c817c9af)"><g clip-path="url(#47f099d8b0)"><path fill="#123060" d="M 558.835938 207.234375 C 558.359375 207.835938 557.855469 208.410156 557.324219 208.957031 C 556.792969 209.507812 556.234375 210.027344 555.652344 210.523438 C 555.070312 211.019531 554.464844 211.480469 553.835938 211.917969 C 553.207031 212.351562 552.558594 212.753906 551.890625 213.125 C 551.222656 213.496094 550.535156 213.835938 549.835938 214.140625 C 549.132812 214.441406 548.417969 214.710938 547.691406 214.945312 C 546.960938 215.179688 546.226562 215.378906 545.476562 215.539062 C 544.730469 215.699219 543.976562 215.824219 543.21875 215.910156 C 542.457031 216 541.695312 216.046875 540.933594 216.058594 C 540.167969 216.074219 539.40625 216.046875 538.640625 215.984375 C 537.878906 215.921875 537.125 215.824219 536.371094 215.6875 C 535.621094 215.546875 534.875 215.375 534.140625 215.164062 C 533.40625 214.953125 532.683594 214.710938 531.972656 214.429688 C 531.261719 214.148438 530.566406 213.832031 529.886719 213.484375 C 529.207031 213.132812 528.542969 212.75 527.902344 212.335938 C 527.257812 211.921875 526.640625 211.476562 526.039062 211.003906 C 525.441406 210.527344 524.867188 210.023438 524.316406 209.492188 C 523.769531 208.960938 523.246094 208.402344 522.753906 207.820312 C 522.257812 207.238281 521.792969 206.628906 521.359375 206.003906 C 520.921875 205.375 520.519531 204.726562 520.148438 204.054688 C 519.777344 203.386719 519.441406 202.703125 519.136719 202.003906 C 518.832031 201.300781 518.5625 200.585938 518.328125 199.859375 C 518.097656 199.128906 517.898438 198.390625 517.738281 197.644531 C 517.574219 196.898438 517.453125 196.144531 517.363281 195.386719 C 517.277344 194.625 517.226562 193.863281 517.214844 193.097656 C 517.203125 192.335938 517.226562 191.570312 517.289062 190.808594 C 517.351562 190.046875 517.453125 189.289062 517.589844 188.539062 C 517.726562 187.785156 517.898438 187.042969 518.109375 186.308594 C 518.320312 185.574219 518.566406 184.851562 518.847656 184.140625 C 519.128906 183.429688 519.445312 182.734375 519.792969 182.050781 C 520.140625 181.371094 520.523438 180.710938 520.9375 180.070312 C 521.351562 179.425781 521.796875 178.804688 522.273438 178.207031 C 522.75 177.609375 523.253906 177.035156 523.785156 176.484375 C 524.316406 175.9375 524.871094 175.414062 525.457031 174.917969 C 526.039062 174.425781 526.644531 173.960938 527.273438 173.527344 C 527.902344 173.089844 528.550781 172.6875 529.21875 172.316406 C 529.886719 171.945312 530.570312 171.609375 531.273438 171.304688 C 531.976562 171 532.691406 170.730469 533.417969 170.496094 C 534.144531 170.261719 534.882812 170.066406 535.628906 169.90625 C 536.378906 169.742188 537.132812 169.621094 537.890625 169.53125 C 538.648438 169.445312 539.410156 169.394531 540.175781 169.382812 C 540.941406 169.371094 541.703125 169.394531 542.464844 169.457031 C 543.226562 169.519531 543.984375 169.621094 544.738281 169.757812 C 545.488281 169.894531 546.234375 170.066406 546.96875 170.277344 C 547.703125 170.488281 548.425781 170.734375 549.136719 171.015625 C 549.847656 171.296875 550.542969 171.609375 551.222656 171.960938 C 551.902344 172.308594 552.5625 172.691406 553.207031 173.105469 C 553.847656 173.519531 554.46875 173.964844 555.066406 174.441406 C 555.667969 174.914062 556.242188 175.417969 556.789062 175.953125 C 557.339844 176.484375 557.859375 177.039062 558.355469 177.625 C 558.851562 178.207031 559.316406 178.8125 559.75 179.441406 C 560.183594 180.070312 560.585938 180.71875 560.960938 181.386719 C 561.332031 182.054688 561.667969 182.738281 561.972656 183.441406 C 562.277344 184.140625 562.542969 184.855469 562.777344 185.585938 C 563.011719 186.3125 563.210938 187.050781 563.371094 187.796875 C 563.53125 188.546875 563.65625 189.296875 563.742188 190.058594 C 563.832031 190.816406 563.878906 191.578125 563.894531 192.34375 C 563.90625 193.109375 563.878906 193.871094 563.816406 194.632812 C 563.753906 195.394531 563.65625 196.152344 563.519531 196.902344 C 563.382812 197.65625 563.207031 198.398438 562.996094 199.136719 C 562.789062 199.871094 562.542969 200.59375 562.261719 201.304688 C 561.980469 202.015625 561.664062 202.710938 561.316406 203.390625 C 560.964844 204.070312 560.585938 204.730469 560.167969 205.375 C 559.753906 206.015625 559.308594 206.636719 558.835938 207.234375 Z M 558.835938 207.234375 " fill-opacity="1" fill-rule="nonzero"/></g></g></g><g clip-path="url(#6d1d88b530)"><g clip-path="url(#f70eda5651)"><g clip-path="url(#19f22e8842)"><path fill="#123060" d="M 514.980469 233.070312 C 514.625 233.515625 514.25 233.945312 513.851562 234.355469 C 513.453125 234.769531 513.035156 235.160156 512.601562 235.527344 C 512.164062 235.898438 511.710938 236.246094 511.238281 236.570312 C 510.769531 236.898438 510.285156 237.199219 509.785156 237.476562 C 509.285156 237.753906 508.773438 238.007812 508.246094 238.234375 C 507.722656 238.460938 507.1875 238.664062 506.640625 238.839844 C 506.097656 239.011719 505.546875 239.160156 504.988281 239.28125 C 504.425781 239.402344 503.863281 239.496094 503.296875 239.558594 C 502.726562 239.625 502.15625 239.664062 501.585938 239.671875 C 501.011719 239.679688 500.441406 239.664062 499.871094 239.617188 C 499.300781 239.570312 498.734375 239.496094 498.171875 239.390625 C 497.609375 239.289062 497.054688 239.160156 496.503906 239.003906 C 495.953125 238.84375 495.414062 238.660156 494.878906 238.449219 C 494.347656 238.242188 493.828125 238.003906 493.320312 237.742188 C 492.8125 237.480469 492.316406 237.195312 491.835938 236.886719 C 491.355469 236.574219 490.890625 236.242188 490.441406 235.886719 C 489.996094 235.53125 489.566406 235.15625 489.152344 234.757812 C 488.742188 234.359375 488.351562 233.941406 487.984375 233.507812 C 487.613281 233.070312 487.265625 232.617188 486.9375 232.144531 C 486.613281 231.675781 486.3125 231.191406 486.035156 230.691406 C 485.757812 230.191406 485.503906 229.675781 485.277344 229.152344 C 485.050781 228.628906 484.847656 228.09375 484.671875 227.546875 C 484.5 227.003906 484.351562 226.453125 484.230469 225.894531 C 484.109375 225.332031 484.015625 224.769531 483.949219 224.203125 C 483.886719 223.632812 483.847656 223.0625 483.839844 222.492188 C 483.828125 221.917969 483.847656 221.347656 483.894531 220.777344 C 483.941406 220.207031 484.015625 219.640625 484.121094 219.078125 C 484.222656 218.515625 484.351562 217.960938 484.507812 217.410156 C 484.667969 216.859375 484.851562 216.320312 485.058594 215.785156 C 485.269531 215.253906 485.507812 214.734375 485.769531 214.226562 C 486.03125 213.71875 486.316406 213.222656 486.625 212.742188 C 486.933594 212.261719 487.269531 211.796875 487.625 211.347656 C 487.980469 210.902344 488.355469 210.472656 488.753906 210.058594 C 489.152344 209.648438 489.570312 209.257812 490.003906 208.886719 C 490.441406 208.519531 490.894531 208.171875 491.367188 207.84375 C 491.835938 207.519531 492.320312 207.21875 492.820312 206.941406 C 493.320312 206.664062 493.832031 206.410156 494.359375 206.183594 C 494.882812 205.957031 495.417969 205.753906 495.960938 205.578125 C 496.507812 205.40625 497.058594 205.257812 497.617188 205.136719 C 498.175781 205.015625 498.742188 204.921875 499.308594 204.855469 C 499.878906 204.792969 500.449219 204.753906 501.019531 204.746094 C 501.59375 204.734375 502.164062 204.753906 502.734375 204.800781 C 503.304688 204.847656 503.871094 204.921875 504.433594 205.027344 C 504.996094 205.128906 505.550781 205.257812 506.101562 205.414062 C 506.652344 205.574219 507.191406 205.757812 507.722656 205.964844 C 508.257812 206.175781 508.777344 206.414062 509.285156 206.675781 C 509.792969 206.9375 510.289062 207.222656 510.769531 207.53125 C 511.25 207.839844 511.714844 208.175781 512.164062 208.53125 C 512.609375 208.886719 513.039062 209.261719 513.453125 209.660156 C 513.863281 210.058594 514.253906 210.476562 514.621094 210.910156 C 514.992188 211.347656 515.339844 211.800781 515.664062 212.273438 C 515.992188 212.742188 516.292969 213.226562 516.570312 213.726562 C 516.847656 214.226562 517.101562 214.738281 517.328125 215.265625 C 517.554688 215.789062 517.757812 216.324219 517.933594 216.867188 C 518.105469 217.414062 518.253906 217.964844 518.375 218.523438 C 518.496094 219.082031 518.589844 219.648438 518.652344 220.214844 C 518.71875 220.785156 518.757812 221.355469 518.765625 221.925781 C 518.773438 222.5 518.757812 223.070312 518.710938 223.640625 C 518.664062 224.210938 518.589844 224.777344 518.484375 225.339844 C 518.382812 225.902344 518.253906 226.457031 518.097656 227.007812 C 517.9375 227.558594 517.753906 228.097656 517.542969 228.628906 C 517.335938 229.164062 517.097656 229.683594 516.835938 230.191406 C 516.574219 230.699219 516.289062 231.195312 515.980469 231.675781 C 515.671875 232.15625 515.335938 232.621094 514.980469 233.070312 Z M 514.980469 233.070312 " fill-opacity="1" fill-rule="nonzero"/></g></g></g></svg>