<svg xmlns="http://www.w3.org/2000/svg" xmlns:xlink="http://www.w3.org/1999/xlink" width="940" zoomAndPan="magnify" viewBox="0 0 705 591.000005" height="788" preserveAspectRatio="xMidYMid meet" version="1.0"><defs><clipPath id="bfdcdd0969"><path d="M 0.59375 235.175781 L 125 235.175781 L 125 354.972656 L 0.59375 354.972656 Z M 0.59375 235.175781 " clip-rule="nonzero"/></clipPath><clipPath id="2a426b72da"><path d="M 145 235.175781 L 270 235.175781 L 270 354.972656 L 145 354.972656 Z M 145 235.175781 " clip-rule="nonzero"/></clipPath><clipPath id="278f254bd0"><path d="M 290 235.175781 L 415 235.175781 L 415 354.972656 L 290 354.972656 Z M 290 235.175781 " clip-rule="nonzero"/></clipPath><clipPath id="93dacfbdfe"><path d="M 435 235.175781 L 560 235.175781 L 560 354.972656 L 435 354.972656 Z M 435 235.175781 " clip-rule="nonzero"/></clipPath><clipPath id="335836fa2d"><path d="M 580 235.175781 L 704.402344 235.175781 L 704.402344 354.972656 L 580 354.972656 Z M 580 235.175781 " clip-rule="nonzero"/></clipPath></defs><g clip-path="url(#bfdcdd0969)"><path fill="#ffb901" d="M 62.683594 235.175781 L 77.402344 280.832031 L 124.773438 280.832031 L 86.371094 309.148438 L 101.085938 354.972656 L 62.683594 326.65625 L 24.277344 354.972656 L 38.996094 309.148438 L 0.59375 280.832031 L 47.964844 280.832031 Z M 62.683594 235.175781 " fill-opacity="1" fill-rule="nonzero"/></g><g clip-path="url(#2a426b72da)"><path fill="#ffb901" d="M 207.671875 235.175781 L 222.21875 280.832031 L 269.761719 280.832031 L 231.355469 309.148438 L 246.074219 354.972656 L 207.671875 326.65625 L 169.265625 354.972656 L 183.816406 309.148438 L 145.410156 280.832031 L 192.953125 280.832031 Z M 207.671875 235.175781 " fill-opacity="1" fill-rule="nonzero"/></g><g clip-path="url(#278f254bd0)"><path fill="#ffb901" d="M 352.492188 235.175781 L 367.210938 280.832031 L 414.582031 280.832031 L 376.175781 309.148438 L 390.894531 354.972656 L 352.492188 326.65625 L 314.085938 354.972656 L 328.808594 309.148438 L 290.402344 280.832031 L 337.773438 280.832031 Z M 352.492188 235.175781 " fill-opacity="1" fill-rule="nonzero"/></g><g clip-path="url(#93dacfbdfe)"><path fill="#ffb901" d="M 497.480469 235.175781 L 512.027344 280.832031 L 559.570312 280.832031 L 521.164062 309.148438 L 535.882812 354.972656 L 497.480469 326.65625 L 459.074219 354.972656 L 473.625 309.148438 L 435.21875 280.832031 L 482.761719 280.832031 Z M 497.480469 235.175781 " fill-opacity="1" fill-rule="nonzero"/></g><g clip-path="url(#335836fa2d)"><path fill="#dcdcdc" d="M 642.296875 235.175781 L 657.019531 280.832031 L 704.390625 280.832031 L 665.984375 309.148438 L 680.703125 354.972656 L 642.296875 326.65625 L 603.894531 354.972656 L 618.617188 309.148438 L 580.210938 280.832031 L 627.582031 280.832031 Z M 642.296875 235.175781 " fill-opacity="1" fill-rule="nonzero"/></g></svg>